<svg xmlns="http://www.w3.org/2000/svg" xmlns:xlink="http://www.w3.org/1999/xlink" viewBox="0 0 81.188 149.105" height="563.548" width="306.851"><defs><linearGradient id="e"><stop offset="0" stop-color="#303394"/><stop offset="1" stop-color="#303394"/></linearGradient><linearGradient id="d"><stop offset="0" stop-color="#fff"/><stop offset=".243" stop-color="#fafcfb"/><stop offset=".472" stop-color="#b4d7d3"/><stop offset="1" stop-color="#bbdbd6"/></linearGradient><linearGradient id="c"><stop offset="0" stop-color="#00519d"/><stop offset="1" stop-color="#00519d" stop-opacity="0"/></linearGradient><linearGradient id="b"><stop offset="0" stop-color="#518cef"/><stop offset="1" stop-color="#518cef" stop-opacity="0"/></linearGradient><linearGradient id="a"><stop offset="0" stop-color="#518cef"/><stop offset="1" stop-color="#518cef" stop-opacity="0"/></linearGradient><linearGradient id="f"><stop offset="0" stop-color="#303392"/><stop offset="1" stop-color="#3941bd"/></linearGradient><clipPath id="i" clipPathUnits="userSpaceOnUse"><path d="M-411.918-901.757v269.845c65.297-4.443 104.96-21.192 109.167-51.368l17.303-124.09c-11.2-72.697-76.924-90.744-126.47-94.387z" opacity=".661" fill="#e57373" stroke="#9575cd" stroke-width="2" stroke-linecap="round" stroke-linejoin="round" paint-order="markers stroke fill"/></clipPath><clipPath id="h" clipPathUnits="userSpaceOnUse"><path d="M-448.639-522.359c.128 27.398 16.911 41.534 36.72 41.534 19.81 0 36.593-14.136 36.72-41.534-.177.04-.361.064-.552.064h-72.335c-.19 0-.375-.023-.553-.064z" opacity=".219" fill="#0fd" stroke="#9575cd" stroke-width="2.152" stroke-linecap="round" stroke-linejoin="round" paint-order="markers stroke fill"/></clipPath><clipPath id="j" clipPathUnits="userSpaceOnUse"><path d="M-411.918 901.757c-49.68 0-115.27-21.69-126.471-94.386l17.303-124.09c4.208-30.177 43.719-51.37 109.168-51.37 65.448 0 104.96 21.193 109.167 51.37l17.303 124.09c-11.2 72.696-76.79 94.386-126.47 94.386z" fill="#fff" stroke-width="2" stroke-linecap="round" stroke-linejoin="round" paint-order="markers stroke fill"/></clipPath><radialGradient r="25.678" fy="-760.365" fx="9.963" cy="-760.365" cx="9.963" gradientTransform="matrix(-2.11738 .904 -1.05787 -2.4778 -769.57 -2673.677)" gradientUnits="userSpaceOnUse" id="l" xlink:href="#d"/><radialGradient gradientUnits="userSpaceOnUse" gradientTransform="matrix(-2.11738 .904 -1.05787 -2.4778 -769.57 -2673.677)" r="25.678" fy="-760.365" fx="9.963" cy="-760.365" cx="9.963" id="k" xlink:href="#d"/><filter height="1.062" y="-.031" width="1.12" x="-.06" id="g" color-interpolation-filters="sRGB"><feGaussianBlur stdDeviation="7.646"/></filter></defs><g paint-order="markers stroke fill"><g opacity=".486" fill="#0fd" stroke="#0fd" filter="url(#g)" stroke-linecap="round" stroke-linejoin="round" transform="matrix(.2367 0 0 .2367 140.205 229.807)"><path opacity=".219" stroke-width="2" d="M-432.966-540.724h42.095v17.961h-42.095z"/><path d="M-472.508-600.202l-14.155 41.54 3.239 16.318c4.785 4.666 23.811-40.46 27.764-48.016 3.95-7.551 5.51-23.865 5.51-23.865l-19.844 2.778z" stroke-width="2"/><path d="M-441.38-631.445c4.577 5.897-3.038 17.072-14.24 25.768-11.203 8.696-21.75 11.62-26.328 5.723-4.578-5.898.793-17.728 11.995-26.424 11.203-8.696 23.995-10.965 28.573-5.067z" stroke-width="2"/><path d="M-364.532-585.347c0 27.604-21.727 53.072-47.386 53.072-25.66 0-47.386-25.468-47.386-53.072 0-27.604 21.726-46.892 47.386-46.892 25.659 0 47.386 19.288 47.386 46.892z" stroke-width="2.445"/><rect width="33.842" height="66.627" x="-428.84" y="-678.789" rx="16.921" ry="16.921" stroke-width="1.999"/><rect ry="14.083" rx="14.083" y="-673.227" x="-426.002" height="55.453" width="28.167" stroke-width="1.663"/><path d="M-411.918-901.757c-49.68 0-115.27 21.69-126.471 94.386l17.303 124.09c4.208 30.177 43.719 51.37 109.168 51.37 65.448 0 104.96-21.193 109.167-51.37l17.303-124.09c-11.2-72.696-76.79-94.386-126.47-94.386z" stroke-width="2"/><path d="M-411.918-780.71s-29.804.162-66.517.162c-27.705 0-46.553 15.176-28.977 80.77 4.43 16.535 2.402 26.664 31.598 40.241 14.82 6.892 46.82 11.51 63.896 11.51 17.075 0 49.076-4.618 63.895-11.51 29.196-13.577 27.167-23.706 31.598-40.241 17.576-65.594-1.272-80.77-28.977-80.77-36.713 0-66.516-.162-66.516-.162z" stroke-width="2"/><path d="M-411.918-777.444s-28.34.154-63.249.154c-17.07 0-32.303 6.136-34.881 27.324-1.401 11.51 2.66 28.111 6.3 50.505 2.132 13.117 3.062 24.137 31.074 37.235 14.077 6.582 44.52 10.944 60.756 10.944 16.236 0 46.678-4.362 60.756-10.944 28.011-13.098 28.941-24.118 31.074-37.235 3.64-22.394 7.7-38.995 6.3-50.505-2.579-21.188-17.812-27.324-34.882-27.324-34.91 0-63.248-.154-63.248-.154z" stroke-width="1.902"/><circle cx="-359.748" cy="-729.122" r="15.154" stroke-width="2"/><path d="M-285.677-808.8c.078.475.156.95.23 1.43l-17.303 124.085c12.382-7.695 29.498-25.368 33.927-62.676 5.469-46.067-10.299-59.268-16.854-62.839z" stroke-width="2"/><path d="M-275.795-797.911L-291.3-692.64a67.222 67.222 0 004.962-5.805l13.443-92.695c-.895-2.594-1.875-4.836-2.9-6.772z" stroke-width="2"/><circle r="15.154" cy="-729.122" cx="464.089" transform="scale(-1 1)" stroke-width="2"/><path d="M-538.16-808.8c-.078.475-.155.95-.23 1.43l17.304 124.085c-12.383-7.695-29.5-25.368-33.928-62.676-5.469-46.067 10.299-59.268 16.854-62.839z" stroke-width="2"/><path d="M-548.041-797.911l15.504 105.272a67.222 67.222 0 01-4.962-5.805l-13.442-92.695c.894-2.594 1.874-4.836 2.9-6.772zM-374.34-535.626s-7.063 1.029-9.636 9.12c-2.572 8.092-2.619 33.396-.701 34.846 1.917 1.45 4.443 2.526 5.753.655 1.31-1.871 4.116-7.437 5.519-8.747 1.403-1.31 5.8-6.969 6.408-10.944.608-3.976 1.403-13.143 1.029-16.09-.375-2.947-.328-4.21-.328-4.21s-5.379-3.18-5.613-3.367c-.233-.187-2.432-1.263-2.432-1.263z" stroke-width="2"/><path d="M-458.945-591.397a50.821 50.821 0 00-.36 6.05c0 27.604 21.727 53.072 47.387 53.072 25.659 0 47.385-25.468 47.385-53.072 0-2.065-.124-4.083-.36-6.05-2.915 25.122-23.286 46.922-47.025 46.922-23.74 0-44.11-21.8-47.027-46.922z" stroke-width="2.445"/><path d="M-387.146-625.595v72.73c.512-.371 1.02-.751 1.52-1.143v-70.657c-.5-.32-1.008-.628-1.52-.93z" stroke-width="1.5163079799999999"/><ellipse cx="-386.419" cy="-597.49" rx="5.756" ry="8.501" stroke-width="2.063"/><ellipse ry="6.496" rx="4.398" cy="-597.49" cx="-386.419" stroke-width="1.576"/><path d="M-441.786-505.739s-2.994 2.433-3.368 6.361c-.374 3.93-.374 51.543-.374 51.543l15.435 4.023s3.274-40.786 4.677-47.52c1.403-6.736-5.425-15.155-5.425-15.155zM-399.504-491.333l18.709 51.356 14.873-4.958-13.938-53.04z" stroke-width="2"/><path d="M-448.639-522.359c.128 27.398 16.911 41.534 36.72 41.534 19.81 0 36.593-14.136 36.72-41.534-.177.04-.361.064-.552.064h-72.335c-.19 0-.375-.023-.553-.064z" stroke-width="2.15209372"/><rect y="-527.255" x="-450.566" height="4.96" width="77.295" rx="2.48" ry="2.48" stroke-width="1.424"/><rect width="28.365" height="55.472" x="-426.101" y="-514.064" rx="14.183" ry="14.183" clip-path="url(#h)" stroke-width="1.699"/><path d="M-375.198-522.359c-.178.04-.362.064-.553.064h-8.993c-1.903 24.346-17.872 36.886-36.529 36.886-3.988 0-7.853-.574-11.485-1.713 5.968 4.18 13.177 6.297 20.84 6.297 19.81 0 36.592-14.136 36.72-41.534z" stroke-width="2.15209372"/><path d="M-322.891-773.088c3.61-31.143-.622-69.614 33.863-79.887" clip-path="url(#i)" stroke-width="2"/><path clip-path="url(#i)" d="M-322.891-773.088c3.61-31.143-.622-69.614 33.863-79.887" transform="matrix(-1 0 0 1 -823.837 0)" stroke-width="2"/><path d="M-526.35-591.519s2.338-4.958 6.829-3.087c4.49 1.871 28.853 15.172 32.179 18.99 7.355 8.443 11.098 34.444 4.396 41.627-6.36 7.296-33.582-24.79-41.44-35.453-7.858-10.664-8.98-13.097-8.232-15.342.749-2.245 6.268-6.735 6.268-6.735z" stroke-width="2"/><path d="M-530.209-587.999c-1.119 1.149-2.12 2.349-2.409 3.216-.748 2.245.374 4.677 8.232 15.34 7.858 10.665 35.08 42.75 41.44 35.454 2.647-2.837 3.66-8.613 3.469-15.08-16.738-1.824-25.542-11.399-35.367-19.438-6.41-5.244-11.981-13.75-15.365-19.492z" stroke-width="1.99996022"/><g stroke-width="2"><path d="M-348.525-606.466l24.424 36.46 1.095 16.601c-3.415 5.746-33.472-32.918-39.246-39.195-5.769-6.27-11.498-21.625-11.498-21.625l19.887-2.452z"/><path d="M-382.52-631.445c-4.578 5.897 3.038 17.072 14.24 25.768 11.203 8.696 21.75 11.62 26.327 5.723 4.578-5.898-.792-17.728-11.995-26.424-11.202-8.696-23.995-10.965-28.572-5.067z"/></g><path d="M-373.096-530.545s-4.184-3.542-1.215-7.395c2.97-3.853 22.854-27.805 27.403-30.03 10.059-4.92 36.143-1.805 41.346 6.528 5.402 8.032-32.636 26.022-44.97 30.852-12.335 4.83-15.008 5.913-16.983 4.609-2.217-1.001-5.678-4.443-5.581-4.564z" stroke-width="2"/><path d="M-333.91-570.314c-5.146.054-9.855.807-12.998 2.345-4.55 2.224-24.434 26.176-27.403 30.03-2.97 3.852 1.214 7.394 1.214 7.394-.017.022.11.175.293.376 4.767-4.774 12.033-12.104 18.432-18.836 6.51-6.848 23.633-14.814 35.168-19.684-4.67-1.108-9.878-1.676-14.705-1.625z" stroke-width="1.99996022"/><path d="M-546.194-607.743c-6.483-.661-20.109-3.836-24.739-1.653-4.63 2.182-4.222 7.453 2.712 11.244 4.233 2.316 18.72 10.65 23.35 13.626 4.63 2.977 8.003 4.763 12.7 2.712 4.696-2.05 10.847-11.178 8.4-16.007-.86-5.953-5.193-10.33-8.268-15.213-2.306-3.661-4.356-11.657-7.607-10.518-9.49 3.325 3.65 16.4-6.548 15.81zM-450.944-436.623s-4.168 16.404-4.763 32.411c-.595 16.007-.926 10.716-.86 13.758.066 3.043.662 4.829.662 4.829s-8.07 6.35-10.848 12.766c-2.778 6.416-4.101 11.84.33 12.37 4.432.529 49.08.33 49.61.198.529-.132 3.24-1.588 2.91-4.829-.33-3.24-.727-3.969-.727-3.969l-4.961-15.015s2.315-.397 1.455-11.178c-.86-10.782-3.506-30.097-4.829-35.322-1.323-5.226-3.175-13.23-8.599-17.33-5.424-4.101-6.948-3.093-6.948-3.093s-.701-3.164-2.834-4.509c-1.736-1.095-4.667-.977-6.953 2.971-4.658 8.044-2.557 15.92-2.645 15.942z" stroke-width="2"/><path d="M-431.823-448.123c.19 10.13 1.173 62.788 1.053 63.689-.132.992 1.323 3.44-4.829.793-6.151-2.645-6.813-4.63-12.435-4.167-4.223.348-5.76 1.442-8.589 2.778-.368.309-.817.694-1.409 1.23.193-.038.39-.074.605-.105 4.035-.596 14.09-3.374 20.307 2.116 6.218 5.49 7.144 11.84 7.011 14.685-.119 2.558 1.15 4.474-3.79 6.951 9.203-.022 16.87-.084 17.086-.138.529-.132 3.24-1.588 2.91-4.829-.33-3.24-.727-3.969-.727-3.969l-4.961-15.015s2.315-.397 1.455-11.178c-.86-10.782-3.506-30.097-4.829-35.322-1.323-5.226-3.175-13.23-8.599-17.33-.09-.069-.17-.124-.259-.19z" stroke-width="1.99996022"/><ellipse cx="-351.859" cy="-446.236" rx="6.142" ry="8.867" transform="matrix(.98298 -.18372 .16631 .98607 0 0)" stroke-width="2.118"/><path d="M-437.993-451.136a2.03 2.03 0 00-.191.015c-.067 1.501 0 3.53.336 6.296 1.125 9.26-6.217 14.155-6.217 14.155.028.225 8.289-2.28 11.443-12.833a29.178 29.178 0 001.396-4.163c-.112-.09-.223-.181-.338-.268-3.729-2.82-5.615-3.224-6.43-3.202z" stroke-width="1.99996022"/><path d="M-357.432-436.154s8.163 16.484 12.614 32.57c4.45 16.084 3.513 10.767 4.177 13.825.665 3.057.491 4.852.491 4.852s9.7 6.38 14.055 12.828c4.356 6.447 7 11.898 2.638 12.43-4.361.531-49.627.332-50.195.199-.568-.133-3.664-1.595-4.108-4.852-.444-3.257-.217-3.988-.217-3.988l1.415-15.088s-2.44-.4-4.16-11.234c-1.721-10.834-3.684-30.243-3.6-35.494.084-5.25.036-13.293 4.543-17.414 4.508-4.121 6.294-3.108 6.294-3.108s-.05-3.18 1.786-4.53c1.496-1.101 4.492-.982 7.756 2.985 6.65 8.083 6.417 15.997 6.511 16.019z" stroke-width="2.018"/><path d="M-379.562-447.71c2.242 10.18 13.904 63.094 14.242 64 .372.996-.513 3.456 5.08.797 5.595-2.659 5.788-4.653 11.593-4.188 4.36.35 6.18 1.45 9.366 2.791.447.311.995.698 1.723 1.236a16.627 16.627 0 00-.638-.105c-4.23-.598-15.08-3.39-20.057 2.127-4.978 5.517-4.39 11.898-3.572 14.756.736 2.57-.088 4.496 5.51 6.985-9.325-.022-17.105-.085-17.337-.139-.568-.133-3.664-1.595-4.108-4.852-.444-3.257-.217-3.988-.217-3.988l1.415-15.088s-2.44-.4-4.16-11.234c-1.721-10.834-3.684-30.243-3.6-35.494.084-5.25.036-13.293 4.543-17.414.075-.069.143-.125.217-.19z" stroke-width="2.018"/><ellipse transform="matrix(-.9846 -.17483 .06904 .99761 0 0)" ry="8.807" rx="6.485" cy="-312.788" cx="357.883" stroke-width="2.169"/><path d="M-374.037-450.737c.074.002.139.007.197.014.428 1.509.848 3.547 1.172 6.327 1.087 9.305 9.7 14.224 9.7 14.224.025.227-8.943-2.291-14.674-12.895a38.12 38.12 0 01-2.415-4.184c.092-.09.183-.182.278-.27 3.1-2.832 4.912-3.239 5.742-3.216z" stroke-width="2.018"/><rect clip-path="url(#j)" ry="29.374" rx="29.374" y="837.655" x="-441.293" height="114.889" width="58.748" transform="scale(1 -1)" stroke-width="2"/></g><g transform="matrix(.2367 0 0 .2367 140.205 229.807)"><path opacity=".219" fill="#0fd" stroke="#9575cd" stroke-width="2" stroke-linecap="round" stroke-linejoin="round" d="M-432.966-540.724h42.095v17.961h-42.095z"/><path d="M-472.508-600.202l-14.155 41.54 3.239 16.318c4.785 4.666 23.811-40.46 27.764-48.016 3.95-7.551 5.51-23.865 5.51-23.865l-19.844 2.778z" fill="#231f1c"/><path d="M38.537-769.451c0 7.465-12.868 11.623-27.05 11.623-14.181 0-24.306-4.158-24.305-11.623 0-7.465 11.496-13.517 25.677-13.517 14.182 0 25.678 6.052 25.678 13.517z" transform="rotate(-37.82)" fill="url(#k)"/><path d="M-364.532-585.347c0 27.604-21.727 53.072-47.386 53.072-25.66 0-47.386-25.468-47.386-53.072 0-27.604 21.726-46.892 47.386-46.892 25.659 0 47.386 19.288 47.386 46.892z" fill="#f4f8f8"/><rect ry="16.921" rx="16.921" y="-678.789" x="-428.84" height="66.627" width="33.842" fill="#0fd"/><rect width="28.167" height="55.453" x="-426.002" y="-673.227" rx="14.083" ry="14.083" fill="#231f20"/><path d="M-411.918-901.757c-49.68 0-115.27 21.69-126.471 94.386l17.303 124.09c4.208 30.177 43.719 51.37 109.168 51.37 65.448 0 104.96-21.193 109.167-51.37l17.303-124.09c-11.2-72.696-76.79-94.386-126.47-94.386z" fill="#fff"/><path d="M-411.918-780.71s-29.804.162-66.517.162c-27.705 0-46.553 15.176-28.977 80.77 4.43 16.535 2.402 26.664 31.598 40.241 14.82 6.892 46.82 11.51 63.896 11.51 17.075 0 49.076-4.618 63.895-11.51 29.196-13.577 27.167-23.706 31.598-40.241 17.576-65.594-1.272-80.77-28.977-80.77-36.713 0-66.516-.162-66.516-.162z" fill="#9cd1cb"/><path d="M-411.918-777.444s-28.34.154-63.249.154c-17.07 0-32.303 6.136-34.881 27.324-1.401 11.51 2.66 28.111 6.3 50.505 2.132 13.117 3.062 24.137 31.074 37.235 14.077 6.582 44.52 10.944 60.756 10.944 16.236 0 46.678-4.362 60.756-10.944 28.011-13.098 28.941-24.118 31.074-37.235 3.64-22.394 7.7-38.995 6.3-50.505-2.579-21.188-17.812-27.324-34.882-27.324-34.91 0-63.248-.154-63.248-.154z" fill="#231f20"/><circle r="15.154" cy="-729.122" cx="-359.748" fill="#0fd"/><path d="M-285.677-808.8c.078.475.156.95.23 1.43l-17.303 124.085c12.382-7.695 29.498-25.368 33.927-62.676 5.469-46.067-10.299-59.268-16.854-62.839z" fill="#231f20"/><path d="M-275.795-797.911L-291.3-692.64a67.222 67.222 0 004.962-5.805l13.443-92.695c-.895-2.594-1.875-4.836-2.9-6.772z" fill="#0fd"/><circle transform="scale(-1 1)" cx="464.089" cy="-729.122" r="15.154" fill="#0fd"/><path d="M-538.16-808.8c-.078.475-.155.95-.23 1.43l17.304 124.085c-12.383-7.695-29.5-25.368-33.928-62.676-5.469-46.067 10.299-59.268 16.854-62.839z" fill="#231f20"/><path d="M-548.041-797.911l15.504 105.272a67.222 67.222 0 01-4.962-5.805l-13.442-92.695c.894-2.594 1.874-4.836 2.9-6.772z" fill="#0fd"/><path d="M-374.34-535.626s-7.063 1.029-9.636 9.12c-2.572 8.092-2.619 33.396-.701 34.846 1.917 1.45 4.443 2.526 5.753.655 1.31-1.871 4.116-7.437 5.519-8.747 1.403-1.31 5.8-6.969 6.408-10.944.608-3.976 1.403-13.143 1.029-16.09-.375-2.947-.328-4.21-.328-4.21s-5.379-3.18-5.613-3.367c-.233-.187-2.432-1.263-2.432-1.263z" fill="#231f20"/><path d="M-458.945-591.397a50.821 50.821 0 00-.36 6.05c0 27.604 21.727 53.072 47.387 53.072 25.659 0 47.385-25.468 47.385-53.072 0-2.065-.124-4.083-.36-6.05-2.915 25.122-23.286 46.922-47.025 46.922-23.74 0-44.11-21.8-47.027-46.922z" fill="#79dacf"/><path d="M-387.146-625.595v72.73c.512-.371 1.02-.751 1.52-1.143v-70.657c-.5-.32-1.008-.628-1.52-.93z" fill="#37efd7"/><ellipse ry="8.501" rx="5.756" cy="-597.49" cx="-386.419" fill="#231f20"/><ellipse cx="-386.419" cy="-597.49" rx="4.398" ry="6.496" fill="#37efd7"/><path d="M-441.786-505.739s-2.994 2.433-3.368 6.361c-.374 3.93-.374 51.543-.374 51.543l15.435 4.023s3.274-40.786 4.677-47.52c1.403-6.736-5.425-15.155-5.425-15.155zM-399.504-491.333l18.709 51.356 14.873-4.958-13.938-53.04z" fill="#231f20"/><path d="M-448.639-522.359c.128 27.398 16.911 41.534 36.72 41.534 19.81 0 36.593-14.136 36.72-41.534-.177.04-.361.064-.552.064h-72.335c-.19 0-.375-.023-.553-.064z" fill="#f4f8f8"/><rect ry="2.48" rx="2.48" width="77.295" height="4.96" x="-450.566" y="-527.255" fill="#1b504a"/><rect clip-path="url(#h)" ry="14.183" rx="14.183" y="-514.064" x="-426.101" height="55.472" width="28.365" fill="none" stroke="#1b504a" stroke-width="1.699" stroke-linecap="round" stroke-linejoin="round"/><path d="M-375.198-522.359c-.178.04-.362.064-.553.064h-8.993c-1.903 24.346-17.872 36.886-36.529 36.886-3.988 0-7.853-.574-11.485-1.713 5.968 4.18 13.177 6.297 20.84 6.297 19.81 0 36.592-14.136 36.72-41.534z" fill="#79dacf"/><path clip-path="url(#i)" d="M-322.891-773.088c3.61-31.143-.622-69.614 33.863-79.887" fill="none" stroke="#9cd1cb" stroke-width="2" stroke-linecap="round" stroke-linejoin="round"/><path transform="matrix(-1 0 0 1 -823.837 0)" d="M-322.891-773.088c3.61-31.143-.622-69.614 33.863-79.887" clip-path="url(#i)" fill="none" stroke="#9cd1cb" stroke-width="2" stroke-linecap="round" stroke-linejoin="round"/><path d="M-526.35-591.519s2.338-4.958 6.829-3.087c4.49 1.871 28.853 15.172 32.179 18.99 7.355 8.443 11.098 34.444 4.396 41.627-6.36 7.296-33.582-24.79-41.44-35.453-7.858-10.664-8.98-13.097-8.232-15.342.749-2.245 6.268-6.735 6.268-6.735z" fill="#f4f8f8"/><path d="M-530.209-587.999c-1.119 1.149-2.12 2.349-2.409 3.216-.748 2.245.374 4.677 8.232 15.34 7.858 10.665 35.08 42.75 41.44 35.454 2.647-2.837 3.66-8.613 3.469-15.08-16.738-1.824-25.542-11.399-35.367-19.438-6.41-5.244-11.981-13.75-15.365-19.492z" fill="#79dacf"/><path d="M-348.525-606.466l24.424 36.46 1.095 16.601c-3.415 5.746-33.472-32.918-39.246-39.195-5.769-6.27-11.498-21.625-11.498-21.625l19.887-2.452z" fill="#231f1c"/><path d="M38.537-769.451c0 7.465-12.868 11.623-27.05 11.623-14.181 0-24.306-4.158-24.305-11.623 0-7.465 11.496-13.517 25.677-13.517 14.182 0 25.678 6.052 25.678 13.517z" transform="scale(-1 1) rotate(-38 411.95 -1202.497)" fill="url(#l)"/><path d="M-373.096-530.545s-4.184-3.542-1.215-7.395c2.97-3.853 22.854-27.805 27.403-30.03 10.059-4.92 36.143-1.805 41.346 6.528 5.402 8.032-32.636 26.022-44.97 30.852-12.335 4.83-15.008 5.913-16.983 4.609-2.217-1.001-5.678-4.443-5.581-4.564z" fill="#f4f8f8"/><path d="M-333.91-570.314c-5.146.054-9.855.807-12.998 2.345-4.55 2.224-24.434 26.176-27.403 30.03-2.97 3.852 1.214 7.394 1.214 7.394-.017.022.11.175.293.376 4.767-4.774 12.033-12.104 18.432-18.836 6.51-6.848 23.633-14.814 35.168-19.684-4.67-1.108-9.878-1.676-14.705-1.625z" fill="#79dacf"/><path d="M-546.194-607.743c-6.483-.661-20.109-3.836-24.739-1.653-4.63 2.182-4.222 7.453 2.712 11.244 4.233 2.316 18.72 10.65 23.35 13.626 4.63 2.977 8.003 4.763 12.7 2.712 4.696-2.05 10.847-11.178 8.4-16.007-.86-5.953-5.193-10.33-8.268-15.213-2.306-3.661-4.356-11.657-7.607-10.518-9.49 3.325 3.65 16.4-6.548 15.81z" fill="#231f1c"/><path d="M-450.944-436.623s-4.168 16.404-4.763 32.411c-.595 16.007-.926 10.716-.86 13.758.066 3.043.662 4.829.662 4.829s-8.07 6.35-10.848 12.766c-2.778 6.416-4.101 11.84.33 12.37 4.432.529 49.08.33 49.61.198.529-.132 3.24-1.588 2.91-4.829-.33-3.24-.727-3.969-.727-3.969l-4.961-15.015s2.315-.397 1.455-11.178c-.86-10.782-3.506-30.097-4.829-35.322-1.323-5.226-3.175-13.23-8.599-17.33-5.424-4.101-6.948-3.093-6.948-3.093s-.701-3.164-2.834-4.509c-1.736-1.095-4.667-.977-6.953 2.971-4.658 8.044-2.557 15.92-2.645 15.942z" fill="#fcfefd"/><path d="M-431.823-448.123c.19 10.13 1.173 62.788 1.053 63.689-.132.992 1.323 3.44-4.829.793-6.151-2.645-6.813-4.63-12.435-4.167-4.223.348-5.76 1.442-8.589 2.778-.368.309-.817.694-1.409 1.23.193-.038.39-.074.605-.105 4.035-.596 14.09-3.374 20.307 2.116 6.218 5.49 7.144 11.84 7.011 14.685-.119 2.558 1.15 4.474-3.79 6.951 9.203-.022 16.87-.084 17.086-.138.529-.132 3.24-1.588 2.91-4.829-.33-3.24-.727-3.969-.727-3.969l-4.961-15.015s2.315-.397 1.455-11.178c-.86-10.782-3.506-30.097-4.829-35.322-1.323-5.226-3.175-13.23-8.599-17.33-.09-.069-.17-.124-.259-.19z" fill="#9cd1cb"/><ellipse transform="matrix(.98298 -.18372 .16631 .98607 0 0)" ry="8.867" rx="6.142" cy="-446.236" cx="-351.859" fill="#231f20"/><path d="M-437.993-451.136a2.03 2.03 0 00-.191.015c-.067 1.501 0 3.53.336 6.296 1.125 9.26-6.217 14.155-6.217 14.155.028.225 8.289-2.28 11.443-12.833a29.178 29.178 0 001.396-4.163c-.112-.09-.223-.181-.338-.268-3.729-2.82-5.615-3.224-6.43-3.202z" fill="#9cd1cb"/><path d="M-357.432-436.154s8.163 16.484 12.614 32.57c4.45 16.084 3.513 10.767 4.177 13.825.665 3.057.491 4.852.491 4.852s9.7 6.38 14.055 12.828c4.356 6.447 7 11.898 2.638 12.43-4.361.531-49.627.332-50.195.199-.568-.133-3.664-1.595-4.108-4.852-.444-3.257-.217-3.988-.217-3.988l1.415-15.088s-2.44-.4-4.16-11.234c-1.721-10.834-3.684-30.243-3.6-35.494.084-5.25.036-13.293 4.543-17.414 4.508-4.121 6.294-3.108 6.294-3.108s-.05-3.18 1.786-4.53c1.496-1.101 4.492-.982 7.756 2.985 6.65 8.083 6.417 15.997 6.511 16.019z" fill="#fcfefd"/><path d="M-379.562-447.71c2.242 10.18 13.904 63.094 14.242 64 .372.996-.513 3.456 5.08.797 5.595-2.659 5.788-4.653 11.593-4.188 4.36.35 6.18 1.45 9.366 2.791.447.311.995.698 1.723 1.236a16.627 16.627 0 00-.638-.105c-4.23-.598-15.08-3.39-20.057 2.127-4.978 5.517-4.39 11.898-3.572 14.756.736 2.57-.088 4.496 5.51 6.985-9.325-.022-17.105-.085-17.337-.139-.568-.133-3.664-1.595-4.108-4.852-.444-3.257-.217-3.988-.217-3.988l1.415-15.088s-2.44-.4-4.16-11.234c-1.721-10.834-3.684-30.243-3.6-35.494.084-5.25.036-13.293 4.543-17.414.075-.069.143-.125.217-.19z" fill="#9cd1cb"/><ellipse cx="357.883" cy="-312.788" rx="6.485" ry="8.807" transform="matrix(-.9846 -.17483 .06904 .99761 0 0)" fill="#231f20"/><path d="M-374.037-450.737c.074.002.139.007.197.014.428 1.509.848 3.547 1.172 6.327 1.087 9.305 9.7 14.224 9.7 14.224.025.227-8.943-2.291-14.674-12.895a38.12 38.12 0 01-2.415-4.184c.092-.09.183-.182.278-.27 3.1-2.832 4.912-3.239 5.742-3.216z" fill="#9cd1cb"/><rect transform="scale(1 -1)" width="58.748" height="114.889" x="-441.293" y="837.655" rx="29.374" ry="29.374" clip-path="url(#j)" fill="none" stroke="#9cd1cb" stroke-width="2" stroke-linecap="round" stroke-linejoin="round"/></g></g></svg>