<svg xmlns="http://www.w3.org/2000/svg" viewBox="0 0 53.821 36.76" height="138.934" width="203.417"><defs><linearGradient id="e"><stop offset="0" stop-color="#303394"/><stop offset="1" stop-color="#303394"/></linearGradient><linearGradient id="f"><stop offset="0" stop-color="#303392"/><stop offset="1" stop-color="#3941bd"/></linearGradient><linearGradient id="d"><stop offset="0" stop-color="#fff"/><stop offset=".243" stop-color="#fafcfb"/><stop offset=".472" stop-color="#b4d7d3"/><stop offset="1" stop-color="#bbdbd6"/></linearGradient><linearGradient id="c"><stop offset="0" stop-color="#00519d"/><stop offset="1" stop-color="#00519d" stop-opacity="0"/></linearGradient><linearGradient id="b"><stop offset="0" stop-color="#518cef"/><stop offset="1" stop-color="#518cef" stop-opacity="0"/></linearGradient><linearGradient id="a"><stop offset="0" stop-color="#518cef"/><stop offset="1" stop-color="#518cef" stop-opacity="0"/></linearGradient></defs><g fill="#fff"><path style="line-height:normal;-inkscape-font-specification:'Andale Mono';text-indent:0;text-align:start;text-decoration-line:none;text-transform:none;marker:none" d="M31.451 0c3.644 3.647 7.464 7.533 10.656 10.655.002-3.626 0-7.497 0-10.655H31.45zM11.726 0c-.005 4.082-.005 8.175-.004 12.268-1.093-.044-2.577-.06-2.878-.064v-.036H4.862v1.074l.006 2.99-.8.07v-4.15H.031L.028 13.22c-.055 2.067-.011 3.961-.015 5.861a1591.285 1591.285 0 00.001 5.589c.003.37 0 .53.013.736l.084 1.238 2.93 2.375s5.498-.723 6.304-.723c-.213.45-.96 2.086-.96 2.086s1.496-.016 3.34-.032v6.39c10.803.045 20.987 0 30.381 0l.001-6.402c.904.013 1.775.027 2.6.044.095-1.162 0-2.142 0-2.142l6.101.721 3.013-2.484v-4.152l-2.663-.223-.025-1.146 2.148.117.025-4.11-2.175-.078v-.573l2.665.048v-4.193l-1.083.01-5.469.052v.508a3.22 3.22 0 00-1.925-.627c-.777-.004-1.546.138-2.185.562v-.504h-1.821L29.638.438l.01.005L29.205 0h-17.48zm1.793 1.81h14.937l10.312 10.363h-1.32l-.003-.038-9.439-9.01h-13.3v9.083H13.52zm13.833 11.341c.102 0 .161.005.161.005 2.313.084 2.31 2.23 2.31 2.23s.048 4.294 0 5.61c-.059 1.516-.77 2.618-2.334 2.642-2.762-.035-2.624-2.446-2.624-2.446s-.033-3.443 0-5.69c.17-2.177 1.939-2.35 2.487-2.351zm17.968.031c2.037-.009 2.313 2.212 2.313 2.212v1.869h-1.81s-.008-.77-.008-1.34c0-.57-.1-.94-.587-.922-.653.05-.615.737-.615.737v6.242s-.047.568.569.604c.865.011.699-.747.699-.747V20.12h1.73s.071 1.458 0 2.169c-.095.794-.355 2.038-2.216 2.168-2.69.166-2.605-2.735-2.605-2.735s-.025-4.97 0-6.26c.167-1.676 1.047-2.287 2.53-2.279zm-44.22.042h1.894v9.9l2.517-.226v1.869s-3.975.472-4.414.566c-.035-.521.004-12.109.004-12.109zm4.836.017H7.77v11.312l-1.819.16zm34.291 0h1.836v10.902l-1.819-.034zm-9.705.005h4.433v1.849h-2.56v2.417h2.074v1.821h-2.095v4.341l-1.727-.01zm4.844 0h4.432v1.849h-2.56v2.593l1.97-.009-.004 1.796-1.986-.033-.03 4.328-1.74-.028zm-11.02.004V15H21.68v2.274h2.17v1.79h-2.122v2.623h2.642v1.714h-4.45l.017-10.11zm28.378 0v2.018l-2.665-.048v2.7l2.17.078-.012 1.943-2.18-.118.071 3.267 2.642.221v1.951l-4.45-.553.017-11.417zm-44.099.025s1.893.018 3.067.066c1.303.201 1.872 1.232 1.86 2.488.071 1.754-.545 2.11-.853 2.525.83.497 1.007 1.446 1.007 2.939.048 2.785-2.24 2.945-2.24 2.945l-2.84.207zm5.638.006h3.046s1.943.06 1.849 2.82c-.036 1.34-.15 1.858-.88 2.318.26.16.903.491.856 2.21-.024 1.564-.077 2.856.326 3.093-.415.017-1.707.1-1.707.1s-.415-.047-.426-.817c-.012-.765-.029-2.499-.029-2.499s.05-.947-.51-1.048c-.495-.025-.705-.008-.705-.008v4.49l-1.795.045zm13.041 1.552s-.62-.017-.629.98c-.008.997 0 5.497 0 5.497s.042.68.654.687c.486.01.72-.46.712-.837-.008-.378 0-5.758 0-5.758s-.033-.582-.737-.57zM16.6 15.02a3.1 3.1 0 00-.466.04v2.647h.595s.486-.017.561-.704c.034-.628 0-1.458 0-1.458s-.038-.436-.432-.511a2.24 2.24 0 00-.258-.014zm-6.056.056l.01 2.556s.108.009.57.009c.477 0 .51-.579.51-.579s0-.435.025-1.181c.025-.763-.52-.805-.52-.805zm-.061 4.38l.065 2.956s.373.042.77 0c.61-.166.54-.664.54-.664s.03-.817 0-1.499c-.03-.687-.552-.794-.552-.794zm4.625 7.017c.642 0 1.044.344 1.047.865h-.69c-.014-.172-.124-.274-.357-.274-.223 0-.32.085-.322.202-.006.127.107.2.358.254l.218.046c.585.126.826.41.829.814-.003.524-.406.814-1.078.814-.692 0-1.143-.298-1.146-.964h.684c.012.243.175.373.451.373.231 0 .35-.092.353-.223-.003-.12-.104-.194-.4-.26l-.264-.056c-.47-.101-.758-.332-.756-.747-.004-.505.442-.844 1.073-.844zm20.613 0c.628 0 1.11.38 1.166.912h-.728c-.044-.182-.197-.285-.422-.285-.363 0-.57.27-.57.73 0 .467.191.742.565.742.322 0 .486-.148.492-.379h-.482v-.513h1.177v.368c0 .726-.498 1.15-1.192 1.15-.775 0-1.301-.517-1.301-1.357 0-.876.58-1.368 1.295-1.368zm-24.57.036h.984l.876 2.654h-.777l-.153-.508h-.876l-.153.508h-.777zm6.192 0h.72v2.654h-.72zm2.728 0h.985l.876 2.654h-.778l-.152-.508h-.876l-.153.508h-.778zm4.596 0h.72v2.073h1.074v.58h-1.794zm2.96 0h1.912v.58h-1.192v.457h1.094v.58h-1.094v.456h1.187v.58h-1.907zm3.94 0h.984l.876 2.654h-.778l-.153-.508h-.876l-.152.508h-.778zm6.57 0h.72v1.638a.41.41 0 00.425.425.41.41 0 00.425-.425v-1.638h.72v1.7c0 .606-.464.985-1.145.985-.687 0-1.146-.379-1.146-.985zm3.507 0h1.913v.58h-1.192v.457h1.094v.58h-1.094v.456h1.187v.58h-1.908zm-30.011.73l-.265.877h.55l-.265-.876zm8.92 0l-.264.877h.55l-.265-.876zm11.495 0l-.264.877h.55l-.265-.876zm6.684 3.062l1.566.016v4.624H13.519v-4.606l1.187-.008v3.26h24.026z" color="#000" font-weight="400" font-family="Andale Mono" overflow="visible" fill-rule="evenodd"/></g></svg>