<svg xmlns="http://www.w3.org/2000/svg" viewBox="0 0 6.35 6.35" height="24" width="24"><defs><linearGradient id="e"><stop offset="0" stop-color="#303394"/><stop offset="1" stop-color="#303394"/></linearGradient><linearGradient id="f"><stop offset="0" stop-color="#303392"/><stop offset="1" stop-color="#3941bd"/></linearGradient><linearGradient id="d"><stop offset="0" stop-color="#fff"/><stop offset=".243" stop-color="#fafcfb"/><stop offset=".472" stop-color="#b4d7d3"/><stop offset="1" stop-color="#bbdbd6"/></linearGradient><linearGradient id="c"><stop offset="0" stop-color="#00519d"/><stop offset="1" stop-color="#00519d" stop-opacity="0"/></linearGradient><linearGradient id="b"><stop offset="0" stop-color="#518cef"/><stop offset="1" stop-color="#518cef" stop-opacity="0"/></linearGradient><linearGradient id="a"><stop offset="0" stop-color="#518cef"/><stop offset="1" stop-color="#518cef" stop-opacity="0"/></linearGradient></defs><path d="M1.334 4.013c0 .367-.3.667-.667.667A.669.669 0 010 4.013c0-.367.3-.667.667-.667h.667zm.336 0c0-.367.3-.667.667-.667.367 0 .667.3.667.667v1.67c0 .367-.3.667-.667.667a.669.669 0 01-.667-.667zm.667-2.679A.669.669 0 011.67.667C1.67.3 1.97 0 2.337 0c.367 0 .667.3.667.667v.667zm0 .336c.367 0 .667.3.667.667 0 .367-.3.667-.667.667H.667A.669.669 0 010 2.337c0-.367.3-.667.667-.667zm2.679.667c0-.367.3-.667.667-.667.367 0 .667.3.667.667 0 .367-.3.667-.667.667h-.667zm-.336 0c0 .367-.3.667-.667.667a.669.669 0 01-.667-.667V.667c0-.367.3-.667.667-.667.367 0 .667.3.667.667zm-.667 2.679c.367 0 .667.3.667.667 0 .367-.3.667-.667.667a.669.669 0 01-.667-.667v-.667zm0-.336a.669.669 0 01-.667-.667c0-.367.3-.667.667-.667h1.67c.367 0 .667.3.667.667 0 .367-.3.667-.667.667z" fill="#fff"/></svg>