<svg xmlns="http://www.w3.org/2000/svg" viewBox="0 0 7.818 6.35" height="24" width="29.55"><defs><linearGradient id="e"><stop offset="0" stop-color="#303394"/><stop offset="1" stop-color="#303394"/></linearGradient><linearGradient id="f"><stop offset="0" stop-color="#303392"/><stop offset="1" stop-color="#3941bd"/></linearGradient><linearGradient id="d"><stop offset="0" stop-color="#fff"/><stop offset=".243" stop-color="#fafcfb"/><stop offset=".472" stop-color="#b4d7d3"/><stop offset="1" stop-color="#bbdbd6"/></linearGradient><linearGradient id="c"><stop offset="0" stop-color="#00519d"/><stop offset="1" stop-color="#00519d" stop-opacity="0"/></linearGradient><linearGradient id="b"><stop offset="0" stop-color="#518cef"/><stop offset="1" stop-color="#518cef" stop-opacity="0"/></linearGradient><linearGradient id="a"><stop offset="0" stop-color="#518cef"/><stop offset="1" stop-color="#518cef" stop-opacity="0"/></linearGradient></defs><path d="M7.015 1.583c.005.069.005.138.005.208 0 2.118-1.613 4.559-4.56 4.559A4.528 4.528 0 010 5.63c.129.016.253.02.387.02a3.21 3.21 0 001.99-.684A1.605 1.605 0 01.877 3.855a1.695 1.695 0 00.724-.03A1.603 1.603 0 01.317 2.252v-.02c.214.12.462.194.725.204A1.601 1.601 0 01.546.293 4.555 4.555 0 003.85 1.969a1.809 1.809 0 01-.04-.367A1.602 1.602 0 016.583.506c.362-.07.71-.203 1.017-.387-.119.372-.372.685-.704.883.322-.035.635-.124.922-.248-.218.318-.49.6-.803.829z" fill="#fff"/></svg>