<svg xmlns="http://www.w3.org/2000/svg" viewBox="0 0 10.583 10.583" height="40" width="40"><defs><linearGradient id="e"><stop offset="0" stop-color="#303394"/><stop offset="1" stop-color="#303394"/></linearGradient><linearGradient id="f"><stop offset="0" stop-color="#303392"/><stop offset="1" stop-color="#3941bd"/></linearGradient><linearGradient id="d"><stop offset="0" stop-color="#fff"/><stop offset=".243" stop-color="#fafcfb"/><stop offset=".472" stop-color="#b4d7d3"/><stop offset="1" stop-color="#bbdbd6"/></linearGradient><linearGradient id="c"><stop offset="0" stop-color="#00519d"/><stop offset="1" stop-color="#00519d" stop-opacity="0"/></linearGradient><linearGradient id="b"><stop offset="0" stop-color="#518cef"/><stop offset="1" stop-color="#518cef" stop-opacity="0"/></linearGradient><linearGradient id="a"><stop offset="0" stop-color="#518cef"/><stop offset="1" stop-color="#518cef" stop-opacity="0"/></linearGradient></defs><path d="M0 5.292a5.29 5.29 0 005.292 5.291 5.29 5.29 0 005.291-5.291A5.29 5.29 0 005.292 0 5.29 5.29 0 000 5.292zm9.56 0a4.266 4.266 0 01-4.268 4.267 4.266 4.266 0 01-4.268-4.267 4.266 4.266 0 014.268-4.268 4.266 4.266 0 014.267 4.268zm-1.537-.427v.853c0 .141-.115.256-.256.256H5.292v1.43a.257.257 0 01-.438.181L2.742 5.473c-.1-.1-.1-.262 0-.363l2.112-2.112a.256.256 0 01.438.181v1.43h2.475c.14 0 .256.115.256.256z" fill="#fff"/></svg>