<svg xmlns="http://www.w3.org/2000/svg" viewBox="0 0 24.483 16.722" height="63.202" width="92.536"><defs><linearGradient id="e"><stop offset="0" stop-color="#303394"/><stop offset="1" stop-color="#303394"/></linearGradient><linearGradient id="f"><stop offset="0" stop-color="#303392"/><stop offset="1" stop-color="#3941bd"/></linearGradient><linearGradient id="d"><stop offset="0" stop-color="#fff"/><stop offset=".243" stop-color="#fafcfb"/><stop offset=".472" stop-color="#b4d7d3"/><stop offset="1" stop-color="#bbdbd6"/></linearGradient><linearGradient id="c"><stop offset="0" stop-color="#00519d"/><stop offset="1" stop-color="#00519d" stop-opacity="0"/></linearGradient><linearGradient id="b"><stop offset="0" stop-color="#518cef"/><stop offset="1" stop-color="#518cef" stop-opacity="0"/></linearGradient><linearGradient id="a"><stop offset="0" stop-color="#518cef"/><stop offset="1" stop-color="#518cef" stop-opacity="0"/></linearGradient></defs><g fill="#fff"><path d="M14.307 0c1.658 1.66 3.396 3.427 4.848 4.847V0h-4.848zM5.334 0a3625.23 3625.23 0 00-.001 5.58 52.029 52.029 0 00-1.31-.028v-.017H2.212v.489l.002 1.36c-.127.01-.245.021-.364.032V5.528H.015l-.002.486c-.025.94-.005 1.802-.007 2.666a325.542 325.542 0 000 2.542c.002.169 0 .242.006.335l.039.563 1.332 1.08s2.502-.328 2.868-.328c-.097.205-.436.949-.436.949l1.518-.015.001 2.907c4.914.02 9.547 0 13.82 0l.001-2.912c.411.006.807.012 1.182.02.044-.528 0-.974 0-.974l2.776.328 1.37-1.13v-1.89l-1.21-.1-.012-.522.977.053.012-1.87-.99-.035v-.26l1.212.021V5.535l-.493.004-2.487.024v.231a1.465 1.465 0 00-.876-.285c-.353-.002-.703.063-.994.255v-.228h-.829L13.483.199l.004.003L13.285 0H5.334zm.816.824h6.795l4.69 4.714h-.6V5.52L12.74 1.421H6.69v4.133h-.54zm6.293 5.159c.046 0 .073.002.073.002 1.052.038 1.05 1.014 1.05 1.014s.022 1.954 0 2.552c-.026.69-.35 1.191-1.061 1.202-1.256-.016-1.194-1.112-1.194-1.112s-.015-1.567 0-2.589c.078-.99.882-1.07 1.132-1.07zm8.174.014c.926-.004 1.052 1.006 1.052 1.006v.85h-.824s-.003-.35-.003-.61-.046-.427-.267-.42c-.298.024-.28.336-.28.336V10s-.022.258.259.275c.393.005.318-.34.318-.34v-.782h.787s.032.663 0 .987c-.043.361-.162.927-1.008.986-1.224.076-1.186-1.244-1.186-1.244s-.011-2.26 0-2.848c.077-.762.477-1.04 1.152-1.036zM.5 6.016h.861v4.503l1.145-.103v.85S.7 11.482.5 11.525c-.016-.237.002-5.508.002-5.508zm2.2.007h.834v5.147l-.827.072zm15.599 0h.835v4.96l-.828-.016zm-4.415.003H15.9v.84h-1.164v1.1h.943v.829h-.953v1.975l-.786-.005zm2.203 0h2.016v.84H16.94v1.18l.896-.004-.002.817-.903-.015-.014 1.97-.791-.014zm-5.013.001v.797H9.863V7.86h.987v.814h-.965v1.193h1.202v.78H9.062l.008-4.6zm12.91 0v.918l-1.213-.021v1.228l.987.035-.005.884-.992-.054.033 1.487 1.201.1v.888l-2.024-.252.008-5.194zM3.924 6.04s.86.008 1.395.03c.593.091.851.56.846 1.132.032.798-.248.96-.388 1.148.377.227.458.658.458 1.337.022 1.267-1.019 1.34-1.019 1.34l-1.292.094zm2.564.003h1.386s.884.027.84 1.283c-.015.609-.067.844-.399 1.054.118.073.41.223.39 1.005-.012.712-.036 1.3.147 1.407-.188.008-.776.046-.776.046s-.189-.022-.194-.372c-.005-.348-.013-1.137-.013-1.137s.023-.43-.232-.476c-.225-.012-.32-.004-.32-.004v2.043l-.817.02zm5.933.706s-.282-.008-.286.446c-.004.453 0 2.5 0 2.5s.019.309.297.313c.221.004.328-.21.324-.381-.004-.172 0-2.62 0-2.62s-.015-.264-.335-.258zm-4.87.085a1.41 1.41 0 00-.212.018v1.204h.271s.221-.008.255-.32c.016-.286 0-.663 0-.663s-.017-.199-.196-.233a1.02 1.02 0 00-.117-.006zm-2.754.025L4.8 8.021s.05.004.259.004c.217 0 .232-.263.232-.263s0-.198.012-.538c.011-.347-.236-.366-.236-.366zM4.769 8.85l.03 1.345s.17.02.35 0c.277-.075.245-.301.245-.301s.014-.372 0-.682c-.013-.313-.25-.362-.25-.362zm2.104 3.193c.292 0 .475.156.476.393h-.314c-.006-.078-.056-.125-.162-.125-.102 0-.146.04-.147.092-.002.058.049.092.163.116l.1.021c.265.057.375.186.376.37 0 .238-.184.37-.49.37-.315 0-.52-.135-.521-.438h.311c.005.11.08.17.205.17.105 0 .16-.042.16-.102 0-.055-.047-.088-.181-.118l-.12-.026c-.214-.045-.345-.15-.344-.34-.002-.229.2-.383.488-.383zm9.377 0c.285 0 .505.172.53.415h-.33c-.02-.083-.09-.13-.193-.13-.165 0-.26.123-.26.332 0 .213.088.338.258.338.146 0 .22-.068.224-.173h-.22v-.233h.536v.167c0 .33-.227.524-.543.524-.352 0-.592-.236-.592-.618 0-.398.265-.622.59-.622zm-11.178.016h.448l.399 1.207h-.354l-.07-.23h-.398l-.07.23h-.353zm2.818 0h.327v1.207H7.89zm1.24 0h.448l.399 1.207h-.354l-.07-.23h-.398l-.07.23h-.353zm2.091 0h.328v.943h.488v.264h-.816zm1.347 0h.87v.264h-.543v.208h.498v.264h-.498v.207h.54v.264h-.867zm1.792 0h.448l.398 1.207h-.354l-.07-.23h-.398l-.07.23h-.353zm2.989 0h.327v.745c0 .113.081.194.194.194.112 0 .193-.081.193-.194v-.745h.328v.774c0 .275-.211.447-.521.447-.313 0-.521-.172-.521-.447zm1.595 0h.87v.264h-.542v.208h.498v.264h-.498v.207h.54v.264h-.868zm-13.652.333l-.12.398h.25l-.12-.398zm4.058 0l-.12.398h.25l-.12-.398zm5.229 0l-.12.398h.25l-.12-.398zm3.04 1.392l.713.007v2.104H6.15V13.8l.54-.004v1.483h10.93z" style="line-height:normal;-inkscape-font-specification:'Andale Mono';text-indent:0;text-align:start;text-decoration-line:none;text-transform:none;marker:none" color="#000" font-weight="400" font-family="Andale Mono" overflow="visible" fill-rule="evenodd"/></g></svg>