<svg xmlns="http://www.w3.org/2000/svg" viewBox="0 0 10.583 10.583" height="40" width="40"><defs><linearGradient id="e"><stop offset="0" stop-color="#303394"/><stop offset="1" stop-color="#303394"/></linearGradient><linearGradient id="f"><stop offset="0" stop-color="#303392"/><stop offset="1" stop-color="#3941bd"/></linearGradient><linearGradient id="d"><stop offset="0" stop-color="#fff"/><stop offset=".243" stop-color="#fafcfb"/><stop offset=".472" stop-color="#b4d7d3"/><stop offset="1" stop-color="#bbdbd6"/></linearGradient><linearGradient id="c"><stop offset="0" stop-color="#00519d"/><stop offset="1" stop-color="#00519d" stop-opacity="0"/></linearGradient><linearGradient id="b"><stop offset="0" stop-color="#518cef"/><stop offset="1" stop-color="#518cef" stop-opacity="0"/></linearGradient><linearGradient id="a"><stop offset="0" stop-color="#518cef"/><stop offset="1" stop-color="#518cef" stop-opacity="0"/></linearGradient></defs><path d="M10.583 5.292a5.29 5.29 0 01-5.291 5.291A5.29 5.29 0 010 5.292 5.29 5.29 0 015.292 0a5.29 5.29 0 015.291 5.292zm-9.559 0a4.266 4.266 0 004.268 4.267 4.266 4.266 0 004.267-4.267 4.266 4.266 0 00-4.267-4.268 4.266 4.266 0 00-4.268 4.268zm1.536-.427v.853c0 .141.116.256.257.256h2.475v1.43c0 .228.275.341.437.181l2.112-2.112c.1-.1.1-.262 0-.363L5.73 2.998a.256.256 0 00-.437.181v1.43H2.817a.257.257 0 00-.257.256z" fill="#fff"/></svg>