<svg xmlns="http://www.w3.org/2000/svg" xmlns:xlink="http://www.w3.org/1999/xlink" width="1665.528" height="581.53"><defs><linearGradient x1="0" y1="0" x2="1" y2="0" gradientUnits="userSpaceOnUse" gradientTransform="matrix(509.239 0 0 -509.239 5435.84 5490.23)" spreadMethod="pad" id="a"><stop offset="0" stop-color="#ccccc9"/><stop offset=".307" stop-color="#ccccc9"/><stop offset=".885" stop-color="#5e5f62"/><stop offset="1" stop-color="#5e5f62"/></linearGradient><linearGradient x1="0" y1="0" x2="1" y2="0" gradientUnits="userSpaceOnUse" gradientTransform="matrix(509.239 0 0 -509.239 5435.84 5490.23)" spreadMethod="pad" id="b"><stop offset="0" stop-color="#b7b7b7"/><stop offset=".307" stop-color="#b7b7b7"/><stop offset=".885" stop-color="#545558"/><stop offset="1" stop-color="#545558"/></linearGradient><linearGradient x1="0" y1="0" x2="1" y2="0" gradientUnits="userSpaceOnUse" gradientTransform="matrix(509.239 0 0 -509.239 6686.51 5490.23)" spreadMethod="pad" id="c"><stop offset="0" stop-color="#5e5f62"/><stop offset=".198" stop-color="#5e5f62"/><stop offset=".57" stop-color="#ccccc9"/><stop offset="1" stop-color="#ccccc9"/></linearGradient><linearGradient xlink:href="#a" id="e" gradientUnits="userSpaceOnUse" gradientTransform="matrix(509.239 0 0 -509.239 5435.84 5490.23)" x1="0" y1="0" x2="1" y2="0" spreadMethod="pad"/><linearGradient xlink:href="#b" id="g" gradientUnits="userSpaceOnUse" gradientTransform="matrix(509.239 0 0 -509.239 5435.84 5490.23)" x1="0" y1="0" x2="1" y2="0" spreadMethod="pad"/><linearGradient xlink:href="#c" id="i" gradientUnits="userSpaceOnUse" gradientTransform="matrix(509.239 0 0 -509.239 6686.51 5490.23)" x1="0" y1="0" x2="1" y2="0" spreadMethod="pad"/><clipPath clipPathUnits="userSpaceOnUse" id="d"><path d="M5727.59 5271.42H5535.3c-54.7 0-99.46 44.76-99.46 99.46V5609.58c0 54.71 44.76 99.47 99.46 99.47h141.85V5271.9h50.24v437.15h.2v-437.63"/></clipPath><clipPath clipPathUnits="userSpaceOnUse" id="f"><path d="M5677.15 5271.9h50.238v437.152h-50.238z"/></clipPath><clipPath clipPathUnits="userSpaceOnUse" id="h"><path d="M7096.29 5271.42h-227.05c.19 1.74.28 3.51.28 5.3v427.02c0 1.79-.09 3.56-.28 5.31h227.05c54.71 0 99.46-44.76 99.46-99.47v-238.7c0-54.7-44.75-99.46-99.46-99.46"/></clipPath></defs><path d="M-18.258 842.486h1706.666V-522.848H-18.258z" fill="none"/><path d="M533.075 534.486c-67.379 0-122-7.463-122-16.667s54.621-16.667 122-16.667c67.379 0 122 7.463 122 16.667s-54.621 16.667-122 16.667M1206.408 534.486c-67.378 0-122-7.463-122-16.667s54.622-16.667 122-16.667c67.379 0 122 7.463 122 16.667s-54.621 16.667-122 16.667" fill="#012d46"/><path d="M1174.675 83.108s-6.972-8.158.864-20.118c5.27-8.043 10.895-4.628 10.707-.692-.188 3.936-5.011 15.188-11.571 20.81" fill="#172126"/><path d="M623.804 148.678s-6.548 2.053-7.162 2.76c-.206.238-2.303 1.353-.814 5.437.559 1.532 1.632 3.05 3.199 3.224.947.107 3.899-1.341 5.99-2.076.665.868 1.162 1.193 1.873 1.421 2.033.65 3.289.798 6.234.275 2.946-.524 7.008-.9 9.362-2.747 2.352-1.848.952-2.982.952-2.982s1.133-.37 1.32-1.655c.185-1.284-.7-2.21-.7-2.21s1.089-1.07 1.18-2.147c.089-1.076-.842-2.091-.842-2.091s1.692-.715 1.426-2.219c-.267-1.504-3.342-2.022-4.238-1.98-.894.044-2.6.148-2.6.148s1.09-2.922-.101-3.124c-.615-.104-3.72 1.547-6.448 1.392-3.148-.178-5.392 2.435-6.043 3.38-1.512 2.204-2.588 5.194-2.588 5.194" fill="#f294a2"/><path d="M532.759 485.095l-6.259 23.268s6.908 4.75 13.446.887l4.429-20.763s-11.96-3.921-11.616-3.392" fill="#211d1d"/><path d="M539.179 497.64s-2.212 6.462 1.175 8.778c3.386 2.317 7.032 1.786 12.777.972 7.43-1.054 18.937 9.284 4.416 8.462-2.148-.12-14.033-1.052-19.623-5.61-2.72-2.218-2.33-7.532-1.525-9.032l2.78-3.57" fill="#211d1d"/><path d="M554.968 246.252c-14.957-14.658-31.553-22.392-46.844-10.044l-4.34 3.504c-22.225 17.947 38.938 109.69 51.082 125.65 15.449 20.308 45.122 48.268 53.86 34.589 10.154-15.89 7.056-31.783 7.056-34.588 0-22.512-10.055-42.801-20.155-61.039-8.397-15.161-23.444-41.201-40.659-58.072" fill="#2b5167"/><path d="M543.092 499.668c11.655-12.73 34.619-41.626 48.26-67.308l.112-.192 17.878-31.802c6.529-15.718 1.124-23.695-7.016-28.02l-31.251 10.14c-14.107 25.61-37.224 91.933-41.415 108.49 0 0 8.02 8.816 13.432 8.692" fill="#2b5167"/><path d="M479.458 488.387l-9.18 22.277s6.245 5.594 13.22 2.599l7.048-20.028s-11.362-5.419-11.088-4.848" fill="#211d1d"/><path d="M482.81 500.75s-1.834 6.58 1.682 8.697c3.515 2.116 7.124 1.373 12.81.228 7.36-1.484 19.445 8.17 4.902 8.192-2.152.004-14.072-.236-19.916-4.461-2.845-2.058-2.764-7.386-2.046-8.93l2.568-3.725" fill="#211d1d"/><path d="M487.07 506.318c13.465-14.292 40.512-46.672 57.736-75.327l.138-.215 8.11-13.3c9.4-15.414 10.853-31.67 3.244-36.306l-2.551-1.555c-7.608-4.637-28.301-2.26-28.347-2.187-35.754 57.936-44.206 101.126-50.674 119.518 0 0 6.878 9.608 12.345 9.372" fill="#376885"/><path d="M543.83 234.703c-9.6-18.615-32.527-14.225-50.922-7.304l-5.221 1.964c-26.736 10.06-16.685 43.545-6.319 68.223 7.85 18.69 39.679 94.218 52.31 104.416 4.996 4.034 19.005 4.077 21.629 3.089 2.624-.987 4.773-4.447 5.872-10.775 3.43-19.773 1.993-54.564-.133-75.302-1.767-17.215-6.17-62.89-17.216-84.311" fill="#376885"/><path d="M527.414 65.44c5.316 9.208 4.837 26.41 1.297 28.063-7.448 3.476-23.485-2.975-28.803-12.183-5.314-9.208-3.468-20.226 4.127-24.612 7.596-4.385 18.063-.474 23.379 8.732" fill="#f294a2"/><path d="M518.664 106.47h-14.341V84.688l16.553.922s-4.242 11.436-2.212 20.86M525.07 66.742s6.51 3.2 8.729 3.44c2.125.229 3.15 1.05 1.236 3.422-1.913 2.372-5.22 3.29-5.22 3.29l-4.745-10.152" fill="#f294a2"/><path d="M621.687 151.542a2.789 2.789 0 00-3.072-2.123c-8.745 1.137-33.152 5.635-35.575 6.737-2.294 1.044-30.505-18.13-32.12-20.205-10.772-2.801-.017 20.428-4.576 26.68 3.53 6.005 24.435 12.175 24.435 12.175 12.607 3.109 41.763-9.842 50.819-14.736a2.774 2.774 0 001.39-3.084l-1.301-5.444" fill="#489cab"/><path d="M558.04 159.058c-2.08 2.328-4.85 5.257-7.094 7.428-11.423-5.896-18.078-7.488-31.747-19.032-12.46-11.74-24.327-15.383-21.721-28.483 2.654-10.03 16.977-13.13 17.017-13.09 14.493 6.418 37.159 29.293 51.147 45.223-2.02 3.03-5.166 5.227-7.602 7.954" fill="#489cab"/><path d="M499.779 100.296c2.164-1.34.227-3.12 2.08-3.126l15.485 1.768c4.826-.124 2.42 2.442 3.207 3.125 21.072 18.312 23.516 73.141 31.2 119.564.147.89.241 1.76.276 2.604.675 1.475.947 3.03.743 4.65-1.228 9.751-19.456 18.654-42.182 19.954-20.277 1.159-37.578-4.039-42.113-12.316l-.041-.072a10.81 10.81 0 01-.284-.57c-1.008-2.098-1.466-4.743-1.411-7.551.35-18.087-.427-35.31 2.05-50.567 7.283-69.855 30.197-77.604 30.99-77.463" fill="#ea4553"/><path d="M503.467 83.57s2.152-.33 2.07-4.138c-.062-2.808 2.206-5.406 3.531-5.737 1.324-.332 4.966-1.104 5.739-6.403.279-1.914-.452-4.792.95-6.385.423-.48 1.034-.75 1.64-.956 4.238-1.444 9.217-.307 13.08-2.92 3.751-2.539 3.09-8.497-.993-9.823-4.084-1.324-9.158 5.85-12.912 4.967-1.91-.45-2.91-2.099-4.424-3.152-1.806-1.256-4.266-1.664-6.42-1.6-4.7.137-9.118 1.975-11.382 6.264-1.327 2.515-2.511 5.3-5.456 6.23-1.554.491-3.191.663-4.76 1.106-2.76.78-5.322 2.477-6.794 4.939-3.385 5.662.947 12.06 6.184 14.63 4.443 2.179 3.81 5.14 3.642 7.615-.303 4.496 5.297 10.593 12.829 5.793 1.545 1.655 4.304.91 4.304.91l1.793-4.994s-2.456-3.613-2.621-6.345" fill="#172126"/><path d="M503.878 76.462c1.044 2.929 3.22 4.829 4.864 4.244 1.64-.584 2.125-3.434 1.082-6.363-1.044-2.93-3.221-4.83-4.862-4.245-1.643.585-2.128 3.434-1.084 6.364" fill="#f294a2"/><path d="M1285.702 472.026l8.397 18.189s-2.768 7.741-10.18 8.421l-7.123-18.153s8.874-9.076 8.906-8.457" fill="#211d1d"/><path d="M1279.612 486.86s3.719 5.975 2.356 9.76c-1.362 3.783-4.565 5.455-9.598 8.106-6.514 3.426-9.727 18.248 1.344 9.262 1.64-1.33 10.554-8.892 12.382-15.722.89-3.324-2.472-7.326-3.972-8.056l-2.512-3.35" fill="#211d1d"/><path d="M1275.224 490.324c-13.896-11.35-68.113-79.281-68.113-79.281-10.345-12.852-11.047-23.243-4.704-28.347l2.128-1.71c6.343-5.104 25.373-5.407 25.423-5.347 37.086 45.564 53.394 80.203 61.869 97.304a5.923 5.923 0 01-.284 5.804c-2.787 4.403-8.773 12.099-16.319 11.577" fill="#234a76"/><path d="M1157.492 490.924l-2.392 19.89s-6.416 5.14-13.085 1.832l3.459-19.192s12.316-3.072 12.018-2.53" fill="#211d1d"/><path d="M1144.527 500.36s.032 7.038-3.113 9.544c-3.146 2.508-6.75 2.25-12.424 1.867-7.343-.499-17.855 10.435-3.715 8.592 2.093-.272 13.65-2.035 18.788-6.892 2.501-2.364 1.74-7.533.845-8.943l-.381-4.168" fill="#211d1d"/><path d="M1141.936 498.108c-11.36-25.432-14.394-100.764-12.273-115.262l40.128-2.604c.076 24.896-3.719 89.993-7.803 111.476a6.472 6.472 0 01-4.652 5.048c-4.718 1.29-12.498 3.017-15.4 1.342" fill="#234a76"/><path d="M1031.656 165.886s6.754-1.216 7.627-.874c.292.114 2.667.13 3.241 4.44.215 1.616-.032 3.458-1.34 4.339-.79.533-4.076.619-6.27.939-.186 1.074-.476 1.596-1 2.125-1.5 1.519-2.544 2.232-5.396 3.135-2.854.9-6.627 2.452-9.568 1.906-2.942-.548-2.227-2.201-2.227-2.201s-1.176.199-1.936-.853-.405-2.283-.405-2.283-1.462-.444-2.04-1.357c-.58-.911-.224-2.243-.224-2.243s-1.831.153-2.292-1.304c-.46-1.456 2.024-3.341 2.836-3.719.813-.376 2.374-1.074 2.374-1.074s-2.322-2.084-1.36-2.815c.496-.377 4.012-.356 6.359-1.756 2.707-1.617 5.905-.344 6.92.193 2.363 1.252 4.701 3.402 4.701 3.402" fill="#f294a2"/><path d="M1220.547 75.392c-2.45-5.805-8.316-3.646-8.316-3.646s3.656-7.491-1.759-10.567c-5.417-3.077-7.721 2.17-10.704 1.244-2.37-.736-2.218-2.704-3.438-3.793a6.487 6.487 0 01-2.28 2.614c-4.226 2.836-9.18 4.354-13.236 7.463-.838.64-1.83.924-2.847.936l-.043.027a6.131 6.131 0 01-2.91.802c1.94 2.728 5.156 3.948 11.153 2.743 6.321-1.27 7.984 1.29 8.184 6.003.199 4.712 1.967 6.352 1.967 6.352s4.262-2.698 5.126 2.525a6.29 6.29 0 01-3.528 7.02s.043 2.004-.621 5.983c-.687 4.11-.255 4.597 3.157 3.564 4.518-1.37 8.296-3.395 10.772-6.898 2.479-3.502 2.708-7.181.624-8.122 0 0 10.959-8.89 8.699-14.25" fill="#172126"/><path d="M1183.063 241.39c4.039-20.64 74.972-41.534 63.452 46.2-2.644 20.148-12.939 96.048-21.643 109.636-3.444 5.374-19.56 11.53-21.004 9.43-1.297-1.885-4.192-5.416-6.66-11.081-7.713-17.704-6.264-48.497-9.31-68.839-2.527-16.885-9.483-61.597-4.835-85.346" fill="#20436b"/><path d="M1139.212 273.767c5.186-20.275 8.015-36.424 19.332-45.265l62.695 9.613c6.03 25.907-18.372 46.655-35.819 92.863-3.001 7.95-11.081 40.786-15.56 58.94-4.373 17.722-19.928 22.893-27.348 20.04-12.26-4.716-12.716-17.962-12.966-20.511-2.594-26.407 5.14-97.988 9.666-115.68" fill="#234a76"/><path d="M1213.29 147.582c-6.218-10.111-.883-36.671-.883-36.671 15.387-8.144 33.804 13.696 40.41 27.976 14.422 22.867 20.82 44.716 22.105 51.461 1.38 7.254-4.2 22.072-7.6 20.378-6.231-3.106-34.458-40.408-51.172-46.202l-2.86-16.942M1168.176 110.29s36.496 13.265 27.954 20.514l-24.27 18.754-.126.097c-19.258 16.745-53.118 29.256-59.714 29.932-3.6.37-11.065-15.948-.622-23.433 9.928-6.503 42.66-36.408 56.778-45.863" fill="#ea4553"/><path d="M1189.232 116.927c3.594-.676 7.03-2.715 10.148-5.493l-.225 3.233-7.112 13.716-6.207-11.217a15.41 15.41 0 003.396-.24" fill="#c16ab6"/><path d="M1037.546 170.234l.184-3.815c.188-3.916 3.692-6.901 7.822-6.763 49.975 1.684 65.654-3.917 65.654-3.917 31.377-4.533 11.744 26.221-5.174 24.872 0 0-54.886-1.543-62.706-3.181-3.516-.738-5.946-3.784-5.78-7.196M1184.595 105.612c-3.217.018-16.032 10.543-22.848 31.319-5.855 17.84-9.939 64.54-11.145 97.059-.32 8.614 19.518 9.082 41.766 8.98 20.883-.094 52.966-1.027 53.29-8.818.662-15.872-18.028-100.233-20.471-113.57-11.744-15.887-24.104-13.184-25.473-13.706l-15.12-1.264" fill="#ea4553"/><path d="M1184.03 110.415s11.74 7.68 20.568-2.327l-2.392-8.124-.184-8.17-20.855 6.732s3.58 3.044 2.863 11.889" fill="#f294a2"/><path d="M1195.604 101.008c-1.576 2.692-3.688 7.56-6.717 8.826-1.527.637-3.184.802-4.744.09-.901-6.078-2.976-11.398-2.976-11.398l18.623-6.54c-.92 3.2-2.491 6.13-4.186 9.022" fill="#cb6c79"/><path d="M1176.652 69.596c-6.576 21.59 1.038 31.747 4.519 32.648 7.325 1.898 20.761-6.632 24.028-15.858 3.268-9.227-.253-18.892-7.863-21.587-7.61-2.696-17.834-4.567-20.684 4.797" fill="#f294a2"/><path d="M627.178 148.61c-6.244 26.712-13.32 56.988-30.126 73.766-45.105 45.038-105.938 45.724-209.49 30.85-63.39-9.106-115.114-.804-158.14 25.373-36.355 22.121-66.175 57.168-91.163 107.144C111.158 439.946 59.497 471.347 0 488.664v12.71c63.837-17.94 119.814-51.324 149.224-110.146 51.572-103.142 124.54-141.954 236.594-125.866 43.74 6.282 89.568 11.497 128.38 7.154 38.412-4.298 67.492-17.473 91.517-41.462 19.284-19.255 26.784-51.343 33.401-79.654 8.999-38.498 48.722-33.005 50.408-32.753l.926-6.06.94-6.059c-18.152-2.814-54.927 2.355-64.212 42.082M821.63 92.95h-38.547a3.37 3.37 0 01-3.36-3.36 3.369 3.369 0 013.36-3.36h38.547c1.848 0 3.36 1.512 3.36 3.36a3.37 3.37 0 01-3.36 3.36M821.63 134.679h-38.547a3.37 3.37 0 01-3.36-3.36 3.37 3.37 0 013.36-3.36h38.547a3.37 3.37 0 013.36 3.36 3.37 3.37 0 01-3.36 3.36" fill="#ea4553"/><path d="M704.43 121.874l-23.164-3.166c-2.403-.33-4.215-3.653-4.215-7.414 0-3.76 1.812-7.084 4.215-7.412l23.164-3.166c5.48-.75 10.578 3.966 10.578 10.578 0 6.613-5.098 11.328-10.578 10.58" fill="#959595"/><g clip-path="url(#d)" transform="matrix(.13333 0 0 -.13333 -18.258 842.486)"><path d="M5727.59 5271.42H5535.3c-54.7 0-99.46 44.76-99.46 99.46V5609.58c0 54.71 44.76 99.47 99.46 99.47h141.85V5271.9h50.24v437.15h.2v-437.63" fill="url(#e)"/></g><path d="M786.09 145.642h-29.352c-3.696 0-6.72-3.024-6.72-6.72V81.988c0-3.696 3.024-6.72 6.72-6.72h29.352c3.694 0 6.718 3.024 6.718 6.72v56.936c0 3.695-3.024 6.719-6.718 6.719" fill="#959595"/><path d="M754.615 151.83h-5.659a3.547 3.547 0 01-3.536-3.536v-75.68a3.547 3.547 0 013.536-3.535h5.659a3.548 3.548 0 013.537 3.536v75.679a3.547 3.547 0 01-3.537 3.536" fill="#babbbc"/><path d="M738.695 81.279h6.698v-.064h-6.698z" fill="#dddddc"/><g clip-path="url(#f)" transform="matrix(.13333 0 0 -.13333 -18.258 842.486)"><path d="M5677.15 5271.9h50.238v437.152h-50.238z" fill="url(#g)"/></g><path d="M705.515 121.946c-.359 0-.721-.023-1.085-.072l-5.755-.787v-19.584l5.755-.787c.365-.05.729-.073 1.089-.073.299 0 .596.016.89.045V121.9c-.295.03-.594.046-.894.046" fill="#747576"/><path d="M758.152 145.772h3.644v-.13h-3.644z" fill="#727475"/><path d="M758.152 145.642h3.644V75.396h-3.644z" fill="#464648"/><path d="M758.152 145.772h-.052V75.396h.052V145.772" fill="#56585b"/><path d="M1246.327 226.35a431.14 431.14 0 00-4.048-25.467c-1.67-8.79-1.968-11.165-4.076-19.86-5.635-7.964-10.944-16.232-15.607-18.823-9.47-2.334-11.546-33.606-9.044-40.024 1.203-3.08 2.444-6.528 4.164-9.388.786-1.305 2.86-2.712 2.683-4.473-.277-2.752-3.83-2.6-6.301-2.464l-.27-.061c-4.397-.567-7.214 2.206-8.837 6.054-1.388 3.286-2.459 6.928-3.285 10.399-1.09 4.564-1.322 9.783-2.962 14.17-1.552 4.149-3.937 4.627-8.052 5.106-2.29.267-4.602.385-6.908.364-4.573-.044-12.906.417-12.956-5.86-.066-8.925 3.379-18.785 7.279-26.67.616-1.245-.667-2.373-1.667-2.103-1.174-.623-2.936-.488-4.354-.296-1.475.2-3.267.302-4.53 1.16-1.061.724-1.514 1.924-1.876 3.104l-.062.324c-2.122 4.548-3.924 7.63-5.19 12.494-.652 2.503-1.156 6.632-1.554 9.187-.66 4.22.614 26.475-4.491 28.459-3.108 1.209-6.044 10.88-7.252 26.422-.776 9.983-3.712 60.44-4.059 69.076-.136 3.406 47.943-3.908 57.899-3.788 13.423.162 45.575 15.11 46.75 9.14 2.42-12.26-.478-29.074-1.394-36.181" fill="#234a76"/><path d="M1247.722 262.532c2.418-12.26-.48-29.074-1.395-36.181a431.14 431.14 0 00-4.048-25.468c-1.67-8.79-1.968-11.165-4.076-19.86-5.635-7.965-10.944-16.232-15.607-18.823a5.186 5.186 0 01-1.34-.568c-.57 14.395-.957 28.803-3.894 42.968-2.528 12.19-7.86 23.303-13.49 34.282 7.739 6.302 11.335 18.166 15.21 26.72 6.834 15.077 12.11 30.774 16.837 46.62a194.93 194.93 0 014.45 18.077c2.862-18.084 5.102-34.748 6.146-42.71 1.237-9.42 1.519-17.58 1.037-24.633.075-.13.139-.265.17-.424" fill="#1c385c"/><path d="M1665.528 491.835c-29.946.91-62.8 4.187-97.226 7.615-60.907 6.065-123.88 12.337-173.587 5.24-54.92-7.843-84.161-30.396-92.016-70.98-14.485-74.842-40.979-131.008-78.743-166.936-35.433-33.712-72.164-40.806-90.905-42.032-2.932-.192-6.199-.304-9.657-.423-27.896-.957-70.036-2.403-91.527-47.312-14.823-36.973-33.847-60.257-56.547-69.21-17.908-7.06-31.392-2.1-31.958-1.886l4.35 11.464c.408-.157 41.256-14.599 72.844 64.37l.156.36c24.67 51.805 73.242 53.471 102.262 54.467 3.36.116 6.534.224 9.276.404 17.085 1.119 50.62 7.632 83.254 38.68 35.879 34.135 61.166 88.096 75.158 160.386 8.864 45.796 42.333 72.22 102.32 80.786 16.346 2.334 33.96 3.274 52.4 3.274 39.266 0 82.2-4.274 124.146-8.451 34.054-3.39 66.574-6.643 96-7.555v-12.261" fill="#56b0c4"/><path d="M1195.866 242.768s6.298-2.722 7.228-2.588c.31.047 2.626-.48 4.168 3.586.576 1.525.754 3.373-.318 4.53-.646.699-3.828 1.53-5.892 2.34.064 1.09-.1 1.663-.49 2.3-1.114 1.819-1.968 2.752-4.54 4.28-2.572 1.528-5.894 3.899-8.882 4.035-2.988.139-2.67-1.635-2.67-1.635s-1.098.46-2.08-.39c-.98-.852-.912-2.13-.912-2.13s-1.526-.1-2.296-.857c-.772-.756-.73-2.132-.73-2.132s-1.746.565-2.528-.75c-.781-1.311 1.208-3.713 1.914-4.266.706-.552 2.066-1.587 2.066-1.587s-2.734-1.5-1.965-2.43c.399-.48 3.828-1.26 5.792-3.16 2.267-2.19 5.673-1.678 6.783-1.387 2.586.681 5.352 2.241 5.352 2.241M617.518 173.918s-6.782 1.056-7.495 1.665c-.239.204-2.477.995-1.613 5.255.325 1.598 1.16 3.257 2.685 3.665.92.244 4.053-.748 6.23-1.163.529.955.973 1.352 1.64 1.683 1.915.944 3.137 1.279 6.126 1.2 2.99-.08 7.064.153 9.665-1.324 2.602-1.479 1.386-2.808 1.386-2.808s1.176-.196 1.55-1.44c.376-1.243-.361-2.29-.361-2.29s1.236-.897 1.485-1.947c.248-1.051-.521-2.192-.521-2.192s1.78-.455 1.74-1.983c-.041-1.527-3.004-2.497-3.896-2.588-.892-.09-2.593-.241-2.593-.241s1.512-2.728.364-3.104c-.592-.194-3.908.976-6.584.417-3.086-.645-5.694 1.605-6.476 2.445-1.824 1.955-3.332 4.75-3.332 4.75" fill="#f294a2"/><path d="M1203.206 249.67l-3.904-6.831c-1.326-2.323-.724-5.095 1.342-6.152 5.32-2.721 14.088-7.583 22.346-13.585 5.244-3.812 18.384-15.502 26.72-33.1 3.108-6.56 25.488 4.497 25.212 6.564-2.074 15.54-20.372 35.3-31.562 40.708l-8.212 3.968-.122.054c-10.111 4.988-20.675 9.07-26.76 10.76-1.858.515-3.97-.48-5.06-2.386" fill="#ea4553"/><path d="M943.267 121.034l23.164-3.166c2.401-.33 4.215-3.653 4.215-7.414 0-3.76-1.814-7.084-4.215-7.412l-23.164-3.166c-5.481-.75-10.579 3.966-10.579 10.578 0 6.613 5.098 11.328 10.579 10.58" fill="#959595"/><path d="M942.12 121.11c-.318 0-.633-.018-.945-.052V99.852a8.235 8.235 0 012.092.024l4.705.643v19.87l-4.705.643a8.573 8.573 0 01-1.147.079" fill="#747576"/><g clip-path="url(#h)" transform="matrix(.13333 0 0 -.13333 -18.258 842.486)"><path d="M7096.29 5271.42h-227.05c.19 1.74.28 3.51.28 5.3v427.02c0 1.79-.09 3.56-.28 5.31h227.05c54.71 0 99.46-44.76 99.46-99.47v-238.7c0-54.7-44.75-99.46-99.46-99.46" fill="url(#i)"/></g><path d="M861.606 145.642h29.353c3.696 0 6.719-3.024 6.719-6.72V81.988c0-3.696-3.023-6.72-6.72-6.72h-29.352c-3.695 0-6.72 3.024-6.72 6.72v56.936c0 3.695 3.025 6.719 6.72 6.719" fill="#959595"/><path d="M890.959 145.642h-7.076V75.267h7.076c3.696 0 6.719 3.024 6.719 6.72v56.936c0 .239-.012.475-.038.707-.356 3.366-3.224 6.012-6.681 6.012" fill="#464648"/><path d="M893.08 151.83h5.659a3.546 3.546 0 003.536-3.536v-75.68a3.547 3.547 0 00-3.536-3.535h-5.659a3.547 3.547 0 00-3.536 3.536v75.679a3.547 3.547 0 003.536 3.536" fill="#babbbc"/><path d="M928.739 95.898h-21.572c-.68 0-1.237-.558-1.237-1.24 0-.68.557-1.236 1.237-1.236h21.572c.681 0 1.239.557 1.239 1.237 0 .681-.558 1.239-1.24 1.239M928.739 102.215h-21.572c-.68 0-1.237-.557-1.237-1.237 0-.682.557-1.24 1.237-1.24h21.572c.681 0 1.239.558 1.239 1.24 0 .68-.558 1.237-1.24 1.237M928.739 108.534h-21.572c-.68 0-1.237-.558-1.237-1.24 0-.68.557-1.236 1.237-1.236h21.572c.681 0 1.239.557 1.239 1.237 0 .681-.558 1.239-1.24 1.239M928.739 114.85h-21.572c-.68 0-1.237-.556-1.237-1.236a1.24 1.24 0 011.237-1.238h21.572c.681 0 1.239.556 1.239 1.238 0 .68-.558 1.237-1.24 1.237M928.739 121.17h-21.572c-.68 0-1.237-.558-1.237-1.238 0-.681.557-1.238 1.237-1.238h21.572c.681 0 1.239.557 1.239 1.238 0 .68-.558 1.238-1.24 1.238M928.739 127.488h-21.572c-.68 0-1.237-.557-1.237-1.238 0-.68.557-1.238 1.237-1.238h21.572c.681 0 1.239.558 1.239 1.238 0 .68-.558 1.238-1.24 1.238" fill="#959595"/><path d="M1022.014 177.382c.8-.82 1.378-1.888 1.208-2.927-.202-1.22-.972-1.583-1.886-1.621.775-.872 1.186-1.988.702-3.207-.528-1.324-1.528-1.608-2.608-1.465.276-.475.416-1.015.304-1.631-.184-1.005-1.002-1.592-1.964-1.77-3.304-.606-5.943 2.42-7.278 5.023-.14.272-.018.526.176.664.03.114.104.218.248.287 3.003 1.435 4.812 4.95 6.479 7.688.939 1.543 1.296 3.424 3.356 2.936 2.703-.641 3.083-3.48 1.263-3.977M641.744 157.43c1.972-.771 1.194-2.522 1.088-4.324-.19-3.2-.702-7.12.947-10.01a.43.43 0 00.041-.376c.083-.225.038-.502-.233-.646-2.58-1.38-6.472-2.364-8.841.014-.692.695-1.03 1.644-.608 2.574.258.57.68.934 1.178 1.166-.968.5-1.63 1.303-1.31 2.69.296 1.278 1.27 1.964 2.402 2.237-.728.553-1.156 1.29-.626 2.407.452.952 1.536 1.5 2.66 1.718-1.214 1.446.716 3.563 3.302 2.55" fill="#f294a2"/><path d="M525.284 182.612c-10.686-9.956-22.39-22.192-30.95-34.12l-.12-.152-6.96-9.513c-8.067-11.025 3.037-27.42 3.037-27.42 7.78-5.725 19.679-6.26 27.747 4.765l6.958 9.514.11.16c7.073 9.484 13.722 20.98 19.318 32.004-7.497 7.192-13.717 15.836-19.14 24.762" fill="#56b0c4"/><path d="M539.464 175.59c1.888-.064 3.774-.123 5.655-.184-.935-6.487-1.916-12.86-3.007-19-23.334 3.333-47.116 3.117-70.05-1.408a262.103 262.103 0 00-2.474 15.842c22.286 7.112 46.83 5.54 69.876 4.75M520.506 209.607c9.794-1.132 19.266-3.737 28.324-7.427-.615-4.384-1.215-8.782-1.814-13.172-1.994.074-3.992.14-5.993.208-23.981.81-49.768 2.459-73.127-4.565-.525 5.17-.773 10.535-.897 16.052 16.692 7.748 34.901 11.053 53.507 8.904" fill="#f8bb33"/><path d="M551.75 221.627l-.035-.217.036.217m-.052-.31l-.021-.129c.008.043.014.086.02.128" fill="#d88b94"/><path d="M552.355 225.087c-5.09-2.736-9.96-5.892-14.527-9.572a91.43 91.43 0 01-8.124-7.413c6.548-1.384 12.932-3.4 19.12-5.92.898 6.412 1.83 12.782 2.854 19.006.008.043.014.086.02.128l.017.094.036.217c.147.89.241 1.76.276 2.604.13.283.23.568.328.856m-5.173-34.857l-.166-1.222c-1.994.074-3.992.14-5.993.208-8.353.282-16.928.666-25.54.75-2.817-4.4-5.397-8.987-7.78-13.7a254.1 254.1 0 004.835.044c2.038 0 4.076-.02 6.112-.058 2.23 2.2 4.453 4.328 6.634 6.36a172.919 172.919 0 014.25-6.664c3.334-.116 6.646-.245 9.93-.357 1.888-.065 3.774-.124 5.655-.185-.775-5.374-1.58-10.67-2.455-15.82 1.67 9.837 3.095 20.204 4.518 30.644m-45.023-31.72c-.81-.031-1.619-.068-2.427-.111a282.082 282.082 0 01-2.108-5.499 182.907 182.907 0 004.535 5.61" fill="#d22c36"/><path d="M525.284 182.612a323.085 323.085 0 01-6.634-6.36c3.64-.064 7.276-.177 10.885-.304a172.919 172.919 0 00-4.25 6.664m17.38-23.025a460.822 460.822 0 00-.553-3.18c-10.456 1.492-21.001 2.273-31.52 2.273-2.814 0-5.625-.056-8.433-.17a182.907 182.907 0 01-4.535-5.61 323.41 323.41 0 01-2.07-5.745c11.457 1.116 22.98 3.988 34.277 5.728 3.99.615 7.98 1.219 11.973 1.816.295 1.612.582 3.243.86 4.888" fill="#3f6a7c"/><path d="M512.538 176.31a254.1 254.1 0 01-4.835-.043c-2.939-5.812-5.576-11.813-7.97-17.868a209.08 209.08 0 0010.86.281c10.518 0 21.063-.781 31.52-2.273.186 1.053.37 2.113.551 3.18.875 5.15 1.68 10.445 2.455 15.819-1.881.06-3.767.12-5.655.185-3.284.112-6.596.241-9.93.357-3.608.127-7.243.24-10.884.304-2.036.038-4.074.058-6.112.058M529.704 208.102c-5.332-5.476-10.037-11.598-14.221-18.136 8.612-.084 17.187-.468 25.54-.75 2.001-.068 3.999-.134 5.993-.208l.166 1.222c.544 3.98 1.086 7.976 1.642 11.952-6.188 2.52-12.572 4.536-19.12 5.92" fill="#e16924"/><path d="M613.864 176.422a2.145 2.145 0 00-2.565-1.96c-10.91 2.178-38.156 3.785-43.3 5.084-6.941 1.749-14.143-1.611-17.084-8.14-6.524-14.475-15.737-32.056-25.81-45.56l-.109-.16-6.958-9.514c-4.88-4.765-14.31-5.774-22.09-.05 0 0-12.024 16.032-8.694 22.705l6.96 9.513.12.152c15.69 21.863 41.937 44.762 53.12 52.738 4.749 8.722 24.302 6.097 40.594-1.686 0 0 23.9-12.06 26.422-14.248l-.606-8.874" fill="#56b0c4"/><path d="M1203.83 65.28c-.92.95-1.704 2.044-2.487 3.323-1.068 1.745-2.093.665-3.01 2.655.335.28.323 3.645.654 3.912 1.588 1.28 3.116 3.364 3.116 3.364 1.245-7.315 4.807-1.171 5.125 1.117.319 2.285-2.386 6.13-.508 6.073 1.882-.057 3.638-5.976 3.638-5.976-.46-9.668-2.44-9.438-4.822-12.938-.356-.52-.978-1.042-1.705-1.53" fill="#172126"/><path d="M1200.964 76.462c-.55.273-2.958-6.162-3.472-6.111.339 1.265 2.3 9.685 2.775 11.505.74 2.852 2.559 3.008 2.627 2.644.134-.713-.338-1.325-.52-1.986-.371-1.348-.158-2.906-.203-4.298-.008-.213-.46-2.11-.376-2.15-.276.133-.556.26-.83.396" fill="#172126"/><path d="M1177.158 70.934c.856.358 1.44.802 2.394 1.048h38.019c.523-6.752-3.544-14.48-8.941-18.015-7.318-4.792-19.334-4.953-26.292-2.396-4.508 1.657-13.1 16.047-5.18 19.363" fill="#ea4553"/><path d="M1176.339 71.982l21.8-.012c-.145-2.13-4.383-3.166-6.341-3.708l-27.702-7.68c-3.086-.854-6.201-1.714-9.386-1.854-.704-.03-1.452-.013-2.048.387-1.038.695-1.19 2.337-.642 3.505.548 1.17 1.602 1.96 2.64 2.656 6.05 4.056 11.592 7.059 18.72 6.78.223-.01 2.208-.166 2.959-.074" fill="#234a76"/></svg>