<?xml version="1.0" encoding="UTF-8"?>
<svg width="83.473mm" height="143.29mm" version="1.1" viewBox="0 0 83.473 143.29" xmlns="http://www.w3.org/2000/svg" xmlns:cc="http://creativecommons.org/ns#" xmlns:dc="http://purl.org/dc/elements/1.1/" xmlns:rdf="http://www.w3.org/1999/02/22-rdf-syntax-ns#" xmlns:xlink="http://www.w3.org/1999/xlink">
 <defs>
  <filter id="filter15978" x="-.024769" y="-.014137" width="1.0495" height="1.0283" color-interpolation-filters="sRGB">
   <feGaussianBlur stdDeviation="1.8581777"/>
  </filter>
  <clipPath id="clipPath5238-8">
   <path d="m-448.64-522.36c0.12784 27.397 16.911 41.533 36.72 41.533 19.81 0 36.592-14.136 36.72-41.533-0.17788 0.0403-0.36206 0.0636-0.55243 0.0636h-72.336c-0.19037 0-0.37455-0.0233-0.55242-0.0636z" fill="#0fd" opacity=".219" stroke="#9575cd" stroke-linecap="round" stroke-linejoin="round" stroke-width="2.1522" style="paint-order:markers stroke fill"/>
  </clipPath>
  <clipPath id="clipPath5095-9">
   <path d="m-411.92-901.76v269.85c65.298-4.4429 104.96-21.192 109.17-51.368l17.303-124.09c-11.201-72.696-76.924-90.743-126.47-94.386z" fill="#e57373" opacity=".661" stroke="#9575cd" stroke-linecap="round" stroke-linejoin="round" stroke-width="2" style="paint-order:markers stroke fill"/>
  </clipPath>
  <clipPath id="clipPath5339-0">
   <path d="m-411.92 901.76c-49.68 0-115.27-21.689-126.47-94.386l17.303-124.09c4.2079-30.177 43.719-51.368 109.17-51.368 65.449 0 104.96 21.192 109.17 51.368l17.303 124.09c-11.201 72.696-76.79 94.386-126.47 94.386z" fill="#fff" style="paint-order:markers stroke fill"/>
  </clipPath>
  <radialGradient id="radialGradient5251-7" cx="9.9634" cy="-760.36" r="25.678" gradientTransform="matrix(-.59465 1.0702 -1.2523 -.69588 -209.22 -362.28)" gradientUnits="userSpaceOnUse" xlink:href="#linearGradient5249"/>
  <linearGradient id="linearGradient5249">
   <stop stop-color="#fff" offset="0"/>
   <stop stop-color="#fafcfb" offset=".24252"/>
   <stop stop-color="#b4d7d3" offset=".47242"/>
   <stop stop-color="#bbdbd6" offset="1"/>
  </linearGradient>
  <radialGradient id="radialGradient5276-8" cx="9.9634" cy="-760.36" r="25.678" gradientTransform="matrix(-2.1174 .90399 -1.0579 -2.4778 -769.57 -2673.7)" gradientUnits="userSpaceOnUse" xlink:href="#linearGradient5249"/>
 </defs>
 <metadata>
  <rdf:RDF>
   <cc:Work rdf:about="">
    <dc:format>image/svg+xml</dc:format>
    <dc:type rdf:resource="http://purl.org/dc/dcmitype/StillImage"/>
    <dc:title/>
   </cc:Work>
  </rdf:RDF>
 </metadata>
 <g transform="translate(47.784 -59.044)">
  <g transform="matrix(.44173 0 0 .44173 -379.85 59.534)">
   <g transform="translate(75.566)" fill="#0fd" filter="url(#filter15978)" stroke="#0fd" stroke-linecap="round" stroke-linejoin="round">
    <g transform="matrix(-.53177 0 0 .53177 555.45 509.88)">
     <path d="m-526.35-591.52s2.3386-4.9579 6.8287-3.087c4.4901 1.8709 28.853 15.172 32.179 18.99 7.3556 8.4431 11.099 34.444 4.3966 41.627-6.361 7.2964-33.582-24.789-41.44-35.453s-8.9802-13.096-8.2319-15.341c0.74834-2.2451 6.2675-6.7352 6.2675-6.7352z" stroke-width="2" style="paint-order:markers stroke fill"/>
     <path transform="matrix(.26458 0 0 .26458 -90.714 -23.146)" d="m-1661.1-2134.9c-4.2285 4.3401-8.0117 8.8769-9.1035 12.152-2.8285 8.4853 1.4128 17.677 31.111 57.982s132.58 161.57 156.62 134c10.005-10.722 13.83-32.552 13.109-56.994-63.263-6.8962-96.535-43.082-133.67-73.467-24.223-19.819-45.282-51.972-58.07-73.67z" stroke-width="7.5591" style="paint-order:markers stroke fill"/>
    </g>
    <g stroke-width="2">
     <rect transform="matrix(.53177 0 0 .53177 985.86 509.88)" x="-432.97" y="-540.72" width="42.095" height="17.961" opacity=".10643" style="paint-order:markers stroke fill"/>
     <path transform="matrix(.53177 0 0 .53177 985.86 509.88)" d="m-472.51-600.2-14.155 41.54 3.2392 16.319c4.7855 4.6659 23.811-40.46 27.764-48.017 3.9494-7.5508 5.5095-23.865 5.5095-23.865l-19.844 2.7781z" opacity=".486" style="paint-order:markers stroke fill"/>
     <path transform="matrix(.42006 -.32608 .32608 .42006 985.86 509.88)" d="m38.537-769.45c3e-6 7.4653-12.868 11.623-27.05 11.623-14.182 0-24.306-4.1579-24.306-11.623-3e-6 -7.4653 11.496-13.517 25.678-13.517 14.182 0 25.678 6.0518 25.678 13.517z" opacity=".486" style="paint-order:markers stroke fill"/>
    </g>
    <path transform="matrix(.53177 0 0 .53177 985.86 509.88)" d="m-364.53-585.35c0 27.604-21.727 53.072-47.386 53.072s-47.386-25.468-47.386-53.072 21.727-46.892 47.386-46.892c25.659 0 47.386 19.288 47.386 46.892z" opacity=".486" stroke-width="2.4447" style="paint-order:markers stroke fill"/>
    <g transform="matrix(.53177 0 0 .53177 985.86 509.88)">
     <rect x="-428.84" y="-678.79" width="33.842" height="66.627" rx="16.921" ry="16.921" stroke-width="1.9986" style="paint-order:markers stroke fill"/>
     <rect x="-426" y="-673.23" width="28.167" height="55.453" rx="14.083" ry="14.083" stroke-width="1.6634" style="paint-order:markers stroke fill"/>
    </g>
    <path transform="matrix(.53177 0 0 .53177 985.86 509.88)" d="m-411.92-901.76c-49.68 0-115.27 21.689-126.47 94.386l17.303 124.09c4.2079 30.177 43.719 51.368 109.17 51.368 65.449 0 104.96-21.192 109.17-51.368l17.303-124.09c-11.201-72.696-76.79-94.386-126.47-94.386z" opacity=".486" stroke-width="2" style="paint-order:markers stroke fill"/>
    <path transform="matrix(.53177 0 0 .53177 985.86 509.88)" d="m-411.92-780.71s-29.804 0.16227-66.517 0.16227c-27.704 0-46.552 15.176-28.977 80.769 4.4306 16.535 2.4019 26.665 31.598 40.241 14.82 6.8915 46.821 11.509 63.896 11.509 17.075 0 49.076-4.6179 63.896-11.509 29.196-13.577 27.167-23.706 31.598-40.241 17.576-65.593-1.2722-80.769-28.977-80.769-36.713 0-66.517-0.16227-66.517-0.16227z" opacity=".486" stroke-width="2" style="paint-order:markers stroke fill"/>
    <path transform="matrix(.53177 0 0 .53177 985.86 509.88)" d="m-411.92-777.44s-28.339 0.15401-63.248 0.15401c-17.07 0-32.303 6.1367-34.882 27.324-1.4007 11.51 2.6595 28.111 6.2999 50.505 2.1324 13.117 3.0623 24.137 31.074 37.235 14.078 6.5824 44.52 10.944 60.756 10.944s46.678-4.3617 60.756-10.944c28.012-13.098 28.942-24.118 31.074-37.235 3.6404-22.393 7.7006-38.995 6.2999-50.505-2.5785-21.188-17.812-27.324-34.882-27.324-34.909 0-63.248-0.15401-63.248-0.15401z" opacity=".486" stroke-width="1.9017" style="paint-order:markers stroke fill"/>
    <g stroke-width="2">
     <circle transform="matrix(.53177 0 0 .53177 985.86 509.88)" cx="-359.75" cy="-729.12" r="15.154" opacity=".486" style="paint-order:markers stroke fill"/>
     <path transform="matrix(.53177 0 0 .53177 985.86 509.88)" d="m-285.68-808.8c0.0785 0.47432 0.15563 0.9498 0.22944 1.4288l-17.303 124.09c12.383-7.6946 29.499-25.368 33.928-62.675 5.4688-46.067-10.299-59.268-16.854-62.839z" opacity=".486" style="paint-order:markers stroke fill"/>
     <path transform="matrix(.53177 0 0 .53177 985.86 509.88)" d="m-275.8-797.91-15.504 105.27c1.6689-1.7389 3.3331-3.6677 4.962-5.8048l13.443-92.695c-0.89417-2.594-1.875-4.836-2.9001-6.7722z" opacity=".486" style="paint-order:markers stroke fill"/>
     <circle transform="matrix(-.53177 0 0 .53177 985.86 509.88)" cx="464.09" cy="-729.12" r="15.154" opacity=".486" style="paint-order:markers stroke fill"/>
     <path transform="matrix(.53177 0 0 .53177 985.86 509.88)" d="m-538.16-808.8c-0.0785 0.47432-0.15563 0.9498-0.22944 1.4288l17.303 124.09c-12.383-7.6946-29.499-25.368-33.928-62.675-5.4688-46.067 10.299-59.268 16.854-62.839z" opacity=".486" style="paint-order:markers stroke fill"/>
     <path transform="matrix(.53177 0 0 .53177 985.86 509.88)" d="m-548.04-797.91 15.504 105.27c-1.6689-1.7389-3.3331-3.6677-4.962-5.8048l-13.443-92.695c0.89417-2.594 1.875-4.836 2.9001-6.7722z" opacity=".486" style="paint-order:markers stroke fill"/>
    </g>
    <path transform="matrix(.53177 0 0 .53177 985.86 509.88)" d="m-458.94-591.4c-0.23577 1.9675-0.35968 3.9853-0.35968 6.0505 0 27.604 21.727 53.072 47.386 53.072s47.386-25.468 47.386-53.072c0-2.0652-0.12391-4.083-0.35968-6.0505-2.9156 25.123-23.287 46.923-47.026 46.923s-44.11-21.8-47.026-46.923z" opacity=".486" stroke-width="2.4447" style="paint-order:markers stroke fill"/>
    <path transform="matrix(.1407 0 0 .1407 937.63 497.57)" d="m-1120.4-2277v274.88c1.938-1.4028 3.8561-2.8387 5.746-4.3203v-267.05c-1.8892-1.2098-3.8087-2.3747-5.746-3.5137z" opacity=".486" stroke-width="5.7307" style="paint-order:markers stroke fill"/>
    <ellipse transform="matrix(.53177 0 0 .53177 985.86 509.88)" cx="-386.42" cy="-597.49" rx="5.7563" ry="8.5014" opacity=".486" stroke-width="2.0629" style="paint-order:markers stroke fill"/>
    <ellipse transform="matrix(.53177 0 0 .53177 985.86 509.88)" cx="-386.42" cy="-597.49" rx="4.3983" ry="6.4958" opacity=".486" stroke-width="1.5762" style="paint-order:markers stroke fill"/>
    <path transform="matrix(.53177 0 0 .53177 985.86 509.88)" d="m-441.79-505.74s-2.9934 2.4322-3.3676 6.361c-0.37417 3.9288-0.37417 51.543-0.37417 51.543l15.435 4.0224s3.2741-40.785 4.6772-47.521c1.4032-6.7352-5.4256-15.154-5.4256-15.154z" opacity=".486" stroke-width="2" style="paint-order:markers stroke fill"/>
    <path transform="matrix(.53177 0 0 .53177 985.86 509.88)" d="m-399.5-491.33 18.709 51.356 14.874-4.9579-13.938-53.04z" opacity=".486" stroke-width="2" style="paint-order:markers stroke fill"/>
    <path transform="matrix(.1407 0 0 .1407 937.63 497.57)" d="m-1352.8-1886.8c0.4832 103.55 63.915 156.98 138.79 156.98s138.3-53.428 138.79-156.98c-0.6723 0.1521-1.3684 0.2403-2.0879 0.2403h-273.39c-0.7195 0-1.4156-0.088-2.0879-0.2403z" opacity=".486" stroke-width="8.1341" style="paint-order:markers stroke fill"/>
    <rect transform="matrix(.53177 0 0 .53177 985.86 509.88)" x="-450.57" y="-527.25" width="77.295" height="4.9598" rx="2.4799" ry="2.4799" opacity=".486" stroke-width="1.4242" style="paint-order:markers stroke fill"/>
    <rect transform="matrix(.53177 0 0 .53177 985.86 509.88)" x="-426.1" y="-514.06" width="28.365" height="55.472" rx="14.183" ry="14.183" clip-path="url(#clipPath5238-8)" opacity=".486" stroke-width="1.6988" style="paint-order:markers stroke fill"/>
    <path transform="matrix(.1407 0 0 .1407 937.63 497.57)" d="m-1075.2-1886.8c-0.6723 0.1521-1.3684 0.2403-2.0879 0.2403h-33.99c-7.192 92.016-67.55 139.41-138.06 139.41-15.074 0-29.682-2.1704-43.408-6.4746 22.557 15.798 49.802 23.799 78.764 23.799 74.871 0 138.3-53.428 138.79-156.98z" opacity=".486" stroke-width="8.1341" style="paint-order:markers stroke fill"/>
    <path transform="matrix(.53177 0 0 .53177 985.86 509.88)" d="m-322.89-773.09c3.6094-31.143-0.62217-69.614 33.863-79.887" clip-path="url(#clipPath5095-9)" opacity=".486" stroke-width="2" style="paint-order:markers stroke fill"/>
    <path transform="matrix(-.53177 0 0 .53177 547.78 509.88)" d="m-322.89-773.09c3.6094-31.143-0.62217-69.614 33.863-79.887" clip-path="url(#clipPath5095-9)" opacity=".486" stroke-width="2" style="paint-order:markers stroke fill"/>
    <g transform="matrix(.53177 0 0 .53177 985.86 509.88)">
     <path d="m-526.35-591.52s2.3386-4.9579 6.8287-3.087c4.4901 1.8709 28.853 15.172 32.179 18.99 7.3556 8.4431 11.099 34.444 4.3966 41.627-6.361 7.2964-33.582-24.789-41.44-35.453s-8.9802-13.096-8.2319-15.341c0.74834-2.2451 6.2675-6.7352 6.2675-6.7352z" stroke-width="2" style="paint-order:markers stroke fill"/>
     <path transform="matrix(.26458 0 0 .26458 -90.714 -23.146)" d="m-1661.1-2134.9c-4.2285 4.3401-8.0117 8.8769-9.1035 12.152-2.8285 8.4853 1.4128 17.677 31.111 57.982s132.58 161.57 156.62 134c10.005-10.722 13.83-32.552 13.109-56.994-63.263-6.8962-96.535-43.082-133.67-73.467-24.223-19.819-45.282-51.972-58.07-73.67z" stroke-width="7.5591" style="paint-order:markers stroke fill"/>
    </g>
    <g transform="matrix(-.53177 0 0 .53177 547.74 509.88)" stroke-width="2">
     <path d="m-475.38-606.47-24.424 36.461-1.0948 16.601c3.4148 5.7454 33.472-32.919 39.245-39.195 5.7691-6.2713 11.498-21.625 11.498-21.625l-19.887-2.4525z" style="paint-order:markers stroke fill"/>
     <path transform="rotate(-37.821)" d="m38.537-769.45c3e-6 7.4653-12.868 11.623-27.05 11.623-14.182 0-24.306-4.1579-24.306-11.623-3e-6 -7.4653 11.496-13.517 25.678-13.517 14.182 0 25.678 6.0518 25.678 13.517z" style="paint-order:markers stroke fill"/>
    </g>
    <path transform="matrix(.53177 0 0 .53177 985.86 509.88)" d="m-546.19-607.74c-6.4823-0.66146-20.108-3.8365-24.739-1.6536-4.6302 2.1828-4.2216 7.453 2.712 11.245 4.2333 2.3151 18.719 10.649 23.349 13.626 4.6302 2.9766 8.0036 4.7625 12.7 2.712 4.6964-2.0505 10.848-11.179 8.4005-16.007-0.8599-5.9531-5.1926-10.33-8.2682-15.214-2.3055-3.6611-4.3552-11.656-7.6068-10.517-9.4899 3.3246 3.6494 16.399-6.5484 15.809z" opacity=".486" stroke-width="2" style="paint-order:markers stroke fill"/>
    <path transform="matrix(.53177 0 0 .53177 985.86 509.88)" d="m-450.94-436.62s-4.1672 16.404-4.7625 32.411-0.92604 10.716-0.8599 13.758c0.0661 3.0427 0.66146 4.8286 0.66146 4.8286s-8.0698 6.35-10.848 12.766c-2.7781 6.4161-4.101 11.84 0.33072 12.369 4.4318 0.52916 49.08 0.33073 49.609 0.19844 0.52917-0.1323 3.2411-1.5875 2.9104-4.8286-0.33073-3.2412-0.72761-3.9688-0.72761-3.9688l-4.9609-15.015s2.3151-0.39688 1.4552-11.179c-0.85989-10.782-3.5057-30.096-4.8286-35.322-1.3229-5.2255-3.175-13.229-8.599-17.33s-6.9486-3.0928-6.9486-3.0928-0.70073-3.1637-2.8336-4.5086c-1.7364-1.095-4.6665-0.97669-6.9527 2.9712-4.6579 8.0436-2.5578 15.919-2.6458 15.941z" opacity=".486" stroke-width="2" style="paint-order:markers stroke fill"/>
    <path transform="matrix(.1407 0 0 .1407 937.63 497.57)" d="m-1289.2-1606.2c0.7188 38.292 4.4323 237.31 3.9785 240.71-0.5 3.75 5 13-18.25 3s-25.75-17.5-47-15.75c-15.96 1.3143-21.768 5.4493-32.461 10.498-1.3908 1.168-3.0888 2.6232-5.3262 4.6465 0.7294-0.1393 1.4765-0.2749 2.2871-0.3945 15.25-2.25 53.25-12.75 76.75 8s27 44.75 26.5 55.5c-0.4497 9.6686 4.3436 16.911-14.328 26.273 34.784-0.083 63.76-0.319 64.578-0.5234 2-0.5 12.25-6 11-18.25s-2.75-15-2.75-15l-18.75-56.75s8.75-1.5 5.5-42.25-13.25-113.75-18.25-133.5-12-50-32.5-65.5c-0.3412-0.258-0.6455-0.4675-0.9785-0.7148z" opacity=".486" stroke-width="7.5591" style="paint-order:markers stroke fill"/>
    <ellipse transform="matrix(.52272 -.097695 .088439 .52436 985.86 509.88)" cx="-351.86" cy="-446.24" rx="6.1417" ry="8.8672" opacity=".486" stroke-width="2.1178" style="paint-order:markers stroke fill"/>
    <path transform="matrix(.1407 0 0 .1407 937.63 497.57)" d="m-1312.6-1617.6c-0.2725 0.01-0.5096 0.027-0.7207 0.055-0.2518 5.6737 0 13.339 1.2715 23.795 4.25 35-23.5 53.5-23.5 53.5 0.1065 0.8524 31.329-8.6173 43.25-48.5 2.4145-5.804 4.1118-11.045 5.2773-15.736-0.4223-0.3415-0.8429-0.6853-1.2773-1.0137-14.094-10.656-21.222-12.185-24.301-12.1z" opacity=".486" stroke-width="7.5591" style="paint-order:markers stroke fill"/>
    <path transform="matrix(.53177 0 0 .53177 985.86 509.88)" d="m-357.43-436.15s8.1632 16.484 12.614 32.569c4.4503 16.085 3.5134 10.768 4.1778 13.825 0.66438 3.0575 0.49067 4.8522 0.49067 4.8522s9.6991 6.381 14.055 12.828c4.3558 6.4474 6.9993 11.898 2.6381 12.43-4.3612 0.53173-49.627 0.33234-50.195 0.1994-0.56773-0.13294-3.6641-1.5952-4.1082-4.8522s-0.21701-3.9881-0.21701-3.9881l1.4153-15.088s-2.4401-0.39881-4.1606-11.233c-1.7206-10.834-3.6833-30.243-3.5995-35.494 0.0839-5.251 0.0358-13.294 4.5433-17.415 4.5075-4.121 6.294-3.1079 6.294-3.1079s-0.0507-3.1791 1.7861-4.5306c1.4954-1.1003 4.4913-0.98145 7.7556 2.9857 6.6507 8.0828 6.4167 15.997 6.5112 16.019z" opacity=".486" stroke-width="2.0176" style="paint-order:markers stroke fill"/>
    <path transform="matrix(.53177 0 0 .53177 985.86 509.88)" d="m-379.56-447.71c2.2425 10.181 13.904 63.094 14.242 63.999 0.37246 0.99702-0.51308 3.4563 5.0811 0.79762 5.5942-2.6587 5.7871-4.6528 11.593-4.1875 4.3602 0.34944 6.1796 1.4488 9.3659 2.7911 0.44696 0.31054 0.9945 0.69742 1.7227 1.2354-0.20429-0.037-0.41311-0.073-0.63795-0.10489-4.2295-0.59821-15.08-3.3899-20.057 2.127-4.9775 5.5169-4.3891 11.898-3.5715 14.756 0.73536 2.5706-0.0885 4.4962 5.5102 6.9854-9.326-0.022-17.106-0.0848-17.338-0.13916-0.56772-0.13294-3.6641-1.5952-4.1082-4.8522-0.44408-3.2569-0.21702-3.9881-0.21702-3.9881l1.4153-15.088s-2.4401-0.39881-4.1606-11.233c-1.7206-10.834-3.6833-30.243-3.5995-35.494 0.0839-5.251 0.0359-13.294 4.5433-17.415 0.075-0.0687 0.14325-0.1243 0.21676-0.19005z" opacity=".486" stroke-width="2.0176" style="paint-order:markers stroke fill"/>
    <ellipse transform="matrix(-.52358 -.092969 .036713 .5305 985.86 509.88)" cx="357.88" cy="-312.79" rx="6.4853" ry="8.8073" opacity=".486" stroke-width="2.1689" style="paint-order:markers stroke fill"/>
    <path transform="matrix(.53177 0 0 .53177 985.86 509.88)" d="m-374.04-450.74c0.0735 2e-3 0.13823 7e-3 0.19661 0.0146 0.42827 1.5085 0.84779 3.5466 1.1725 6.3264 1.087 9.3056 9.6994 14.224 9.6994 14.224 0.0256 0.22664-8.943-2.2911-14.674-12.895-1.0161-1.5431-1.8042-2.9367-2.4149-4.1838 0.0914-0.0908 0.18229-0.18221 0.2778-0.26952 3.0989-2.8332 4.9118-3.2396 5.7422-3.217z" opacity=".486" stroke-width="2.0176" style="paint-order:markers stroke fill"/>
    <rect transform="matrix(.53177 0 0 -.53177 985.86 509.88)" x="-441.29" y="837.66" width="58.748" height="114.89" rx="29.374" ry="29.374" clip-path="url(#clipPath5339-0)" opacity=".486" stroke-width="2" style="paint-order:markers stroke fill"/>
    <g stroke-width="1.0635">
     <rect x="755.63" y="222.34" width="22.385" height="9.5508" opacity=".219" style="paint-order:markers stroke fill"/>
     <path d="m734.6 190.71-7.5273 22.089 1.7225 8.6777c2.5448 2.4811 12.662-21.515 14.764-25.534 2.1001-4.0153 2.9298-12.69 2.9298-12.69l-10.552 1.4773z" style="paint-order:markers stroke fill"/>
     <path d="m751.15 174.1c2.4343 3.1359-1.6154 9.0785-7.5725 13.703-5.9571 4.6242-11.566 6.179-14 3.0431-2.4343-3.1359 0.42157-9.4267 6.3786-14.051 5.9571-4.6242 12.76-5.8308 15.194-2.6949z" style="paint-order:markers stroke fill"/>
    </g>
    <path d="m792.02 198.61c0 14.679-11.554 28.222-25.198 28.222s-25.198-13.543-25.198-28.222c0-14.679 11.554-24.936 25.198-24.936 13.645 0 25.198 10.256 25.198 24.936z" stroke-width="1.3" style="paint-order:markers stroke fill"/>
    <g transform="matrix(.53177 0 0 .53177 985.86 509.88)">
     <rect x="-428.84" y="-678.79" width="33.842" height="66.627" rx="16.921" ry="16.921" stroke-width="1.9986" style="paint-order:markers stroke fill"/>
     <rect x="-426" y="-673.23" width="28.167" height="55.453" rx="14.083" ry="14.083" stroke-width="1.6634" style="paint-order:markers stroke fill"/>
    </g>
    <path d="m766.82 30.358c-26.418 0-61.297 11.534-67.253 50.191l9.2013 65.987c2.2376 16.047 23.248 27.316 58.052 27.316 34.803 0 55.814-11.269 58.052-27.316l9.2013-65.987c-5.9563-38.658-40.835-50.191-67.253-50.191z" stroke-width="1.0635" style="paint-order:markers stroke fill"/>
    <path d="m766.82 94.727s-15.849 0.08626-35.371 0.08626c-14.732 0-24.755 8.07-15.409 42.95 2.356 8.7929 1.2772 14.179 16.803 21.399 7.8805 3.6647 24.898 6.1203 33.978 6.1203 9.08 0 26.097-2.4556 33.978-6.1203 15.525-7.2197 14.446-12.606 16.803-21.399 9.3462-34.88-0.6765-42.95-15.409-42.95-19.523 0-35.371-0.08626-35.371-0.08626z" stroke-width="1.0635" style="paint-order:markers stroke fill"/>
    <path d="m766.82 96.463s-15.07 0.08187-33.633 0.08187c-9.0772 0-17.178 3.2633-18.549 14.53-0.74487 6.1205 1.4142 14.949 3.3501 26.857 1.1339 6.9752 1.6284 12.835 16.524 19.8 7.4859 3.5003 23.674 5.8197 32.308 5.8197s24.822-2.3194 32.308-5.8197c14.896-6.9649 15.39-12.825 16.524-19.8 1.9358-11.908 4.0949-20.736 3.3501-26.857-1.3712-11.267-9.4716-14.53-18.549-14.53-18.563 0-33.633-0.08187-33.633-0.08187z" stroke-width="1.0113" style="paint-order:markers stroke fill"/>
    <g stroke-width="1.0635">
     <circle cx="794.56" cy="122.16" r="8.0585" style="paint-order:markers stroke fill"/>
     <path d="m833.95 79.79c0.0418 0.25223 0.0828 0.50507 0.12198 0.75982l-9.201 65.984c6.5847-4.0918 15.686-13.49 18.042-33.329 2.9081-24.497-5.4766-31.517-8.9626-33.416z" style="paint-order:markers stroke fill"/>
     <path d="m839.21 85.58-8.2448 55.98c0.88749-0.92468 1.7724-1.9504 2.6386-3.0868l7.1483-49.292c-0.47549-1.3794-0.99704-2.5716-1.5422-3.6012z" style="paint-order:markers stroke fill"/>
     <circle transform="scale(-1,1)" cx="-739.08" cy="122.16" r="8.0585" style="paint-order:markers stroke fill"/>
     <path d="m699.69 79.79c-0.0418 0.25223-0.0828 0.50507-0.12198 0.75982l9.201 65.984c-6.5847-4.0918-15.686-13.49-18.042-33.329-2.9081-24.497 5.4766-31.517 8.9625-33.416z" style="paint-order:markers stroke fill"/>
     <path d="m694.43 85.58 8.2448 55.98c-0.88749-0.92468-1.7725-1.9504-2.6386-3.0868l-7.1483-49.292c0.47548-1.3794 0.99705-2.5716 1.5422-3.6012z" style="paint-order:markers stroke fill"/>
    </g>
    <path d="m741.81 195.4c-0.12545 1.0462-0.19127 2.1192-0.19127 3.2175 0 14.679 11.554 28.222 25.198 28.222 13.645 0 25.198-13.543 25.198-28.222 0-1.0982-0.0658-2.1712-0.19126-3.2175-1.5504 13.359-12.383 24.952-25.007 24.952-12.624 0-23.456-11.593-25.007-24.952z" stroke-width="1.3" style="paint-order:markers stroke fill"/>
    <path d="m779.99 177.21v38.675c0.27266-0.19737 0.54254-0.39939 0.80844-0.60785v-37.573c-0.26581-0.17022-0.53587-0.33412-0.80844-0.49437z" stroke-width=".80628" style="paint-order:markers stroke fill"/>
    <ellipse cx="780.38" cy="192.16" rx="3.061" ry="4.5207" stroke-width="1.097" style="paint-order:markers stroke fill"/>
    <ellipse cx="780.38" cy="192.16" rx="2.3389" ry="3.4542" stroke-width=".83817" style="paint-order:markers stroke fill"/>
    <path d="m750.94 240.95s-1.5918 1.2933-1.7908 3.3826-0.19898 27.409-0.19898 27.409l8.2077 2.139s1.741-21.688 2.4872-25.27c0.74615-3.5816-2.8852-8.0585-2.8852-8.0585z" stroke-width="1.0635" style="paint-order:markers stroke fill"/>
    <path d="m773.42 248.61 9.9487 27.309 7.9092-2.6364-7.4118-28.205z" stroke-width="1.0635" style="paint-order:markers stroke fill"/>
    <path d="m747.29 232.11c0.0679 14.569 8.9926 22.086 19.527 22.086s19.459-7.5171 19.527-22.086c-0.0946 0.0213-0.19253 0.0337-0.29376 0.0337h-38.466c-0.10125 0-0.19916-0.0121-0.29376-0.0337z" stroke-width="1.1444" style="paint-order:markers stroke fill"/>
    <rect x="746.27" y="229.51" width="41.103" height="2.6374" rx="1.3187" ry="1.3187" stroke-width=".75733" style="paint-order:markers stroke fill"/>
    <rect transform="matrix(.53177 0 0 .53177 985.86 509.88)" x="-426.1" y="-514.06" width="28.365" height="55.472" rx="14.183" ry="14.183" clip-path="url(#clipPath5238-8)" stroke-width="1.6988" style="paint-order:markers stroke fill"/>
    <path d="m786.35 232.11c-0.0946 0.0213-0.19253 0.0337-0.29376 0.0337h-4.7823c-1.0119 12.946-9.504 19.615-19.425 19.615-2.1208 0-4.1762-0.30537-6.1074-0.91095 3.1737 2.2226 7.007 3.3484 11.082 3.3484 10.534 0 19.459-7.5171 19.527-22.086z" stroke-width="1.1444" style="paint-order:markers stroke fill"/>
    <path transform="matrix(.53177 0 0 .53177 985.86 509.88)" d="m-322.89-773.09c3.6094-31.143-0.62217-69.614 33.863-79.887" clip-path="url(#clipPath5095-9)" stroke-width="2" style="paint-order:markers stroke fill"/>
    <path transform="matrix(-.53177 0 0 .53177 547.78 509.88)" d="m-322.89-773.09c3.6094-31.143-0.62217-69.614 33.863-79.887" clip-path="url(#clipPath5095-9)" stroke-width="2" style="paint-order:markers stroke fill"/>
    <g transform="matrix(.53177 0 0 .53177 985.86 509.88)">
     <path d="m-526.35-591.52s2.3386-4.9579 6.8287-3.087c4.4901 1.8709 28.853 15.172 32.179 18.99 7.3556 8.4431 11.099 34.444 4.3966 41.627-6.361 7.2964-33.582-24.789-41.44-35.453s-8.9802-13.096-8.2319-15.341c0.74834-2.2451 6.2675-6.7352 6.2675-6.7352z" stroke-width="2" style="paint-order:markers stroke fill"/>
     <path transform="matrix(.26458 0 0 .26458 -90.714 -23.146)" d="m-1661.1-2134.9c-4.2285 4.3401-8.0117 8.8769-9.1035 12.152-2.8285 8.4853 1.4128 17.677 31.111 57.982s132.58 161.57 156.62 134c10.005-10.722 13.83-32.552 13.109-56.994-63.263-6.8962-96.535-43.082-133.67-73.467-24.223-19.819-45.282-51.972-58.07-73.67z" stroke-width="7.5591" style="paint-order:markers stroke fill"/>
    </g>
    <g transform="matrix(-.53177 0 0 .53177 547.74 509.88)" stroke-width="2">
     <path d="m-475.38-606.47-24.424 36.461-1.0948 16.601c3.4148 5.7454 33.472-32.919 39.245-39.195 5.7691-6.2713 11.498-21.625 11.498-21.625l-19.887-2.4525z" style="paint-order:markers stroke fill"/>
     <path transform="rotate(-37.821)" d="m38.537-769.45c3e-6 7.4653-12.868 11.623-27.05 11.623-14.182 0-24.306-4.1579-24.306-11.623-3e-6 -7.4653 11.496-13.517 25.678-13.517 14.182 0 25.678 6.0518 25.678 13.517z" style="paint-order:markers stroke fill"/>
    </g>
    <g stroke-width="1.0635">
     <path d="m695.42 186.7c-3.4471-0.35174-10.693-2.0401-13.155-0.87936-2.4622 1.1608-2.2449 3.9633 1.4421 5.9796 2.2512 1.2311 9.9543 5.663 12.416 7.2459 2.4622 1.5828 4.2561 2.5325 6.7534 1.4421 2.4974-1.0904 5.7686-5.9444 4.4671-8.5121-0.45728-3.1657-2.7612-5.4929-4.3968-8.09-1.226-1.9469-2.316-6.1984-4.045-5.5927-5.0464 1.7679 1.9406 8.7206-3.4822 8.4066z" style="paint-order:markers stroke fill"/>
     <path d="m746.07 277.7s-2.216 8.7232-2.5325 17.235-0.49244 5.6982-0.45727 7.3162c0.0351 1.618 0.35176 2.5677 0.35176 2.5677s-4.2913 3.3767-5.7686 6.7886c-1.4773 3.4119-2.1808 6.2962 0.17586 6.5776 2.3567 0.2814 26.099 0.17587 26.381 0.10548 0.2814-0.0704 1.7235-0.84419 1.5477-2.5677s-0.38693-2.1104-0.38693-2.1104l-2.6381-7.9845s1.2311-0.21104 0.77383-5.9444c-0.45725-5.7334-1.8642-16.004-2.5677-18.783-0.70348-2.7788-1.6884-7.0348-4.5726-9.2156-2.8843-2.1808-3.695-1.6447-3.695-1.6447s-0.37262-1.6823-1.5068-2.3975c-0.92337-0.58228-2.4815-0.51937-3.6972 1.58-2.4769 4.2773-1.3601 8.4653-1.407 8.477z" style="paint-order:markers stroke fill"/>
     <path d="m756.24 271.59c0.1011 5.3875 0.62362 33.389 0.55977 33.868-0.0704 0.52763 0.70348 1.8291-2.5677 0.4221s-3.6229-2.4622-6.6127-2.216c-2.2455 0.18492-3.0627 0.76669-4.5671 1.477-0.19568 0.16432-0.43458 0.36906-0.74938 0.65374 0.10261-0.0195 0.20774-0.0387 0.32179-0.0555 2.1456-0.31657 7.4921-1.7939 10.798 1.1256 3.3064 2.9195 3.7988 6.2962 3.7284 7.8087-0.0633 1.3603 0.61113 2.3794-2.0159 3.6966 4.894-0.0121 8.9709-0.045 9.0859-0.0737 0.28139-0.0704 1.7235-0.84419 1.5477-2.5677-0.17587-1.7235-0.38691-2.1105-0.38691-2.1105l-2.6381-7.9845s1.2311-0.21104 0.77383-5.9444c-0.45726-5.7334-1.8642-16.004-2.5677-18.783-0.70347-2.7788-1.6884-7.0348-4.5726-9.2156-0.048-0.0363-0.0908-0.0658-0.13772-0.10064z" style="paint-order:markers stroke fill"/>
    </g>
    <ellipse transform="matrix(.98298 -.18372 .16631 .98607 0 0)" cx="700.37" cy="445.14" rx="3.2659" ry="4.7153" stroke-width="1.1262" style="paint-order:markers stroke fill"/>
    <path d="m752.95 269.98c-0.0383 1e-3 -0.0717 5e-3 -0.1014 8e-3 -0.0354 0.79828 0 1.8768 0.1789 3.3479 0.59796 4.9244-3.3064 7.5273-3.3064 7.5273 0.0151 0.11986 4.4079-1.2124 6.0851-6.8238 0.33971-0.8166 0.57852-1.554 0.74249-2.214-0.0595-0.048-0.11865-0.0964-0.17971-0.14256-1.9829-1.4993-2.9859-1.7143-3.419-1.7024z" stroke-width="1.0635" style="paint-order:markers stroke fill"/>
    <path d="m795.79 277.95s4.3409 8.7657 6.7075 17.319 1.8683 5.726 2.2216 7.3519c0.3533 1.6259 0.26092 2.5802 0.26092 2.5802s5.1577 3.3932 7.4739 6.8217c2.3162 3.4285 3.722 6.3269 1.4028 6.6096-2.3191 0.28276-26.39 0.17673-26.692 0.10609-0.30189-0.0707-1.9484-0.84829-2.1846-2.5802-0.23614-1.7319-0.11547-2.1207-0.11547-2.1207l0.75263-8.0234s-1.2975-0.21207-2.2125-5.9734c-0.91496-5.7613-1.9587-16.082-1.9141-18.874 0.0446-2.7923 0.0191-7.0691 2.416-9.2605 2.3969-2.1914 3.3469-1.6527 3.3469-1.6527s-0.0269-1.6905 0.94979-2.4092c0.79521-0.58512 2.3883-0.5219 4.1242 1.5877 3.5366 4.2982 3.4122 8.5065 3.4624 8.5183z" stroke-width="1.0729" style="paint-order:markers stroke fill"/>
    <path d="m784.03 271.8c1.1925 5.4138 7.3936 33.552 7.5734 34.033 0.19806 0.53018-0.27284 1.838 2.7019 0.42414 2.9748-1.4138 3.0774-2.4742 6.1646-2.2268 2.3186 0.18582 3.2861 0.77044 4.9805 1.4842 0.23769 0.16514 0.52885 0.37086 0.91609 0.65692-0.10866-0.0197-0.21968-0.0387-0.33925-0.0557-2.2491-0.31811-8.0189-1.8026-10.666 1.131-2.6469 2.9337-2.334 6.3268-1.8992 7.8467 0.39104 1.367-0.0471 2.3909 2.9301 3.7146-4.9593-0.0121-9.0962-0.0451-9.2196-0.074-0.30189-0.0707-1.9484-0.84829-2.1846-2.5802-0.23614-1.7319-0.11547-2.1207-0.11547-2.1207l0.75263-8.0234s-1.2975-0.21207-2.2125-5.9734c-0.91496-5.7613-1.9587-16.082-1.9141-18.874 0.0446-2.7923 0.0191-7.0691 2.416-9.2605 0.0398-0.0365 0.0761-0.0661 0.11532-0.10109z" stroke-width="1.0729" style="paint-order:markers stroke fill"/>
    <ellipse transform="matrix(-.9846 -.17483 .06904 .99761 0 0)" cx="-787.15" cy="173.47" rx="3.4487" ry="4.6834" stroke-width="1.1534" style="paint-order:markers stroke fill"/>
    <path d="m786.96 270.2c0.039 1e-3 0.0735 3e-3 0.10457 8e-3 0.22775 0.80215 0.45084 1.8859 0.6235 3.3642 0.57801 4.9484 5.1578 7.5639 5.1578 7.5639 0.0136 0.12047-4.7556-1.2183-7.803-6.857-0.54033-0.82059-0.95943-1.5616-1.2841-2.2248 0.0486-0.0483 0.0969-0.0969 0.14771-0.14331 1.6479-1.5066 2.612-1.7227 3.0535-1.7107z" stroke-width="1.0729" style="paint-order:markers stroke fill"/>
    <rect transform="matrix(.53177 0 0 -.53177 985.86 509.88)" x="-441.29" y="837.66" width="58.748" height="114.89" rx="29.374" ry="29.374" clip-path="url(#clipPath5339-0)" stroke-width="2" style="paint-order:markers stroke fill"/>
    <path transform="matrix(-.53177 0 0 .53177 555.45 509.88)" d="m-546.19-607.74c-6.4823-0.66146-20.108-3.8365-24.739-1.6536-4.6302 2.1828-4.2216 7.453 2.712 11.245 4.2333 2.3151 18.719 10.649 23.349 13.626 4.6302 2.9766 8.0036 4.7625 12.7 2.712 4.6964-2.0505 10.848-11.179 8.4005-16.007-0.8599-5.9531-5.1926-10.33-8.2682-15.214-2.3055-3.6611-4.3552-11.656-7.6068-10.517-9.4899 3.3246 3.6494 16.399-6.5484 15.809z" opacity=".486" stroke-width="2" style="paint-order:markers stroke fill"/>
    <g transform="matrix(-.53177 0 0 .53177 555.45 509.88)">
     <path d="m-526.35-591.52s2.3386-4.9579 6.8287-3.087c4.4901 1.8709 28.853 15.172 32.179 18.99 7.3556 8.4431 11.099 34.444 4.3966 41.627-6.361 7.2964-33.582-24.789-41.44-35.453s-8.9802-13.096-8.2319-15.341c0.74834-2.2451 6.2675-6.7352 6.2675-6.7352z" stroke-width="2" style="paint-order:markers stroke fill"/>
     <path transform="matrix(.26458 0 0 .26458 -90.714 -23.146)" d="m-1661.1-2134.9c-4.2285 4.3401-8.0117 8.8769-9.1035 12.152-2.8285 8.4853 1.4128 17.677 31.111 57.982s132.58 161.57 156.62 134c10.005-10.722 13.83-32.552 13.109-56.994-63.263-6.8962-96.535-43.082-133.67-73.467-24.223-19.819-45.282-51.972-58.07-73.67z" stroke-width="7.5591" style="paint-order:markers stroke fill"/>
    </g>
    <path d="m845.9 186.7c3.4471-0.35174 10.693-2.0401 13.155-0.87936 2.4622 1.1608 2.2449 3.9633-1.4421 5.9796-2.2512 1.2311-9.9543 5.663-12.416 7.2459-2.4622 1.5828-4.2561 2.5325-6.7534 1.4421-2.4974-1.0904-5.7686-5.9444-4.4671-8.5121 0.45728-3.1657 2.7612-5.4929 4.3968-8.09 1.226-1.9469 2.316-6.1984 4.045-5.5927 5.0464 1.7679-1.9406 8.7206 3.4822 8.4066z" stroke-width="1.0635" style="paint-order:markers stroke fill"/>
   </g>
   <g transform="translate(75.566)">
    <g fill="#0fd" stroke-linecap="round" stroke-linejoin="round">
     <g transform="matrix(-.53177 0 0 .53177 555.45 509.88)" stroke="#0fd">
      <path d="m-526.35-591.52s2.3386-4.9579 6.8287-3.087c4.4901 1.8709 28.853 15.172 32.179 18.99 7.3556 8.4431 11.099 34.444 4.3966 41.627-6.361 7.2964-33.582-24.789-41.44-35.453s-8.9802-13.096-8.2319-15.341c0.74834-2.2451 6.2675-6.7352 6.2675-6.7352z" stroke-width="2" style="paint-order:markers stroke fill"/>
      <path transform="matrix(.26458 0 0 .26458 -90.714 -23.146)" d="m-1661.1-2134.9c-4.2285 4.3401-8.0117 8.8769-9.1035 12.152-2.8285 8.4853 1.4128 17.677 31.111 57.982s132.58 161.57 156.62 134c10.005-10.722 13.83-32.552 13.109-56.994-63.263-6.8962-96.535-43.082-133.67-73.467-24.223-19.819-45.282-51.972-58.07-73.67z" stroke-width="7.5591" style="paint-order:markers stroke fill"/>
     </g>
     <g stroke="#0fd">
      <g stroke-width="2">
       <rect transform="matrix(.53177 0 0 .53177 985.86 509.88)" x="-432.97" y="-540.72" width="42.095" height="17.961" opacity=".10643" style="paint-order:markers stroke fill"/>
       <path transform="matrix(.53177 0 0 .53177 985.86 509.88)" d="m-472.51-600.2-14.155 41.54 3.2392 16.319c4.7855 4.6659 23.811-40.46 27.764-48.017 3.9494-7.5508 5.5095-23.865 5.5095-23.865l-19.844 2.7781z" opacity=".486" style="paint-order:markers stroke fill"/>
       <path transform="matrix(.42006 -.32608 .32608 .42006 985.86 509.88)" d="m38.537-769.45c3e-6 7.4653-12.868 11.623-27.05 11.623-14.182 0-24.306-4.1579-24.306-11.623-3e-6 -7.4653 11.496-13.517 25.678-13.517 14.182 0 25.678 6.0518 25.678 13.517z" opacity=".486" style="paint-order:markers stroke fill"/>
      </g>
      <path transform="matrix(.53177 0 0 .53177 985.86 509.88)" d="m-364.53-585.35c0 27.604-21.727 53.072-47.386 53.072s-47.386-25.468-47.386-53.072 21.727-46.892 47.386-46.892c25.659 0 47.386 19.288 47.386 46.892z" opacity=".486" stroke-width="2.4447" style="paint-order:markers stroke fill"/>
     </g>
     <g transform="matrix(.53177 0 0 .53177 985.86 509.88)" stroke="#0fd">
      <rect x="-428.84" y="-678.79" width="33.842" height="66.627" rx="16.921" ry="16.921" stroke-width="1.9986" style="paint-order:markers stroke fill"/>
      <rect x="-426" y="-673.23" width="28.167" height="55.453" rx="14.083" ry="14.083" stroke-width="1.6634" style="paint-order:markers stroke fill"/>
     </g>
     <g stroke="#0fd">
      <path transform="matrix(.53177 0 0 .53177 985.86 509.88)" d="m-411.92-901.76c-49.68 0-115.27 21.689-126.47 94.386l17.303 124.09c4.2079 30.177 43.719 51.368 109.17 51.368 65.449 0 104.96-21.192 109.17-51.368l17.303-124.09c-11.201-72.696-76.79-94.386-126.47-94.386z" opacity=".486" stroke-width="2" style="paint-order:markers stroke fill"/>
      <path transform="matrix(.53177 0 0 .53177 985.86 509.88)" d="m-411.92-780.71s-29.804 0.16227-66.517 0.16227c-27.704 0-46.552 15.176-28.977 80.769 4.4306 16.535 2.4019 26.665 31.598 40.241 14.82 6.8915 46.821 11.509 63.896 11.509 17.075 0 49.076-4.6179 63.896-11.509 29.196-13.577 27.167-23.706 31.598-40.241 17.576-65.593-1.2722-80.769-28.977-80.769-36.713 0-66.517-0.16227-66.517-0.16227z" opacity=".486" stroke-width="2" style="paint-order:markers stroke fill"/>
      <path transform="matrix(.53177 0 0 .53177 985.86 509.88)" d="m-411.92-777.44s-28.339 0.15401-63.248 0.15401c-17.07 0-32.303 6.1367-34.882 27.324-1.4007 11.51 2.6595 28.111 6.2999 50.505 2.1324 13.117 3.0623 24.137 31.074 37.235 14.078 6.5824 44.52 10.944 60.756 10.944s46.678-4.3617 60.756-10.944c28.012-13.098 28.942-24.118 31.074-37.235 3.6404-22.393 7.7006-38.995 6.2999-50.505-2.5785-21.188-17.812-27.324-34.882-27.324-34.909 0-63.248-0.15401-63.248-0.15401z" opacity=".486" stroke-width="1.9017" style="paint-order:markers stroke fill"/>
      <g stroke-width="2">
       <circle transform="matrix(.53177 0 0 .53177 985.86 509.88)" cx="-359.75" cy="-729.12" r="15.154" opacity=".486" style="paint-order:markers stroke fill"/>
       <path transform="matrix(.53177 0 0 .53177 985.86 509.88)" d="m-285.68-808.8c0.0785 0.47432 0.15563 0.9498 0.22944 1.4288l-17.303 124.09c12.383-7.6946 29.499-25.368 33.928-62.675 5.4688-46.067-10.299-59.268-16.854-62.839z" opacity=".486" style="paint-order:markers stroke fill"/>
       <path transform="matrix(.53177 0 0 .53177 985.86 509.88)" d="m-275.8-797.91-15.504 105.27c1.6689-1.7389 3.3331-3.6677 4.962-5.8048l13.443-92.695c-0.89417-2.594-1.875-4.836-2.9001-6.7722z" opacity=".486" style="paint-order:markers stroke fill"/>
       <circle transform="matrix(-.53177 0 0 .53177 985.86 509.88)" cx="464.09" cy="-729.12" r="15.154" opacity=".486" style="paint-order:markers stroke fill"/>
       <path transform="matrix(.53177 0 0 .53177 985.86 509.88)" d="m-538.16-808.8c-0.0785 0.47432-0.15563 0.9498-0.22944 1.4288l17.303 124.09c-12.383-7.6946-29.499-25.368-33.928-62.675-5.4688-46.067 10.299-59.268 16.854-62.839z" opacity=".486" style="paint-order:markers stroke fill"/>
       <path transform="matrix(.53177 0 0 .53177 985.86 509.88)" d="m-548.04-797.91 15.504 105.27c-1.6689-1.7389-3.3331-3.6677-4.962-5.8048l-13.443-92.695c0.89417-2.594 1.875-4.836 2.9001-6.7722z" opacity=".486" style="paint-order:markers stroke fill"/>
      </g>
      <path transform="matrix(.53177 0 0 .53177 985.86 509.88)" d="m-458.94-591.4c-0.23577 1.9675-0.35968 3.9853-0.35968 6.0505 0 27.604 21.727 53.072 47.386 53.072s47.386-25.468 47.386-53.072c0-2.0652-0.12391-4.083-0.35968-6.0505-2.9156 25.123-23.287 46.923-47.026 46.923s-44.11-21.8-47.026-46.923z" opacity=".486" stroke-width="2.4447" style="paint-order:markers stroke fill"/>
      <path transform="matrix(.1407 0 0 .1407 937.63 497.57)" d="m-1120.4-2277v274.88c1.938-1.4028 3.8561-2.8387 5.746-4.3203v-267.05c-1.8892-1.2098-3.8087-2.3747-5.746-3.5137z" opacity=".486" stroke-width="5.7307" style="paint-order:markers stroke fill"/>
      <ellipse transform="matrix(.53177 0 0 .53177 985.86 509.88)" cx="-386.42" cy="-597.49" rx="5.7563" ry="8.5014" opacity=".486" stroke-width="2.0629" style="paint-order:markers stroke fill"/>
      <ellipse transform="matrix(.53177 0 0 .53177 985.86 509.88)" cx="-386.42" cy="-597.49" rx="4.3983" ry="6.4958" opacity=".486" stroke-width="1.5762" style="paint-order:markers stroke fill"/>
      <path transform="matrix(.53177 0 0 .53177 985.86 509.88)" d="m-441.79-505.74s-2.9934 2.4322-3.3676 6.361c-0.37417 3.9288-0.37417 51.543-0.37417 51.543l15.435 4.0224s3.2741-40.785 4.6772-47.521c1.4032-6.7352-5.4256-15.154-5.4256-15.154z" opacity=".486" stroke-width="2" style="paint-order:markers stroke fill"/>
      <path transform="matrix(.53177 0 0 .53177 985.86 509.88)" d="m-399.5-491.33 18.709 51.356 14.874-4.9579-13.938-53.04z" opacity=".486" stroke-width="2" style="paint-order:markers stroke fill"/>
      <path transform="matrix(.1407 0 0 .1407 937.63 497.57)" d="m-1352.8-1886.8c0.4832 103.55 63.915 156.98 138.79 156.98s138.3-53.428 138.79-156.98c-0.6723 0.1521-1.3684 0.2403-2.0879 0.2403h-273.39c-0.7195 0-1.4156-0.088-2.0879-0.2403z" opacity=".486" stroke-width="8.1341" style="paint-order:markers stroke fill"/>
      <rect transform="matrix(.53177 0 0 .53177 985.86 509.88)" x="-450.57" y="-527.25" width="77.295" height="4.9598" rx="2.4799" ry="2.4799" opacity=".486" stroke-width="1.4242" style="paint-order:markers stroke fill"/>
      <rect transform="matrix(.53177 0 0 .53177 985.86 509.88)" x="-426.1" y="-514.06" width="28.365" height="55.472" rx="14.183" ry="14.183" clip-path="url(#clipPath5238-8)" opacity=".486" stroke-width="1.6988" style="paint-order:markers stroke fill"/>
      <path transform="matrix(.1407 0 0 .1407 937.63 497.57)" d="m-1075.2-1886.8c-0.6723 0.1521-1.3684 0.2403-2.0879 0.2403h-33.99c-7.192 92.016-67.55 139.41-138.06 139.41-15.074 0-29.682-2.1704-43.408-6.4746 22.557 15.798 49.802 23.799 78.764 23.799 74.871 0 138.3-53.428 138.79-156.98z" opacity=".486" stroke-width="8.1341" style="paint-order:markers stroke fill"/>
      <path transform="matrix(.53177 0 0 .53177 985.86 509.88)" d="m-322.89-773.09c3.6094-31.143-0.62217-69.614 33.863-79.887" clip-path="url(#clipPath5095-9)" opacity=".486" stroke-width="2" style="paint-order:markers stroke fill"/>
      <path transform="matrix(-.53177 0 0 .53177 547.78 509.88)" d="m-322.89-773.09c3.6094-31.143-0.62217-69.614 33.863-79.887" clip-path="url(#clipPath5095-9)" opacity=".486" stroke-width="2" style="paint-order:markers stroke fill"/>
     </g>
     <g transform="matrix(.53177 0 0 .53177 985.86 509.88)" stroke="#0fd">
      <path d="m-526.35-591.52s2.3386-4.9579 6.8287-3.087c4.4901 1.8709 28.853 15.172 32.179 18.99 7.3556 8.4431 11.099 34.444 4.3966 41.627-6.361 7.2964-33.582-24.789-41.44-35.453s-8.9802-13.096-8.2319-15.341c0.74834-2.2451 6.2675-6.7352 6.2675-6.7352z" stroke-width="2" style="paint-order:markers stroke fill"/>
      <path transform="matrix(.26458 0 0 .26458 -90.714 -23.146)" d="m-1661.1-2134.9c-4.2285 4.3401-8.0117 8.8769-9.1035 12.152-2.8285 8.4853 1.4128 17.677 31.111 57.982s132.58 161.57 156.62 134c10.005-10.722 13.83-32.552 13.109-56.994-63.263-6.8962-96.535-43.082-133.67-73.467-24.223-19.819-45.282-51.972-58.07-73.67z" stroke-width="7.5591" style="paint-order:markers stroke fill"/>
     </g>
     <g transform="matrix(-.53177 0 0 .53177 547.74 509.88)" stroke="#0fd" stroke-width="2">
      <path d="m-475.38-606.47-24.424 36.461-1.0948 16.601c3.4148 5.7454 33.472-32.919 39.245-39.195 5.7691-6.2713 11.498-21.625 11.498-21.625l-19.887-2.4525z" style="paint-order:markers stroke fill"/>
      <path transform="rotate(-37.821)" d="m38.537-769.45c3e-6 7.4653-12.868 11.623-27.05 11.623-14.182 0-24.306-4.1579-24.306-11.623-3e-6 -7.4653 11.496-13.517 25.678-13.517 14.182 0 25.678 6.0518 25.678 13.517z" style="paint-order:markers stroke fill"/>
     </g>
     <g stroke="#0fd">
      <path transform="matrix(.53177 0 0 .53177 985.86 509.88)" d="m-546.19-607.74c-6.4823-0.66146-20.108-3.8365-24.739-1.6536-4.6302 2.1828-4.2216 7.453 2.712 11.245 4.2333 2.3151 18.719 10.649 23.349 13.626 4.6302 2.9766 8.0036 4.7625 12.7 2.712 4.6964-2.0505 10.848-11.179 8.4005-16.007-0.8599-5.9531-5.1926-10.33-8.2682-15.214-2.3055-3.6611-4.3552-11.656-7.6068-10.517-9.4899 3.3246 3.6494 16.399-6.5484 15.809z" opacity=".486" stroke-width="2" style="paint-order:markers stroke fill"/>
      <path transform="matrix(.53177 0 0 .53177 985.86 509.88)" d="m-450.94-436.62s-4.1672 16.404-4.7625 32.411-0.92604 10.716-0.8599 13.758c0.0661 3.0427 0.66146 4.8286 0.66146 4.8286s-8.0698 6.35-10.848 12.766c-2.7781 6.4161-4.101 11.84 0.33072 12.369 4.4318 0.52916 49.08 0.33073 49.609 0.19844 0.52917-0.1323 3.2411-1.5875 2.9104-4.8286-0.33073-3.2412-0.72761-3.9688-0.72761-3.9688l-4.9609-15.015s2.3151-0.39688 1.4552-11.179c-0.85989-10.782-3.5057-30.096-4.8286-35.322-1.3229-5.2255-3.175-13.229-8.599-17.33s-6.9486-3.0928-6.9486-3.0928-0.70073-3.1637-2.8336-4.5086c-1.7364-1.095-4.6665-0.97669-6.9527 2.9712-4.6579 8.0436-2.5578 15.919-2.6458 15.941z" opacity=".486" stroke-width="2" style="paint-order:markers stroke fill"/>
      <path transform="matrix(.1407 0 0 .1407 937.63 497.57)" d="m-1289.2-1606.2c0.7188 38.292 4.4323 237.31 3.9785 240.71-0.5 3.75 5 13-18.25 3s-25.75-17.5-47-15.75c-15.96 1.3143-21.768 5.4493-32.461 10.498-1.3908 1.168-3.0888 2.6232-5.3262 4.6465 0.7294-0.1393 1.4765-0.2749 2.2871-0.3945 15.25-2.25 53.25-12.75 76.75 8s27 44.75 26.5 55.5c-0.4497 9.6686 4.3436 16.911-14.328 26.273 34.784-0.083 63.76-0.319 64.578-0.5234 2-0.5 12.25-6 11-18.25s-2.75-15-2.75-15l-18.75-56.75s8.75-1.5 5.5-42.25-13.25-113.75-18.25-133.5-12-50-32.5-65.5c-0.3412-0.258-0.6455-0.4675-0.9785-0.7148z" opacity=".486" stroke-width="7.5591" style="paint-order:markers stroke fill"/>
      <ellipse transform="matrix(.52272 -.097695 .088439 .52436 985.86 509.88)" cx="-351.86" cy="-446.24" rx="6.1417" ry="8.8672" opacity=".486" stroke-width="2.1178" style="paint-order:markers stroke fill"/>
      <path transform="matrix(.1407 0 0 .1407 937.63 497.57)" d="m-1312.6-1617.6c-0.2725 0.01-0.5096 0.027-0.7207 0.055-0.2518 5.6737 0 13.339 1.2715 23.795 4.25 35-23.5 53.5-23.5 53.5 0.1065 0.8524 31.329-8.6173 43.25-48.5 2.4145-5.804 4.1118-11.045 5.2773-15.736-0.4223-0.3415-0.8429-0.6853-1.2773-1.0137-14.094-10.656-21.222-12.185-24.301-12.1z" opacity=".486" stroke-width="7.5591" style="paint-order:markers stroke fill"/>
      <path transform="matrix(.53177 0 0 .53177 985.86 509.88)" d="m-357.43-436.15s8.1632 16.484 12.614 32.569c4.4503 16.085 3.5134 10.768 4.1778 13.825 0.66438 3.0575 0.49067 4.8522 0.49067 4.8522s9.6991 6.381 14.055 12.828c4.3558 6.4474 6.9993 11.898 2.6381 12.43-4.3612 0.53173-49.627 0.33234-50.195 0.1994-0.56773-0.13294-3.6641-1.5952-4.1082-4.8522s-0.21701-3.9881-0.21701-3.9881l1.4153-15.088s-2.4401-0.39881-4.1606-11.233c-1.7206-10.834-3.6833-30.243-3.5995-35.494 0.0839-5.251 0.0358-13.294 4.5433-17.415 4.5075-4.121 6.294-3.1079 6.294-3.1079s-0.0507-3.1791 1.7861-4.5306c1.4954-1.1003 4.4913-0.98145 7.7556 2.9857 6.6507 8.0828 6.4167 15.997 6.5112 16.019z" opacity=".486" stroke-width="2.0176" style="paint-order:markers stroke fill"/>
      <path transform="matrix(.53177 0 0 .53177 985.86 509.88)" d="m-379.56-447.71c2.2425 10.181 13.904 63.094 14.242 63.999 0.37246 0.99702-0.51308 3.4563 5.0811 0.79762 5.5942-2.6587 5.7871-4.6528 11.593-4.1875 4.3602 0.34944 6.1796 1.4488 9.3659 2.7911 0.44696 0.31054 0.9945 0.69742 1.7227 1.2354-0.20429-0.037-0.41311-0.073-0.63795-0.10489-4.2295-0.59821-15.08-3.3899-20.057 2.127-4.9775 5.5169-4.3891 11.898-3.5715 14.756 0.73536 2.5706-0.0885 4.4962 5.5102 6.9854-9.326-0.022-17.106-0.0848-17.338-0.13916-0.56772-0.13294-3.6641-1.5952-4.1082-4.8522-0.44408-3.2569-0.21702-3.9881-0.21702-3.9881l1.4153-15.088s-2.4401-0.39881-4.1606-11.233c-1.7206-10.834-3.6833-30.243-3.5995-35.494 0.0839-5.251 0.0359-13.294 4.5433-17.415 0.075-0.0687 0.14325-0.1243 0.21676-0.19005z" opacity=".486" stroke-width="2.0176" style="paint-order:markers stroke fill"/>
      <ellipse transform="matrix(-.52358 -.092969 .036713 .5305 985.86 509.88)" cx="357.88" cy="-312.79" rx="6.4853" ry="8.8073" opacity=".486" stroke-width="2.1689" style="paint-order:markers stroke fill"/>
      <path transform="matrix(.53177 0 0 .53177 985.86 509.88)" d="m-374.04-450.74c0.0735 2e-3 0.13823 7e-3 0.19661 0.0146 0.42827 1.5085 0.84779 3.5466 1.1725 6.3264 1.087 9.3056 9.6994 14.224 9.6994 14.224 0.0256 0.22664-8.943-2.2911-14.674-12.895-1.0161-1.5431-1.8042-2.9367-2.4149-4.1838 0.0914-0.0908 0.18229-0.18221 0.2778-0.26952 3.0989-2.8332 4.9118-3.2396 5.7422-3.217z" opacity=".486" stroke-width="2.0176" style="paint-order:markers stroke fill"/>
      <rect transform="matrix(.53177 0 0 -.53177 985.86 509.88)" x="-441.29" y="837.66" width="58.748" height="114.89" rx="29.374" ry="29.374" clip-path="url(#clipPath5339-0)" opacity=".486" stroke-width="2" style="paint-order:markers stroke fill"/>
     </g>
     <rect x="755.63" y="222.34" width="22.385" height="9.5508" opacity=".219" stroke="#9575cd" stroke-width="1.0635" style="paint-order:markers stroke fill"/>
    </g>
    <g>
     <path d="m734.6 190.71-7.5273 22.089 1.7225 8.6777c2.5448 2.4811 12.662-21.515 14.764-25.534 2.1001-4.0153 2.9298-12.69 2.9298-12.69l-10.552 1.4773z" fill="#231f1c" style="paint-order:markers stroke fill"/>
     <path d="m751.15 174.1c2.4343 3.1359-1.6154 9.0785-7.5725 13.703-5.9571 4.6242-11.566 6.179-14 3.0431-2.4343-3.1359 0.42157-9.4267 6.3786-14.051 5.9571-4.6242 12.76-5.8308 15.194-2.6949z" fill="url(#radialGradient5251-7)" style="paint-order:markers stroke fill"/>
     <path d="m792.02 198.61c0 14.679-11.554 28.222-25.198 28.222s-25.198-13.543-25.198-28.222c0-14.679 11.554-24.936 25.198-24.936 13.645 0 25.198 10.256 25.198 24.936z" fill="#f4f8f8" style="paint-order:markers stroke fill"/>
    </g>
    <g transform="matrix(.53177 0 0 .53177 985.86 509.88)">
     <rect x="-428.84" y="-678.79" width="33.842" height="66.627" rx="16.921" ry="16.921" fill="#0fd" style="paint-order:markers stroke fill"/>
     <rect x="-426" y="-673.23" width="28.167" height="55.453" rx="14.083" ry="14.083" fill="#231f20" style="paint-order:markers stroke fill"/>
    </g>
    <g>
     <path d="m766.82 30.358c-26.418 0-61.297 11.534-67.253 50.191l9.2013 65.987c2.2376 16.047 23.248 27.316 58.052 27.316 34.803 0 55.814-11.269 58.052-27.316l9.2013-65.987c-5.9563-38.658-40.835-50.191-67.253-50.191z" fill="#fff" style="paint-order:markers stroke fill"/>
     <path d="m766.82 94.727s-15.849 0.08626-35.371 0.08626c-14.732 0-24.755 8.07-15.409 42.95 2.356 8.7929 1.2772 14.179 16.803 21.399 7.8805 3.6647 24.898 6.1203 33.978 6.1203 9.08 0 26.097-2.4556 33.978-6.1203 15.525-7.2197 14.446-12.606 16.803-21.399 9.3462-34.88-0.6765-42.95-15.409-42.95-19.523 0-35.371-0.08626-35.371-0.08626z" fill="#9cd1cb" style="paint-order:markers stroke fill"/>
     <path d="m766.82 96.463s-15.07 0.08187-33.633 0.08187c-9.0772 0-17.178 3.2633-18.549 14.53-0.74487 6.1205 1.4142 14.949 3.3501 26.857 1.1339 6.9752 1.6284 12.835 16.524 19.8 7.4859 3.5003 23.674 5.8197 32.308 5.8197s24.822-2.3194 32.308-5.8197c14.896-6.9649 15.39-12.825 16.524-19.8 1.9358-11.908 4.0949-20.736 3.3501-26.857-1.3712-11.267-9.4716-14.53-18.549-14.53-18.563 0-33.633-0.08187-33.633-0.08187z" fill="#231f20" style="paint-order:markers stroke fill"/>
     <circle cx="794.56" cy="122.16" r="8.0585" fill="#0fd" style="paint-order:markers stroke fill"/>
     <path d="m833.95 79.79c0.0418 0.25223 0.0828 0.50507 0.12198 0.75982l-9.201 65.984c6.5847-4.0918 15.686-13.49 18.042-33.329 2.9081-24.497-5.4766-31.517-8.9626-33.416z" fill="#231f20" style="paint-order:markers stroke fill"/>
     <path d="m839.21 85.58-8.2448 55.98c0.88749-0.92468 1.7724-1.9504 2.6386-3.0868l7.1483-49.292c-0.47549-1.3794-0.99704-2.5716-1.5422-3.6012z" fill="#0fd" style="paint-order:markers stroke fill"/>
     <circle transform="scale(-1,1)" cx="-739.08" cy="122.16" r="8.0585" fill="#0fd" style="paint-order:markers stroke fill"/>
     <path d="m699.69 79.79c-0.0418 0.25223-0.0828 0.50507-0.12198 0.75982l9.201 65.984c-6.5847-4.0918-15.686-13.49-18.042-33.329-2.9081-24.497 5.4766-31.517 8.9625-33.416z" fill="#231f20" style="paint-order:markers stroke fill"/>
     <path d="m694.43 85.58 8.2448 55.98c-0.88749-0.92468-1.7725-1.9504-2.6386-3.0868l-7.1483-49.292c0.47548-1.3794 0.99705-2.5716 1.5422-3.6012z" fill="#0fd" style="paint-order:markers stroke fill"/>
     <path d="m741.81 195.4c-0.12545 1.0462-0.19127 2.1192-0.19127 3.2175 0 14.679 11.554 28.222 25.198 28.222 13.645 0 25.198-13.543 25.198-28.222 0-1.0982-0.0658-2.1712-0.19126-3.2175-1.5504 13.359-12.383 24.952-25.007 24.952-12.624 0-23.456-11.593-25.007-24.952z" fill="#79dacf" style="paint-order:markers stroke fill"/>
     <path d="m779.99 177.21v38.675c0.27266-0.19737 0.54254-0.39939 0.80844-0.60785v-37.573c-0.26581-0.17022-0.53587-0.33412-0.80844-0.49437z" fill="#37efd7" style="paint-order:markers stroke fill"/>
     <ellipse cx="780.38" cy="192.16" rx="3.061" ry="4.5207" fill="#231f20" style="paint-order:markers stroke fill"/>
     <ellipse cx="780.38" cy="192.16" rx="2.3389" ry="3.4542" fill="#37efd7" style="paint-order:markers stroke fill"/>
     <path d="m750.94 240.95s-1.5918 1.2933-1.7908 3.3826-0.19898 27.409-0.19898 27.409l8.2077 2.139s1.741-21.688 2.4872-25.27c0.74615-3.5816-2.8852-8.0585-2.8852-8.0585z" fill="#231f20" style="paint-order:markers stroke fill"/>
     <path d="m773.42 248.61 9.9487 27.309 7.9092-2.6364-7.4118-28.205z" fill="#231f20" style="paint-order:markers stroke fill"/>
     <path d="m747.29 232.11c0.0679 14.569 8.9926 22.086 19.527 22.086s19.459-7.5171 19.527-22.086c-0.0946 0.0213-0.19253 0.0337-0.29376 0.0337h-38.466c-0.10125 0-0.19916-0.0121-0.29376-0.0337z" fill="#f4f8f8" style="paint-order:markers stroke fill"/>
     <rect x="746.27" y="229.51" width="41.103" height="2.6374" rx="1.3187" ry="1.3187" fill="#1b504a" style="paint-order:markers stroke fill"/>
    </g>
    <rect transform="matrix(.53177 0 0 .53177 985.86 509.88)" x="-426.1" y="-514.06" width="28.365" height="55.472" rx="14.183" ry="14.183" clip-path="url(#clipPath5238-8)" fill="none" stroke="#1b504a" stroke-linecap="round" stroke-linejoin="round" stroke-width="1.6988" style="paint-order:markers stroke fill"/>
    <path d="m786.35 232.11c-0.0946 0.0213-0.19253 0.0337-0.29376 0.0337h-4.7823c-1.0119 12.946-9.504 19.615-19.425 19.615-2.1208 0-4.1762-0.30537-6.1074-0.91095 3.1737 2.2226 7.007 3.3484 11.082 3.3484 10.534 0 19.459-7.5171 19.527-22.086z" fill="#79dacf" style="paint-order:markers stroke fill"/>
    <path transform="matrix(.53177 0 0 .53177 985.86 509.88)" d="m-322.89-773.09c3.6094-31.143-0.62217-69.614 33.863-79.887" clip-path="url(#clipPath5095-9)" fill="none" stroke="#9cd1cb" stroke-linecap="round" stroke-linejoin="round" stroke-width="2" style="paint-order:markers stroke fill"/>
    <path transform="matrix(-.53177 0 0 .53177 547.78 509.88)" d="m-322.89-773.09c3.6094-31.143-0.62217-69.614 33.863-79.887" clip-path="url(#clipPath5095-9)" fill="none" stroke="#9cd1cb" stroke-linecap="round" stroke-linejoin="round" stroke-width="2" style="paint-order:markers stroke fill"/>
    <g transform="matrix(.53177 0 0 .53177 985.86 509.88)">
     <path d="m-526.35-591.52s2.3386-4.9579 6.8287-3.087c4.4901 1.8709 28.853 15.172 32.179 18.99 7.3556 8.4431 11.099 34.444 4.3966 41.627-6.361 7.2964-33.582-24.789-41.44-35.453s-8.9802-13.096-8.2319-15.341c0.74834-2.2451 6.2675-6.7352 6.2675-6.7352z" fill="#f4f8f8" style="paint-order:markers stroke fill"/>
     <path transform="matrix(.26458 0 0 .26458 -90.714 -23.146)" d="m-1661.1-2134.9c-4.2285 4.3401-8.0117 8.8769-9.1035 12.152-2.8285 8.4853 1.4128 17.677 31.111 57.982s132.58 161.57 156.62 134c10.005-10.722 13.83-32.552 13.109-56.994-63.263-6.8962-96.535-43.082-133.67-73.467-24.223-19.819-45.282-51.972-58.07-73.67z" fill="#79dacf" style="paint-order:markers stroke fill"/>
    </g>
    <g transform="matrix(-.53177 0 0 .53177 547.74 509.88)">
     <path d="m-475.38-606.47-24.424 36.461-1.0948 16.601c3.4148 5.7454 33.472-32.919 39.245-39.195 5.7691-6.2713 11.498-21.625 11.498-21.625l-19.887-2.4525z" fill="#231f1c" style="paint-order:markers stroke fill"/>
     <path transform="rotate(-37.821)" d="m38.537-769.45c3e-6 7.4653-12.868 11.623-27.05 11.623-14.182 0-24.306-4.1579-24.306-11.623-3e-6 -7.4653 11.496-13.517 25.678-13.517 14.182 0 25.678 6.0518 25.678 13.517z" fill="url(#radialGradient5276-8)" style="paint-order:markers stroke fill"/>
    </g>
    <g>
     <path d="m695.42 186.7c-3.4471-0.35174-10.693-2.0401-13.155-0.87936-2.4622 1.1608-2.2449 3.9633 1.4421 5.9796 2.2512 1.2311 9.9543 5.663 12.416 7.2459 2.4622 1.5828 4.2561 2.5325 6.7534 1.4421 2.4974-1.0904 5.7686-5.9444 4.4671-8.5121-0.45728-3.1657-2.7612-5.4929-4.3968-8.09-1.226-1.9469-2.316-6.1984-4.045-5.5927-5.0464 1.7679 1.9406 8.7206-3.4822 8.4066z" fill="#231f1c" style="paint-order:markers stroke fill"/>
     <path d="m746.07 277.7s-2.216 8.7232-2.5325 17.235-0.49244 5.6982-0.45727 7.3162c0.0351 1.618 0.35176 2.5677 0.35176 2.5677s-4.2913 3.3767-5.7686 6.7886c-1.4773 3.4119-2.1808 6.2962 0.17586 6.5776 2.3567 0.2814 26.099 0.17587 26.381 0.10548 0.2814-0.0704 1.7235-0.84419 1.5477-2.5677s-0.38693-2.1104-0.38693-2.1104l-2.6381-7.9845s1.2311-0.21104 0.77383-5.9444c-0.45725-5.7334-1.8642-16.004-2.5677-18.783-0.70348-2.7788-1.6884-7.0348-4.5726-9.2156-2.8843-2.1808-3.695-1.6447-3.695-1.6447s-0.37262-1.6823-1.5068-2.3975c-0.92337-0.58228-2.4815-0.51937-3.6972 1.58-2.4769 4.2773-1.3601 8.4653-1.407 8.477z" fill="#fcfefd" style="paint-order:markers stroke fill"/>
     <path d="m756.24 271.59c0.1011 5.3875 0.62362 33.389 0.55977 33.868-0.0704 0.52763 0.70348 1.8291-2.5677 0.4221s-3.6229-2.4622-6.6127-2.216c-2.2455 0.18492-3.0627 0.76669-4.5671 1.477-0.19568 0.16432-0.43458 0.36906-0.74938 0.65374 0.10261-0.0195 0.20774-0.0387 0.32179-0.0555 2.1456-0.31657 7.4921-1.7939 10.798 1.1256 3.3064 2.9195 3.7988 6.2962 3.7284 7.8087-0.0633 1.3603 0.61113 2.3794-2.0159 3.6966 4.894-0.0121 8.9709-0.045 9.0859-0.0737 0.28139-0.0704 1.7235-0.84419 1.5477-2.5677-0.17587-1.7235-0.38691-2.1105-0.38691-2.1105l-2.6381-7.9845s1.2311-0.21104 0.77383-5.9444c-0.45726-5.7334-1.8642-16.004-2.5677-18.783-0.70347-2.7788-1.6884-7.0348-4.5726-9.2156-0.048-0.0363-0.0908-0.0658-0.13772-0.10064z" fill="#9cd1cb" style="paint-order:markers stroke fill"/>
     <ellipse transform="matrix(.98298 -.18372 .16631 .98607 0 0)" cx="700.37" cy="445.14" rx="3.2659" ry="4.7153" fill="#231f20" style="paint-order:markers stroke fill"/>
     <path d="m752.95 269.98c-0.0383 1e-3 -0.0717 5e-3 -0.1014 8e-3 -0.0354 0.79828 0 1.8768 0.1789 3.3479 0.59796 4.9244-3.3064 7.5273-3.3064 7.5273 0.0151 0.11986 4.4079-1.2124 6.0851-6.8238 0.33971-0.8166 0.57852-1.554 0.74249-2.214-0.0595-0.048-0.11865-0.0964-0.17971-0.14256-1.9829-1.4993-2.9859-1.7143-3.419-1.7024z" fill="#9cd1cb" style="paint-order:markers stroke fill"/>
     <path d="m795.79 277.95s4.3409 8.7657 6.7075 17.319 1.8683 5.726 2.2216 7.3519c0.3533 1.6259 0.26092 2.5802 0.26092 2.5802s5.1577 3.3932 7.4739 6.8217c2.3162 3.4285 3.722 6.3269 1.4028 6.6096-2.3191 0.28276-26.39 0.17673-26.692 0.10609-0.30189-0.0707-1.9484-0.84829-2.1846-2.5802-0.23614-1.7319-0.11547-2.1207-0.11547-2.1207l0.75263-8.0234s-1.2975-0.21207-2.2125-5.9734c-0.91496-5.7613-1.9587-16.082-1.9141-18.874 0.0446-2.7923 0.0191-7.0691 2.416-9.2605 2.3969-2.1914 3.3469-1.6527 3.3469-1.6527s-0.0269-1.6905 0.94979-2.4092c0.79521-0.58512 2.3883-0.5219 4.1242 1.5877 3.5366 4.2982 3.4122 8.5065 3.4624 8.5183z" fill="#fcfefd" style="paint-order:markers stroke fill"/>
     <path d="m784.03 271.8c1.1925 5.4138 7.3936 33.552 7.5734 34.033 0.19806 0.53018-0.27284 1.838 2.7019 0.42414 2.9748-1.4138 3.0774-2.4742 6.1646-2.2268 2.3186 0.18582 3.2861 0.77044 4.9805 1.4842 0.23769 0.16514 0.52885 0.37086 0.91609 0.65692-0.10866-0.0197-0.21968-0.0387-0.33925-0.0557-2.2491-0.31811-8.0189-1.8026-10.666 1.131-2.6469 2.9337-2.334 6.3268-1.8992 7.8467 0.39104 1.367-0.0471 2.3909 2.9301 3.7146-4.9593-0.0121-9.0962-0.0451-9.2196-0.074-0.30189-0.0707-1.9484-0.84829-2.1846-2.5802-0.23614-1.7319-0.11547-2.1207-0.11547-2.1207l0.75263-8.0234s-1.2975-0.21207-2.2125-5.9734c-0.91496-5.7613-1.9587-16.082-1.9141-18.874 0.0446-2.7923 0.0191-7.0691 2.416-9.2605 0.0398-0.0365 0.0761-0.0661 0.11532-0.10109z" fill="#9cd1cb" style="paint-order:markers stroke fill"/>
     <ellipse transform="matrix(-.9846 -.17483 .06904 .99761 0 0)" cx="-787.15" cy="173.47" rx="3.4487" ry="4.6834" fill="#231f20" style="paint-order:markers stroke fill"/>
     <path d="m786.96 270.2c0.039 1e-3 0.0735 3e-3 0.10457 8e-3 0.22775 0.80215 0.45084 1.8859 0.6235 3.3642 0.57801 4.9484 5.1578 7.5639 5.1578 7.5639 0.0136 0.12047-4.7556-1.2183-7.803-6.857-0.54033-0.82059-0.95943-1.5616-1.2841-2.2248 0.0486-0.0483 0.0969-0.0969 0.14771-0.14331 1.6479-1.5066 2.612-1.7227 3.0535-1.7107z" fill="#9cd1cb" style="paint-order:markers stroke fill"/>
    </g>
    <rect transform="matrix(.53177 0 0 -.53177 985.86 509.88)" x="-441.29" y="837.66" width="58.748" height="114.89" rx="29.374" ry="29.374" clip-path="url(#clipPath5339-0)" fill="none" stroke="#9cd1cb" stroke-linecap="round" stroke-linejoin="round" stroke-width="2" style="paint-order:markers stroke fill"/>
    <path transform="matrix(-.53177 0 0 .53177 555.45 509.88)" d="m-546.19-607.74c-6.4823-0.66146-20.108-3.8365-24.739-1.6536-4.6302 2.1828-4.2216 7.453 2.712 11.245 4.2333 2.3151 18.719 10.649 23.349 13.626 4.6302 2.9766 8.0036 4.7625 12.7 2.712 4.6964-2.0505 10.848-11.179 8.4005-16.007-0.8599-5.9531-5.1926-10.33-8.2682-15.214-2.3055-3.6611-4.3552-11.656-7.6068-10.517-9.4899 3.3246 3.6494 16.399-6.5484 15.809z" fill="#0fd" opacity=".486" stroke="#0fd" stroke-linecap="round" stroke-linejoin="round" stroke-width="2" style="paint-order:markers stroke fill"/>
    <g transform="matrix(-.53177 0 0 .53177 555.45 509.88)">
     <path d="m-526.35-591.52s2.3386-4.9579 6.8287-3.087c4.4901 1.8709 28.853 15.172 32.179 18.99 7.3556 8.4431 11.099 34.444 4.3966 41.627-6.361 7.2964-33.582-24.789-41.44-35.453s-8.9802-13.096-8.2319-15.341c0.74834-2.2451 6.2675-6.7352 6.2675-6.7352z" fill="#f4f8f8" style="paint-order:markers stroke fill"/>
     <path transform="matrix(.26458 0 0 .26458 -90.714 -23.146)" d="m-1661.1-2134.9c-4.2285 4.3401-8.0117 8.8769-9.1035 12.152-2.8285 8.4853 1.4128 17.677 31.111 57.982s132.58 161.57 156.62 134c10.005-10.722 13.83-32.552 13.109-56.994-63.263-6.8962-96.535-43.082-133.67-73.467-24.223-19.819-45.282-51.972-58.07-73.67z" fill="#79dacf" style="paint-order:markers stroke fill"/>
    </g>
    <path d="m845.9 186.7c3.4471-0.35174 10.693-2.0401 13.155-0.87936 2.4622 1.1608 2.2449 3.9633-1.4421 5.9796-2.2512 1.2311-9.9543 5.663-12.416 7.2459-2.4622 1.5828-4.2561 2.5325-6.7534 1.4421-2.4974-1.0904-5.7686-5.9444-4.4671-8.5121 0.45728-3.1657 2.7612-5.4929 4.3968-8.09 1.226-1.9469 2.316-6.1984 4.045-5.5927 5.0464 1.7679-1.9406 8.7206 3.4822 8.4066z" fill="#231f1c" style="paint-order:markers stroke fill"/>
   </g>
  </g>
 </g>
</svg>
