<svg xmlns="http://www.w3.org/2000/svg" viewBox="0 0 50.536 55.184" height="208.569" width="191.003"><defs><linearGradient id="e"><stop offset="0" stop-color="#303394"/><stop offset="1" stop-color="#303394"/></linearGradient><linearGradient id="f"><stop offset="0" stop-color="#303392"/><stop offset="1" stop-color="#3941bd"/></linearGradient><linearGradient id="d"><stop offset="0" stop-color="#fff"/><stop offset=".243" stop-color="#fafcfb"/><stop offset=".472" stop-color="#b4d7d3"/><stop offset="1" stop-color="#bbdbd6"/></linearGradient><linearGradient id="c"><stop offset="0" stop-color="#00519d"/><stop offset="1" stop-color="#00519d" stop-opacity="0"/></linearGradient><linearGradient id="b"><stop offset="0" stop-color="#518cef"/><stop offset="1" stop-color="#518cef" stop-opacity="0"/></linearGradient><linearGradient id="a"><stop offset="0" stop-color="#518cef"/><stop offset="1" stop-color="#518cef" stop-opacity="0"/></linearGradient><clipPath id="i" clipPathUnits="userSpaceOnUse"><path d="M-411.918 901.757c-49.68 0-115.27-21.69-126.471-94.386l17.303-124.09c4.208-30.177 43.719-51.37 109.168-51.37 65.448 0 104.96 21.193 109.167 51.37l17.303 124.09c-11.2 72.696-76.79 94.386-126.47 94.386z" fill="#fff" stroke-width="2" stroke-linecap="round" stroke-linejoin="round" paint-order="markers stroke fill"/></clipPath><clipPath id="h" clipPathUnits="userSpaceOnUse"><path d="M-411.918-901.757v269.845c65.297-4.443 104.96-21.192 109.167-51.368l17.303-124.09c-11.2-72.697-76.924-90.744-126.47-94.387z" opacity=".661" fill="#e57373" stroke="#9575cd" stroke-width="2" stroke-linecap="round" stroke-linejoin="round" paint-order="markers stroke fill"/></clipPath><filter height="1.191" y="-.096" width="1.213" x="-.106" id="g" color-interpolation-filters="sRGB"><feGaussianBlur stdDeviation="3.028"/></filter></defs><g transform="matrix(.61028 0 0 .61028 33.606 -155.112)" opacity=".582" fill="#0fd" stroke="#0fd" filter="url(#g)" stroke-linecap="round" stroke-linejoin="round" paint-order="markers stroke fill"><path d="M-13.662 273.454c-11.76 0-27.284 5.133-29.936 22.34l4.096 29.372c.996 7.143 10.348 12.159 25.84 12.159 15.49 0 24.843-5.016 25.839-12.159l4.096-29.372c-2.652-17.207-18.176-22.34-29.935-22.34z" stroke-width=".473"/><path d="M-13.662 302.105s-7.055.038-15.745.038c-6.557 0-11.018 3.592-6.858 19.118 1.048 3.914.568 6.311 7.479 9.525 3.507 1.631 11.082 2.724 15.124 2.724 4.041 0 11.616-1.093 15.123-2.724 6.91-3.214 6.43-5.611 7.48-9.525 4.16-15.526-.302-19.118-6.86-19.118-8.689 0-15.743-.038-15.743-.038z" stroke-width=".473"/><path d="M-13.662 302.878s-6.708.036-14.971.036c-4.04 0-7.646 1.453-8.256 6.468-.332 2.724.63 6.654 1.49 11.954.505 3.105.726 5.713 7.356 8.814 3.332 1.558 10.538 2.59 14.38 2.59 3.844 0 11.05-1.032 14.381-2.59 6.63-3.1 6.85-5.71 7.355-8.814.862-5.3 1.823-9.23 1.491-11.954-.61-5.015-4.215-6.468-8.256-6.468-8.263 0-14.97-.036-14.97-.036z" stroke-width=".45"/><path d="M2.273 314.315a3.587 3.587 0 01-3.587 3.587 3.587 3.587 0 01-3.587-3.587 3.587 3.587 0 013.587-3.586 3.587 3.587 0 013.587 3.586zM16.218 295.456l.055.338-4.096 29.37c2.931-1.82 6.982-6.004 8.03-14.834 1.295-10.904-2.437-14.029-3.989-14.874z" stroke-width=".473"/><path d="M18.557 298.033l-3.67 24.918c.395-.412.79-.868 1.175-1.374l3.182-21.94a11.27 11.27 0 00-.687-1.604zM-29.598 314.315a3.587 3.587 0 003.587 3.587 3.587 3.587 0 003.587-3.587 3.587 3.587 0 00-3.587-3.586 3.587 3.587 0 00-3.587 3.586zM-43.543 295.456l-.055.338 4.096 29.37c-2.931-1.82-6.982-6.004-8.03-14.834-1.295-10.904 2.437-14.029 3.989-14.874z" stroke-width=".473"/><path d="M-45.882 298.033l3.67 24.918a15.912 15.912 0 01-1.175-1.374l-3.182-21.94a11.27 11.27 0 01.687-1.604z" stroke-width=".473"/><path transform="matrix(.2367 0 0 .2367 83.837 486.896)" d="M-322.891-773.088c3.61-31.143-.622-69.614 33.863-79.887" clip-path="url(#h)" stroke-width="2"/><path clip-path="url(#h)" d="M-322.891-773.088c3.61-31.143-.622-69.614 33.863-79.887" transform="matrix(-.2367 0 0 .2367 -111.162 486.896)" stroke-width="2"/><path d="M-411.918 837.655v0a29.31 29.31 0 0129.374 29.375v56.14a29.31 29.31 0 01-29.374 29.374v0a29.31 29.31 0 01-29.375-29.374v-56.14a29.31 29.31 0 0129.375-29.375z" clip-path="url(#i)" transform="matrix(.2367 0 0 -.2367 83.837 486.896)" stroke-width="2"/></g><g paint-order="markers stroke fill"><path d="M20.224 12.435C13.292 14.292 4.95 19.77 6.106 30.332L13.16 47c1.715 4.053 8.02 5.532 17.152 3.086 9.132-2.447 13.853-6.881 13.312-11.25l-2.225-17.96c-4.281-9.725-14.243-10.299-21.175-8.441z" fill="#fff"/><path d="M24.75 29.324s-4.153 1.137-9.276 2.51c-3.865 1.035-5.928 3.857-1.023 12.352 1.236 2.142 1.332 3.631 5.913 4.434 2.326.407 6.963-.145 9.346-.783 2.382-.638 6.675-2.48 8.485-3.995 3.566-2.986 2.904-4.323 2.904-6.796 0-9.81-3.197-11.222-7.063-10.186-5.122 1.372-9.287 2.464-9.287 2.464z" fill="#9cd1cb"/><path d="M24.871 29.78s-3.948 1.08-8.819 2.386c-2.382.638-4.278 2.064-3.845 5.116.235 1.659 1.422 3.823 2.767 6.812.788 1.75 1.33 3.253 5.728 4.033 2.21.392 6.62-.137 8.886-.744 2.266-.607 6.35-2.354 8.068-3.799 3.419-2.874 3.137-4.447 2.944-6.357-.33-3.26-.384-5.728-1.01-7.282-1.151-2.86-3.506-3.147-5.888-2.508-4.87 1.305-8.83 2.343-8.83 2.343z" fill="#231f20"/><path d="M36.072 34.005a2.189 2.189 0 01-1.548 2.68 2.189 2.189 0 01-2.681-1.547 2.189 2.189 0 011.548-2.68 2.189 2.189 0 012.68 1.547z" fill="#0fd"/><path d="M41.313 20.685l.086.19 2.225 17.961c1.44-1.536 3.167-4.642 2.39-10.013-.959-6.632-3.653-7.885-4.7-8.138z" fill="#231f20"/><path d="M43.1 21.835l1.772 15.268a9.71 9.71 0 00.475-.996l-1.59-13.436a6.878 6.878 0 00-.658-.836zM17.284 39.039a2.189 2.189 0 002.681 1.548 2.189 2.189 0 001.548-2.681 2.189 2.189 0 00-2.68-1.548 2.189 2.189 0 00-1.549 2.681z" fill="#0fd"/><path d="M6.085 30.124l.021.208L13.16 47c-2.016-.61-5.065-2.437-7.077-7.477-2.486-6.223-.78-8.654.002-9.398z" fill="#231f20"/><path d="M5.113 32.013l6.1 14.109a9.71 9.71 0 01-.91-.625l-5.341-12.43c.028-.396.08-.745.151-1.054z" fill="#0fd"/><path transform="rotate(-15 522.294 -361.697) scale(.14445)" d="M-322.891-773.088c3.61-31.143-.622-69.614 33.863-79.887" clip-path="url(#h)" fill="none" stroke="#9cd1cb" stroke-width="2" stroke-linecap="round" stroke-linejoin="round"/><path clip-path="url(#h)" d="M-322.891-773.088c3.61-31.143-.622-69.614 33.863-79.887" transform="scale(-.14445 .14445) rotate(15 -4027.656 624.855)" fill="none" stroke="#9cd1cb" stroke-width="2" stroke-linecap="round" stroke-linejoin="round"/><path d="M-411.918 837.655v0a29.31 29.31 0 0129.374 29.375v56.14a29.31 29.31 0 01-29.374 29.374v0a29.31 29.31 0 01-29.375-29.374v-56.14a29.31 29.31 0 0129.375-29.375z" clip-path="url(#i)" transform="scale(.14445 -.14445) rotate(15 3615.738 2503.977)" fill="none" stroke="#9cd1cb" stroke-width="2" stroke-linecap="round" stroke-linejoin="round"/></g></svg>