<svg xmlns="http://www.w3.org/2000/svg" viewBox="0 0 25.53 31.66" height="119.662" width="96.491"><defs><linearGradient id="e"><stop offset="0" stop-color="#303394"/><stop offset="1" stop-color="#303394"/></linearGradient><linearGradient id="f"><stop offset="0" stop-color="#303392"/><stop offset="1" stop-color="#3941bd"/></linearGradient><linearGradient id="d"><stop offset="0" stop-color="#fff"/><stop offset=".243" stop-color="#fafcfb"/><stop offset=".472" stop-color="#b4d7d3"/><stop offset="1" stop-color="#bbdbd6"/></linearGradient><linearGradient id="c"><stop offset="0" stop-color="#00519d"/><stop offset="1" stop-color="#00519d" stop-opacity="0"/></linearGradient><linearGradient id="b"><stop offset="0" stop-color="#518cef"/><stop offset="1" stop-color="#518cef" stop-opacity="0"/></linearGradient><linearGradient id="a"><stop offset="0" stop-color="#518cef"/><stop offset="1" stop-color="#518cef" stop-opacity="0"/></linearGradient></defs><g fill="#fff"><path d="M9.079 21.237a.369.369 0 10-.37-.638.369.369 0 00.37.638zm0 0"/><path d="M7.568 23.781l1.856 3.216a1.474 1.474 0 102.554-1.474l-1.106-1.916.958-.553a.369.369 0 00.135-.504l-.48-.83c.058-.01.433-.085 7.06-1.385.82-.044 1.31-.94.897-1.656l-1.225-2.122.782-1.186a.369.369 0 00.012-.387l-.737-1.277a.37.37 0 00-.341-.183l-1.418.085-1.36-2.356a1.096 1.096 0 00-.944-.553h-.014c-.381 0-.727.19-.931.51L8.45 17.344 5.32 19.15a2.581 2.581 0 002.247 4.63zm3.772 2.11a.737.737 0 11-1.277.737L8.22 23.436l1.277-.738 1.843 3.193zm-.836-2.923l-.369-.638.638-.369.37.639zm7.245-8.695l.51.882-.454.688-.878-1.52zm-3.867-2.659a.36.36 0 01.32-.177c.063.001.22.02.314.185l4.287 7.425a.368.368 0 01-.31.553c-.05.001-.073.01-.202.034l-4.535-7.855c.095-.122.107-.134.126-.165zm-.617.79l4.261 7.38-6.43 1.261L9.14 17.66zm-8.25 9.903a1.84 1.84 0 01.674-2.518l2.873-1.658 1.843 3.192-2.873 1.659c-.88.508-2.01.205-2.517-.675zm0 0"/><path d="M7.937 21.471a.369.369 0 00-.504-.135l-.638.369a.37.37 0 01-.504-.135.369.369 0 00-.638.368c.303.526.98.711 1.51.405l.639-.368a.369.369 0 00.135-.504zm0 0M22.354 11.489L20.3 12.632a.369.369 0 00.359.644l2.054-1.143a.369.369 0 10-.359-.644zm0 0M22.139 15.306l-1.424-.381a.369.369 0 10-.191.712l1.424.381a.369.369 0 10.19-.712zm0 0M18.56 10.15l-.382 1.424a.369.369 0 00.712.19l.382-1.424a.369.369 0 10-.712-.19zm0 0"/><g stroke="#fff" stroke-width="14.774" stroke-linecap="round" stroke-linejoin="round"><path d="M-984-530h192l144 144v276h-336z" fill="none" transform="matrix(.07278 0 0 .07282 72.154 39.133)"/><path d="M-724.436-530H-648v74.71z" transform="matrix(.07278 0 0 .07282 72.154 39.133)"/></g></g></svg>