<svg xmlns="http://www.w3.org/2000/svg" viewBox="0 0 31.72 31.72" height="119.887" width="119.887"><defs><linearGradient id="e"><stop offset="0" stop-color="#303394"/><stop offset="1" stop-color="#303394"/></linearGradient><linearGradient id="f"><stop offset="0" stop-color="#303392"/><stop offset="1" stop-color="#3941bd"/></linearGradient><linearGradient id="d"><stop offset="0" stop-color="#fff"/><stop offset=".243" stop-color="#fafcfb"/><stop offset=".472" stop-color="#b4d7d3"/><stop offset="1" stop-color="#bbdbd6"/></linearGradient><linearGradient id="c"><stop offset="0" stop-color="#00519d"/><stop offset="1" stop-color="#00519d" stop-opacity="0"/></linearGradient><linearGradient id="b"><stop offset="0" stop-color="#518cef"/><stop offset="1" stop-color="#518cef" stop-opacity="0"/></linearGradient><linearGradient id="a"><stop offset="0" stop-color="#518cef"/><stop offset="1" stop-color="#518cef" stop-opacity="0"/></linearGradient></defs><g fill="#fff"><path d="M31.191 16.917a.529.529 0 00-.528.53v5.286a1.586 1.586 0 01-1.586 1.586h-.529V23.26a2.115 2.115 0 00-1.646-2.058 2.617 2.617 0 00.589-1.642v-2.115a2.647 2.647 0 00-2.644-2.643h-2.114a.529.529 0 00-.529.528v4.23a2.617 2.617 0 00.589 1.642 2.115 2.115 0 00-1.646 2.058v1.058H19.56v-.626a1.586 1.586 0 001.057-1.489v-.529a1.586 1.586 0 00-3.172 0v.53a1.586 1.586 0 001.057 1.488v.626H16.39V13.217h12.688a.529.529 0 000-1.058H27.49v-1.057a2.094 2.094 0 00-.438-1.274 3.706 3.706 0 001.495-2.955 4.75 4.75 0 00-7.966-3.504 1.586 1.586 0 10-1.55 1.918 1.566 1.566 0 00.288-.03 4.732 4.732 0 00-.288 1.616 3.708 3.708 0 001.495 2.955 2.094 2.094 0 00-.438 1.274v1.057h-3.7V2.643a.529.529 0 00-1.058 0v9.516H5.815v-1.057a1.057 1.057 0 011.058-1.057h3.172a1.057 1.057 0 01.99.705.529.529 0 00.997-.354 2.115 2.115 0 00-1.521-1.35 2.615 2.615 0 00.591-1.645V5.287a2.643 2.643 0 00-5.287 0V7.4a2.617 2.617 0 00.59 1.643 2.115 2.115 0 00-1.647 2.058v1.057h-3.7V8.987a.529.529 0 00-1.058 0v13.746a2.647 2.647 0 002.643 2.643h8.225l-1.19 3.172H7.401a2.647 2.647 0 00-2.643 2.643.529.529 0 00.529.53h13.745a.529.529 0 000-1.058H5.906A1.59 1.59 0 017.4 29.605H24.32a1.59 1.59 0 011.495 1.058h-4.667a.529.529 0 000 1.057h5.286a.529.529 0 00.53-.529 2.647 2.647 0 00-2.644-2.643h-2.277l-1.19-3.172h8.225a2.647 2.647 0 002.643-2.643v-5.287a.529.529 0 00-.529-.529zm-12.688 4.758a.529.529 0 011.058 0v.53a.529.529 0 01-1.058 0zm0-17.974a.529.529 0 11.53.528.529.529 0 01-.53-.528zm1.586 3.172a3.7 3.7 0 017.402 0 2.65 2.65 0 01-1.314 2.273 2.068 2.068 0 00-.332-.106 2.617 2.617 0 00.588-1.639V6.344a.529.529 0 00-.528-.529 2.04 2.04 0 01-1.431-.592l-.31-.31a.529.529 0 00-.748 0l-.31.31a2.04 2.04 0 01-1.43.592.529.529 0 00-.53.529v1.057a2.617 2.617 0 00.59 1.643 2.068 2.068 0 00-.332.106 2.65 2.65 0 01-1.315-2.277zm2.115.528v-.575a3.112 3.112 0 001.586-.793 3.112 3.112 0 001.586.793v.575a1.586 1.586 0 01-3.172 0zm-1.057 3.701a1.057 1.057 0 011.057-1.057h3.172a1.057 1.057 0 011.057 1.057v1.057h-5.286zm-14.274-3.7V5.814h3.172v1.586a1.586 1.586 0 01-3.172 0zM8.459 3.7a1.59 1.59 0 011.495 1.057h-2.99a1.59 1.59 0 011.495-1.057zM23.26 19.56v-1.586h3.172v1.586a1.586 1.586 0 01-3.172 0zm0-3.7h1.586a1.59 1.59 0 011.496 1.056h-3.082zM1.057 22.732v-9.516h14.274v11.102h-3.7V23.26a2.115 2.115 0 00-1.647-2.058 2.617 2.617 0 00.59-1.642v-1.058a.529.529 0 00-.53-.528 4.696 4.696 0 01-2.611-.793l-.265-.178a.529.529 0 00-.667.066l-1.057 1.058a.529.529 0 00-.157.375v1.058a2.617 2.617 0 00.589 1.642 2.068 2.068 0 00-.296.092 2.656 2.656 0 01-1.35-2.294 3.7 3.7 0 013.879-3.665 3.822 3.822 0 013.522 3.85 3.961 3.961 0 001.168 2.819l.573.573a.529.529 0 00.747-.748l-.573-.573a2.912 2.912 0 01-.858-2.072 4.832 4.832 0 00-4.53-4.906 4.715 4.715 0 00-3.026.91 1.583 1.583 0 10-1.677 2.232 4.758 4.758 0 00-.283 1.571 3.696 3.696 0 001.513 2.974 2.095 2.095 0 00-.456 1.295v1.058H2.643a1.586 1.586 0 01-1.586-1.586zm5.287-3.172v-.839l.597-.597a5.746 5.746 0 002.575.883v.553a1.586 1.586 0 01-3.172 0zm0 2.643h3.172a1.057 1.057 0 011.057 1.057v1.058H5.287V23.26a1.057 1.057 0 011.057-1.057zM3.701 16.39a.529.529 0 11.528-.529.529.529 0 01-.528.529zm17.212 12.16H10.808l1.19-3.173h7.725zm1.291-4.23V23.26a1.057 1.057 0 011.057-1.057h3.172a1.057 1.057 0 011.058 1.057v1.058z"/><path d="M29.077 0H2.643A2.647 2.647 0 000 2.643v4.23a.529.529 0 001.057 0v-4.23a1.586 1.586 0 011.586-1.586h26.434a1.586 1.586 0 011.586 1.586v12.688a.529.529 0 001.057 0V2.643A2.647 2.647 0 0029.077 0zM17.446 15.86a1.586 1.586 0 101.586-1.586 1.586 1.586 0 00-1.586 1.586zm2.115 0a.529.529 0 11-.529-.529.529.529 0 01.529.53z"/><path d="M5.287 3.7A1.586 1.586 0 103.7 5.288 1.586 1.586 0 005.287 3.7zm-2.115 0a.529.529 0 11.529.53.529.529 0 01-.529-.53z"/></g></svg>