<svg xmlns="http://www.w3.org/2000/svg" viewBox="0 0 7.257 5.443" height="20.572" width="27.429"><defs><linearGradient id="e"><stop offset="0" stop-color="#303394"/><stop offset="1" stop-color="#303394"/></linearGradient><linearGradient id="f"><stop offset="0" stop-color="#303392"/><stop offset="1" stop-color="#3941bd"/></linearGradient><linearGradient id="d"><stop offset="0" stop-color="#fff"/><stop offset=".243" stop-color="#fafcfb"/><stop offset=".472" stop-color="#b4d7d3"/><stop offset="1" stop-color="#bbdbd6"/></linearGradient><linearGradient id="c"><stop offset="0" stop-color="#00519d"/><stop offset="1" stop-color="#00519d" stop-opacity="0"/></linearGradient><linearGradient id="b"><stop offset="0" stop-color="#518cef"/><stop offset="1" stop-color="#518cef" stop-opacity="0"/></linearGradient><linearGradient id="a"><stop offset="0" stop-color="#518cef"/><stop offset="1" stop-color="#518cef" stop-opacity="0"/></linearGradient></defs><path d="M7.12 1.797a.085.085 0 01.137.067v2.899a.68.68 0 01-.68.68H.68a.68.68 0 01-.68-.68V1.865c0-.07.08-.11.137-.066.318.246.739.56 2.185 1.61.299.218.803.677 1.307.675.506.004 1.02-.465 1.308-.675 1.446-1.05 1.865-1.365 2.183-1.612zM3.629 3.63c.328.005.802-.414 1.04-.587 1.88-1.365 2.024-1.484 2.458-1.824a.339.339 0 00.13-.268V.68a.68.68 0 00-.68-.68H.68A.68.68 0 000 .68v.27a.34.34 0 00.13.268c.434.338.577.459 2.458 1.824.238.173.712.592 1.04.587z" fill="#fff"/></svg>