<svg xmlns="http://www.w3.org/2000/svg" viewBox="0 0 6.35 6.35" height="24" width="24"><defs><linearGradient id="e"><stop offset="0" stop-color="#303394"/><stop offset="1" stop-color="#303394"/></linearGradient><linearGradient id="f"><stop offset="0" stop-color="#303392"/><stop offset="1" stop-color="#3941bd"/></linearGradient><linearGradient id="d"><stop offset="0" stop-color="#fff"/><stop offset=".243" stop-color="#fafcfb"/><stop offset=".472" stop-color="#b4d7d3"/><stop offset="1" stop-color="#bbdbd6"/></linearGradient><linearGradient id="c"><stop offset="0" stop-color="#00519d"/><stop offset="1" stop-color="#00519d" stop-opacity="0"/></linearGradient><linearGradient id="b"><stop offset="0" stop-color="#518cef"/><stop offset="1" stop-color="#518cef" stop-opacity="0"/></linearGradient><linearGradient id="a"><stop offset="0" stop-color="#518cef"/><stop offset="1" stop-color="#518cef" stop-opacity="0"/></linearGradient></defs><path d="M5.67 0H.68A.68.68 0 000 .68v4.99a.68.68 0 00.68.68h1.946V4.191h-.893V3.175h.893v-.774c0-.881.524-1.368 1.327-1.368.385 0 .787.069.787.069v.864h-.443c-.437 0-.573.271-.573.55v.659H4.7l-.156 1.016h-.819V6.35H5.67a.68.68 0 00.68-.68V.68A.68.68 0 005.67 0z" fill="#fff"/></svg>