<svg xmlns="http://www.w3.org/2000/svg" viewBox="0 0 32.542 32.551" height="123.026" width="122.995"><defs><linearGradient id="e"><stop offset="0" stop-color="#303394"/><stop offset="1" stop-color="#303394"/></linearGradient><linearGradient id="f"><stop offset="0" stop-color="#303392"/><stop offset="1" stop-color="#3941bd"/></linearGradient><linearGradient id="d"><stop offset="0" stop-color="#fff"/><stop offset=".243" stop-color="#fafcfb"/><stop offset=".472" stop-color="#b4d7d3"/><stop offset="1" stop-color="#bbdbd6"/></linearGradient><linearGradient id="c"><stop offset="0" stop-color="#00519d"/><stop offset="1" stop-color="#00519d" stop-opacity="0"/></linearGradient><linearGradient id="b"><stop offset="0" stop-color="#518cef"/><stop offset="1" stop-color="#518cef" stop-opacity="0"/></linearGradient><linearGradient id="a"><stop offset="0" stop-color="#518cef"/><stop offset="1" stop-color="#518cef" stop-opacity="0"/></linearGradient></defs><path d="M25.194 19.639a5.792 5.792 0 00-5.01-5.724l-2.863-.381v-.447a4.221 4.221 0 001.79-2.056h.31c1.157 0 2.099-.942 2.099-2.1 0-.438-.136-.844-.366-1.181l.214-.9A5.56 5.56 0 0015.967.008h-1.491a5.56 5.56 0 00-5.401 6.84l.214.9c-.23.337-.366.744-.366 1.182 0 1.158.942 2.1 2.1 2.1h.309c.352.868.987 1.59 1.79 2.056v.447l-2.863.382a5.792 5.792 0 00-5.01 5.723v3.989a3.66 3.66 0 001.108 2.624H0v3.15h1.05v3.149H2.1V29.4h28.343v3.15h1.05V29.4h1.05v-3.149h-7.349zm-1.05 0v6.613h-2.1v-7.348h-1.049v7.348h-3.19c.025-.101.04-.206.04-.315v-1.47c0-.643-.448-1.181-1.049-1.324v-3.915a2.08 2.08 0 00.525-1.374c0-.075-.014-.145-.022-.218l2.744-1.03-.426-1.707.428.057a4.739 4.739 0 014.1 4.683zm-11.547 4.206l.598-.598c.227-.226.646-.158.788.128l.39.778h2.108c.174 0 .315.14.315.314v1.47a.315.315 0 01-.315.315h-3.884zm-.651-9.095l1.377-.184c.129.367.341.875.686 1.579-.195.139-.365.31-.503.505l-1.862-.698zm4.325 3.104a1.05 1.05 0 01-2.1 0 1.05 1.05 0 012.1 0zm-1.05 2.1c.183 0 .356-.03.525-.075v3.224h-.725l-.099-.198a1.544 1.544 0 00-.225-.332V19.88c.169.044.342.075.524.075zm3.276-5.204l.301 1.202-1.861.698a2.112 2.112 0 00-.504-.505c.345-.704.558-1.212.686-1.579zm.923-4.77h-.036c.022-.171.036-.346.036-.524V7.881a1.05 1.05 0 010 2.1zm-4.944-8.922h1.491a4.508 4.508 0 014.38 5.547l-.095.4a2.091 2.091 0 00-.832-.173h-.09a1.552 1.552 0 00-1.464-1.05h-1.583c-.29 0-.572-.055-.841-.162l-1.89-.756a1.847 1.847 0 00-2.529 1.714v.254c-.296 0-.577.063-.833.173l-.095-.399a4.508 4.508 0 014.38-5.548zM11.022 9.98a1.05 1.05 0 010-2.1v1.575c0 .178.015.353.037.525zm1.05-.525V6.578a.797.797 0 011.091-.74l1.89.756c.393.158.808.237 1.231.237h1.583c.277 0 .504.227.504.505v2.12a3.152 3.152 0 01-3.15 3.15 3.152 3.152 0 01-3.149-3.15zm3.15 4.199c.363 0 .713-.05 1.05-.138v.138c0 .08-.043.542-.828 2.122-.074-.008-.146-.023-.223-.023-.076 0-.148.015-.222.023-.785-1.58-.827-2.042-.827-2.122v-.138c.336.087.686.138 1.05.138zm-8.923 9.973v-3.99a4.74 4.74 0 014.1-4.682l.428-.058-.427 1.708 2.744 1.03c-.008.073-.022.143-.022.218 0 .528.202 1.005.525 1.374v2.832c-.035-.003-.069-.007-.104-.007-.412 0-.798.161-1.09.452l-.598.598h-2.28c-.043 0-.084.01-.127.013v-4.212h-1.05v4.561a2.095 2.095 0 00-.308.253l-.588.589.742.742.589-.589c.199-.198.462-.307.742-.307h1.972v2.1H8.923a2.627 2.627 0 01-2.624-2.625zm25.194 4.724H1.05v-1.05h30.443z" fill="#fff"/><path d="M17.846 19.954h2.1v1.05h-2.1z" fill="#fff"/><g fill="none" stroke="#fff" stroke-width="48.12" stroke-linecap="round" stroke-linejoin="round"><path d="M-984-530h192l144 144v276h-336zM-694.719-536.499h63.277v62.05z" transform="matrix(.01969 0 0 .0201 44.347 11.272)"/></g></svg>